NotoSansMyanmar-Condensed.ufo
<glyph name="question" format="2">
  <advance width="318"/>
  <unicode hex="003F"/>
  <outline>
    <contour>
      <point x="98" y="249" type="line"/>
      <point x="164" y="249" type="line"/>
      <point x="166" y="263" type="line" smooth="yes"/>
      <point x="169" y="282"/>
      <point x="176" y="306"/>
      <point x="215" y="358" type="curve" smooth="yes"/>
      <point x="272" y="434"/>
      <point x="297" y="474"/>
      <point x="297" y="560" type="curve" smooth="yes"/>
      <point x="297" y="665"/>
      <point x="243" y="724"/>
      <point x="145" y="724" type="curve" smooth="yes"/>
      <point x="98" y="724"/>
      <point x="54" y="709"/>
      <point x="12" y="678" type="curve"/>
      <point x="43" y="614" type="line"/>
      <point x="76" y="637"/>
      <point x="104" y="650"/>
      <point x="141" y="650" type="curve" smooth="yes"/>
      <point x="188" y="650"/>
      <point x="216" y="617"/>
      <point x="216" y="553" type="curve" smooth="yes"/>
      <point x="216" y="495"/>
      <point x="199" y="455"/>
      <point x="151" y="394" type="curve" smooth="yes"/>
      <point x="110" y="342"/>
      <point x="102" y="300"/>
      <point x="99" y="263" type="curve" smooth="yes"/>
    </contour>
    <contour>
      <point x="135" y="-10" type="curve" smooth="yes"/>
      <point x="186" y="-10"/>
      <point x="223" y="28"/>
      <point x="223" y="95" type="curve" smooth="yes"/>
      <point x="223" y="159"/>
      <point x="186" y="199"/>
      <point x="135" y="199" type="curve" smooth="yes"/>
      <point x="83" y="199"/>
      <point x="49" y="159"/>
      <point x="49" y="94" type="curve" smooth="yes"/>
      <point x="49" y="28"/>
      <point x="84" y="-10"/>
    </contour>
    <contour>
      <point x="136" y="40" type="curve" smooth="yes"/>
      <point x="112" y="40"/>
      <point x="100" y="59"/>
      <point x="100" y="94" type="curve" smooth="yes"/>
      <point x="100" y="128"/>
      <point x="115" y="149"/>
      <point x="136" y="149" type="curve" smooth="yes"/>
      <point x="157" y="149"/>
      <point x="172" y="128"/>
      <point x="172" y="94" type="curve" smooth="yes"/>
      <point x="172" y="59"/>
      <point x="157" y="40"/>
    </contour>
  </outline>
</glyph>
<glyph name="ka" format="2">
  <advance width="840"/>
  <unicode hex="1000"/>
  <note>
ka
</note>
  <outline>
    <contour>
      <point x="140" y="-10" type="curve"/>
      <point x="183" y="49" type="line"/>
      <point x="142" y="95"/>
      <point x="122" y="167"/>
      <point x="122" y="255" type="curve" smooth="yes"/>
      <point x="122" y="392"/>
      <point x="165" y="474"/>
      <point x="252" y="474" type="curve" smooth="yes"/>
      <point x="348" y="474"/>
      <point x="382" y="391"/>
      <point x="382" y="255" type="curve" smooth="yes"/>
      <point x="382" y="167"/>
      <point x="360" y="95"/>
      <point x="316" y="49" type="curve"/>
      <point x="359" y="-10" type="line"/>
      <point x="420" y="42"/>
      <point x="459" y="135"/>
      <point x="459" y="257" type="curve" smooth="yes"/>
      <point x="459" y="419"/>
      <point x="378" y="545"/>
      <point x="250" y="545" type="curve" smooth="yes"/>
      <point x="117" y="545"/>
      <point x="39" y="428"/>
      <point x="39" y="257" type="curve" smooth="yes"/>
      <point x="39" y="144"/>
      <point x="82" y="38"/>
    </contour>
    <contour>
      <point x="606" y="-9" type="curve" smooth="yes"/>
      <point x="718" y="-9"/>
      <point x="801" y="98"/>
      <point x="801" y="266" type="curve" smooth="yes"/>
      <point x="801" y="423"/>
      <point x="728" y="545"/>
      <point x="589" y="545" type="curve" smooth="yes"/>
      <point x="509" y="545"/>
      <point x="453" y="497"/>
      <point x="413" y="409" type="curve"/>
      <point x="447" y="327" type="line"/>
      <point x="480" y="421"/>
      <point x="511" y="474"/>
      <point x="587" y="474" type="curve" smooth="yes"/>
      <point x="679" y="474"/>
      <point x="718" y="389"/>
      <point x="718" y="264" type="curve" smooth="yes"/>
      <point x="718" y="138"/>
      <point x="670" y="58"/>
      <point x="597" y="58" type="curve" smooth="yes"/>
      <point x="570" y="58"/>
      <point x="550" y="64"/>
      <point x="528" y="77" type="curve"/>
      <point x="500" y="16" type="line"/>
      <point x="528" y="-2"/>
      <point x="563" y="-9"/>
    </contour>
  </outline>
</glyph>
<glyph name="kha" format="2">
  <advance width="512"/>
  <unicode hex="1001"/>
  <note>
kha
</note>
  <outline>
    <contour>
      <point x="246" y="-10" type="curve" smooth="yes"/>
      <point x="382" y="-10"/>
      <point x="473" y="112"/>
      <point x="473" y="268" type="curve" smooth="yes"/>
      <point x="473" y="424"/>
      <point x="386" y="545"/>
      <point x="249" y="545" type="curve" smooth="yes"/>
      <point x="147" y="545"/>
      <point x="82" y="495"/>
      <point x="41" y="382" type="curve"/>
      <point x="101" y="349" type="line"/>
      <point x="130" y="436"/>
      <point x="179" y="474"/>
      <point x="242" y="474" type="curve" smooth="yes"/>
      <point x="335" y="474"/>
      <point x="391" y="391"/>
      <point x="391" y="269" type="curve" smooth="yes"/>
      <point x="391" y="164"/>
      <point x="344" y="61"/>
      <point x="248" y="61" type="curve" smooth="yes"/>
      <point x="192" y="61"/>
      <point x="142" y="92"/>
      <point x="118" y="152" type="curve"/>
      <point x="155" y="178"/>
      <point x="198" y="199"/>
      <point x="241" y="199" type="curve" smooth="yes"/>
      <point x="299" y="199"/>
      <point x="340" y="166"/>
      <point x="377" y="123" type="curve"/>
      <point x="396" y="184" type="line"/>
      <point x="355" y="231"/>
      <point x="303" y="266"/>
      <point x="237" y="266" type="curve" smooth="yes"/>
      <point x="171" y="266"/>
      <point x="114" y="238"/>
      <point x="37" y="177" type="curve"/>
      <point x="59" y="62"/>
      <point x="140" y="-10"/>
    </contour>
  </outline>
</glyph>
<glyph name="ga" format="2">
  <advance width="508"/>
  <unicode hex="1002"/>
  <note>
ga
</note>
  <outline>
    <contour>
      <point x="140" y="-10" type="curve"/>
      <point x="183" y="49" type="line"/>
      <point x="142" y="95"/>
      <point x="122" y="167"/>
      <point x="122" y="255" type="curve" smooth="yes"/>
      <point x="122" y="392"/>
      <point x="167" y="474"/>
      <point x="254" y="474" type="curve" smooth="yes"/>
      <point x="341" y="474"/>
      <point x="386" y="392"/>
      <point x="386" y="255" type="curve" smooth="yes"/>
      <point x="386" y="167"/>
      <point x="366" y="95"/>
      <point x="325" y="49" type="curve"/>
      <point x="368" y="-10" type="line"/>
      <point x="426" y="39"/>
      <point x="469" y="148"/>
      <point x="469" y="257" type="curve" smooth="yes"/>
      <point x="469" y="426"/>
      <point x="391" y="545"/>
      <point x="254" y="545" type="curve" smooth="yes"/>
      <point x="117" y="545"/>
      <point x="39" y="427"/>
      <point x="39" y="257" type="curve" smooth="yes"/>
      <point x="39" y="144"/>
      <point x="82" y="38"/>
    </contour>
  </outline>
</glyph>
<glyph name="gha" format="2">
  <advance width="840"/>
  <unicode hex="1003"/>
  <note>
gha
</note>
  <outline>
    <contour>
      <point x="244" y="-10" type="curve" smooth="yes"/>
      <point x="375" y="-10"/>
      <point x="459" y="113"/>
      <point x="459" y="278" type="curve" smooth="yes"/>
      <point x="459" y="384"/>
      <point x="418" y="488"/>
      <point x="358" y="545" type="curve"/>
      <point x="315" y="486" type="line"/>
      <point x="361" y="439"/>
      <point x="381" y="370"/>
      <point x="381" y="279" type="curve" smooth="yes"/>
      <point x="381" y="142"/>
      <point x="330" y="58"/>
      <point x="246" y="58" type="curve" smooth="yes"/>
      <point x="171" y="58"/>
      <point x="126" y="118"/>
      <point x="126" y="201" type="curve" smooth="yes"/>
      <point x="126" y="246"/>
      <point x="138" y="282"/>
      <point x="174" y="329" type="curve" smooth="yes"/>
      <point x="210" y="376"/>
      <point x="224" y="401"/>
      <point x="224" y="444" type="curve" smooth="yes"/>
      <point x="224" y="492"/>
      <point x="191" y="545"/>
      <point x="132" y="545" type="curve" smooth="yes"/>
      <point x="91" y="545"/>
      <point x="60" y="527"/>
      <point x="34" y="486" type="curve"/>
      <point x="77" y="440" type="line"/>
      <point x="91" y="466"/>
      <point x="107" y="477"/>
      <point x="123" y="477" type="curve" smooth="yes"/>
      <point x="139" y="477"/>
      <point x="148" y="460"/>
      <point x="148" y="440" type="curve" smooth="yes"/>
      <point x="148" y="413"/>
      <point x="133" y="398"/>
      <point x="106" y="369" type="curve" smooth="yes"/>
      <point x="66" y="327"/>
      <point x="44" y="271"/>
      <point x="44" y="201" type="curve" smooth="yes"/>
      <point x="44" y="77"/>
      <point x="124" y="-10"/>
    </contour>
    <contour>
      <point x="585" y="-10" type="curve" smooth="yes"/>
      <point x="716" y="-10"/>
      <point x="803" y="106"/>
      <point x="803" y="269" type="curve" smooth="yes"/>
      <point x="803" y="437"/>
      <point x="717" y="545"/>
      <point x="603" y="545" type="curve" smooth="yes"/>
      <point x="561" y="545"/>
      <point x="523" y="538"/>
      <point x="494" y="520" type="curve"/>
      <point x="523" y="459" type="line"/>
      <point x="547" y="469"/>
      <point x="566" y="474"/>
      <point x="594" y="474" type="curve" smooth="yes"/>
      <point x="671" y="474"/>
      <point x="721" y="394"/>
      <point x="721" y="271" type="curve" smooth="yes"/>
      <point x="721" y="149"/>
      <point x="670" y="62"/>
      <point x="583" y="62" type="curve" smooth="yes"/>
      <point x="515" y="62"/>
      <point x="467" y="122"/>
      <point x="436" y="207" type="curve"/>
      <point x="399" y="120" type="line"/>
      <point x="440" y="37"/>
      <point x="503" y="-10"/>
    </contour>
  </outline>
</glyph>
<glyph name="nga" format="2">
  <advance width="490"/>
  <unicode hex="1004"/>
  <note>
nga
</note>
  <outline>
    <contour>
      <point x="258" y="-10" type="curve" smooth="yes"/>
      <point x="348" y="-10"/>
      <point x="422" y="56"/>
      <point x="451" y="154" type="curve"/>
      <point x="388" y="187" type="line"/>
      <point x="357" y="104"/>
      <point x="314" y="61"/>
      <point x="260" y="61" type="curve" smooth="yes"/>
      <point x="179" y="61"/>
      <point x="122" y="148"/>
      <point x="122" y="269" type="curve" smooth="yes"/>
      <point x="122" y="389"/>
      <point x="173" y="474"/>
      <point x="256" y="474" type="curve" smooth="yes"/>
      <point x="312" y="474"/>
      <point x="357" y="431"/>
      <point x="387" y="349" type="curve"/>
      <point x="446" y="382" type="line"/>
      <point x="417" y="479"/>
      <point x="344" y="545"/>
      <point x="258" y="545" type="curve" smooth="yes"/>
      <point x="126" y="545"/>
      <point x="39" y="425"/>
      <point x="39" y="268" type="curve" smooth="yes"/>
      <point x="39" y="108"/>
      <point x="125" y="-10"/>
    </contour>
  </outline>
</glyph>
<glyph name="ca" format="2">
  <advance width="511"/>
  <unicode hex="1005"/>
  <note>
ca
</note>
  <outline>
    <contour>
      <point x="255" y="-10" type="curve" smooth="yes"/>
      <point x="383" y="-10"/>
      <point x="472" y="105"/>
      <point x="472" y="267" type="curve" smooth="yes"/>
      <point x="472" y="427"/>
      <point x="387" y="545"/>
      <point x="256" y="545" type="curve" smooth="yes"/>
      <point x="125" y="545"/>
      <point x="39" y="424"/>
      <point x="39" y="267" type="curve" smooth="yes"/>
      <point x="39" y="109"/>
      <point x="125" y="-10"/>
    </contour>
    <contour>
      <point x="196" y="64" type="line"/>
      <point x="233" y="113"/>
      <point x="256" y="179"/>
      <point x="256" y="264" type="curve" smooth="yes"/>
      <point x="256" y="353"/>
      <point x="230" y="419"/>
      <point x="195" y="469" type="curve"/>
      <point x="144" y="431" type="line"/>
      <point x="175" y="386"/>
      <point x="195" y="328"/>
      <point x="195" y="264" type="curve" smooth="yes"/>
      <point x="195" y="199"/>
      <point x="177" y="141"/>
      <point x="144" y="101" type="curve"/>
    </contour>
    <contour>
      <point x="247" y="61" type="curve" smooth="yes"/>
      <point x="173" y="61"/>
      <point x="106" y="144"/>
      <point x="106" y="265" type="curve" smooth="yes"/>
      <point x="106" y="384"/>
      <point x="166" y="474"/>
      <point x="250" y="474" type="curve" smooth="yes"/>
      <point x="334" y="474"/>
      <point x="389" y="389"/>
      <point x="389" y="265" type="curve" smooth="yes"/>
      <point x="389" y="143"/>
      <point x="333" y="61"/>
    </contour>
  </outline>
</glyph>
<glyph name="cha" format="2">
  <advance width="842"/>
  <unicode hex="1006"/>
  <note>
cha
</note>
  <outline>
    <contour>
      <point x="246" y="-10" type="curve" smooth="yes"/>
      <point x="371" y="-10"/>
      <point x="455" y="112"/>
      <point x="455" y="268" type="curve" smooth="yes"/>
      <point x="455" y="424"/>
      <point x="374" y="545"/>
      <point x="249" y="545" type="curve" smooth="yes"/>
      <point x="142" y="545"/>
      <point x="83" y="490"/>
      <point x="41" y="382" type="curve"/>
      <point x="101" y="349" type="line"/>
      <point x="129" y="435"/>
      <point x="181" y="474"/>
      <point x="239" y="474" type="curve" smooth="yes"/>
      <point x="323" y="474"/>
      <point x="377" y="391"/>
      <point x="377" y="269" type="curve" smooth="yes"/>
      <point x="377" y="164"/>
      <point x="332" y="61"/>
      <point x="241" y="61" type="curve" smooth="yes"/>
      <point x="189" y="61"/>
      <point x="141" y="92"/>
      <point x="118" y="152" type="curve"/>
      <point x="153" y="178"/>
      <point x="194" y="199"/>
      <point x="237" y="199" type="curve" smooth="yes"/>
      <point x="295" y="199"/>
      <point x="335" y="167"/>
      <point x="374" y="126" type="curve"/>
      <point x="395" y="187" type="line"/>
      <point x="354" y="233"/>
      <point x="298" y="266"/>
      <point x="234" y="266" type="curve" smooth="yes"/>
      <point x="166" y="266"/>
      <point x="114" y="238"/>
      <point x="37" y="177" type="curve"/>
      <point x="59" y="62"/>
      <point x="140" y="-10"/>
    </contour>
    <contour>
      <point x="582" y="-10" type="curve" smooth="yes"/>
      <point x="712" y="-10"/>
      <point x="803" y="104"/>
      <point x="803" y="267" type="curve" smooth="yes"/>
      <point x="803" y="428"/>
      <point x="716" y="545"/>
      <point x="583" y="545" type="curve" smooth="yes"/>
      <point x="498" y="545"/>
      <point x="442" y="503"/>
      <point x="400" y="423" type="curve"/>
      <point x="435" y="347" type="line"/>
      <point x="463" y="442"/>
      <point x="509" y="474"/>
      <point x="582" y="474" type="curve" smooth="yes"/>
      <point x="667" y="474"/>
      <point x="720" y="392"/>
      <point x="720" y="265" type="curve" smooth="yes"/>
      <point x="720" y="143"/>
      <point x="665" y="61"/>
      <point x="582" y="61" type="curve" smooth="yes"/>
      <point x="508" y="61"/>
      <point x="461" y="115"/>
      <point x="437" y="186" type="curve"/>
      <point x="401" y="114" type="line"/>
      <point x="439" y="40"/>
      <point x="497" y="-10"/>
    </contour>
  </outline>
</glyph>
<glyph name="ja" format="2">
  <advance width="517"/>
  <unicode hex="1007"/>
  <note>
ja
</note>
  <outline>
    <contour>
      <point x="258" y="-10" type="curve" smooth="yes"/>
      <point x="333" y="-10"/>
      <point x="378" y="22"/>
      <point x="419" y="65" type="curve"/>
      <point x="372" y="114" type="line"/>
      <point x="340" y="81"/>
      <point x="308" y="61"/>
      <point x="266" y="61" type="curve" smooth="yes"/>
      <point x="170" y="61"/>
      <point x="122" y="145"/>
      <point x="122" y="268" type="curve" smooth="yes"/>
      <point x="122" y="391"/>
      <point x="177" y="474"/>
      <point x="266" y="474" type="curve" smooth="yes"/>
      <point x="280" y="474"/>
      <point x="297" y="472"/>
      <point x="306" y="470" type="curve"/>
      <point x="308" y="485" type="line"/>
      <point x="273" y="467"/>
      <point x="249" y="425"/>
      <point x="249" y="376" type="curve" smooth="yes"/>
      <point x="249" y="307"/>
      <point x="290" y="261"/>
      <point x="348" y="261" type="curve" smooth="yes"/>
      <point x="367" y="261"/>
      <point x="393" y="268"/>
      <point x="406" y="284" type="curve"/>
      <point x="387" y="280" type="line"/>
      <point x="389" y="207"/>
      <point x="409" y="162"/>
      <point x="489" y="162" type="curve" smooth="yes"/>
      <point x="501" y="162" type="line"/>
      <point x="501" y="233" type="line"/>
      <point x="462" y="233"/>
      <point x="447" y="246"/>
      <point x="447" y="294" type="curve" smooth="yes"/>
      <point x="447" y="306"/>
      <point x="449" y="349"/>
      <point x="449" y="371" type="curve" smooth="yes"/>
      <point x="449" y="490"/>
      <point x="384" y="545"/>
      <point x="262" y="545" type="curve" smooth="yes"/>
      <point x="124" y="545"/>
      <point x="39" y="428"/>
      <point x="39" y="268" type="curve" smooth="yes"/>
      <point x="39" y="121"/>
      <point x="108" y="-10"/>
    </contour>
    <contour>
      <point x="349" y="321" type="curve" smooth="yes"/>
      <point x="321" y="321"/>
      <point x="305" y="347"/>
      <point x="305" y="381" type="curve" smooth="yes"/>
      <point x="305" y="415"/>
      <point x="324" y="442"/>
      <point x="350" y="442" type="curve" smooth="yes"/>
      <point x="376" y="442"/>
      <point x="394" y="416"/>
      <point x="394" y="380" type="curve" smooth="yes"/>
      <point x="394" y="347"/>
      <point x="374" y="321"/>
    </contour>
  </outline>
</glyph>
<glyph name="jha" format="2">
  <advance width="683"/>
  <unicode hex="1008"/>
  <note>
jha
</note>
  <outline>
    <contour>
      <point x="480" y="-466" type="curve" smooth="yes"/>
      <point x="583" y="-466"/>
      <point x="634" y="-382"/>
      <point x="634" y="-215" type="curve" smooth="yes"/>
      <point x="634" y="535" type="line"/>
      <point x="551" y="535" type="line"/>
      <point x="551" y="-215" type="line" smooth="yes"/>
      <point x="551" y="-332"/>
      <point x="536" y="-395"/>
      <point x="481" y="-395" type="curve" smooth="yes"/>
      <point x="428" y="-395"/>
      <point x="411" y="-334"/>
      <point x="411" y="-215" type="curve" smooth="yes"/>
      <point x="411" y="75" type="line"/>
      <point x="328" y="16" type="line"/>
      <point x="328" y="-215" type="line" smooth="yes"/>
      <point x="328" y="-382"/>
      <point x="377" y="-466"/>
    </contour>
    <contour>
      <point x="255" y="-10" type="curve" smooth="yes"/>
      <point x="383" y="-10"/>
      <point x="472" y="105"/>
      <point x="472" y="267" type="curve" smooth="yes"/>
      <point x="472" y="427"/>
      <point x="387" y="545"/>
      <point x="256" y="545" type="curve" smooth="yes"/>
      <point x="125" y="545"/>
      <point x="39" y="424"/>
      <point x="39" y="267" type="curve" smooth="yes"/>
      <point x="39" y="109"/>
      <point x="125" y="-10"/>
    </contour>
    <contour>
      <point x="247" y="61" type="curve" smooth="yes"/>
      <point x="173" y="61"/>
      <point x="106" y="144"/>
      <point x="106" y="265" type="curve" smooth="yes"/>
      <point x="106" y="384"/>
      <point x="166" y="474"/>
      <point x="250" y="474" type="curve" smooth="yes"/>
      <point x="334" y="474"/>
      <point x="389" y="389"/>
      <point x="389" y="265" type="curve" smooth="yes"/>
      <point x="389" y="143"/>
      <point x="333" y="61"/>
    </contour>
    <contour>
      <point x="196" y="64" type="line"/>
      <point x="233" y="113"/>
      <point x="256" y="179"/>
      <point x="256" y="264" type="curve" smooth="yes"/>
      <point x="256" y="353"/>
      <point x="230" y="419"/>
      <point x="195" y="469" type="curve"/>
      <point x="144" y="431" type="line"/>
      <point x="175" y="386"/>
      <point x="195" y="328"/>
      <point x="195" y="264" type="curve" smooth="yes"/>
      <point x="195" y="199"/>
      <point x="177" y="141"/>
      <point x="144" y="101" type="curve"/>
    </contour>
  </outline>
</glyph>
<glyph name="nya" format="2">
  <advance width="511"/>
  <unicode hex="1009"/>
  <note>
nya
</note>
  <outline>
    <contour>
      <point x="205" y="-466" type="curve" smooth="yes"/>
      <point x="641" y="-466" type="line" smooth="yes"/>
      <point x="746" y="-466"/>
      <point x="798" y="-396"/>
      <point x="798" y="-258" type="curve" smooth="yes"/>
      <point x="798" y="-253" type="line"/>
      <point x="716" y="-253" type="line"/>
      <point x="716" y="-268" type="line" smooth="yes"/>
      <point x="716" y="-349"/>
      <point x="693" y="-395"/>
      <point x="644" y="-395" type="curve" smooth="yes"/>
      <point x="203" y="-395" type="line" smooth="yes"/>
      <point x="154" y="-395"/>
      <point x="131" y="-348"/>
      <point x="131" y="-263" type="curve" smooth="yes"/>
      <point x="131" y="124" type="line"/>
      <point x="49" y="154" type="line"/>
      <point x="49" y="-254" type="line" smooth="yes"/>
      <point x="49" y="-396"/>
      <point x="101" y="-466"/>
    </contour>
    <contour>
      <point x="250" y="-10" type="curve" smooth="yes"/>
      <point x="402" y="-10"/>
      <point x="472" y="118"/>
      <point x="472" y="272" type="curve" smooth="yes"/>
      <point x="472" y="426"/>
      <point x="384" y="545"/>
      <point x="249" y="545" type="curve" smooth="yes"/>
      <point x="160" y="545"/>
      <point x="84" y="480"/>
      <point x="54" y="382" type="curve"/>
      <point x="113" y="349" type="line"/>
      <point x="146" y="431"/>
      <point x="191" y="474"/>
      <point x="250" y="474" type="curve" smooth="yes"/>
      <point x="336" y="474"/>
      <point x="389" y="390"/>
      <point x="389" y="269" type="curve" smooth="yes"/>
      <point x="389" y="145"/>
      <point x="333" y="61"/>
      <point x="246" y="61" type="curve" smooth="yes"/>
      <point x="187" y="61"/>
      <point x="139" y="104"/>
      <point x="112" y="187" type="curve"/>
      <point x="49" y="154" type="line"/>
      <point x="79" y="55"/>
      <point x="155" y="-10"/>
    </contour>
  </outline>
</glyph>
<glyph name="nnya" format="2">
  <advance width="844"/>
  <unicode hex="100A"/>
  <note>
nnya
</note>
  <outline>
    <contour>
      <point x="205" y="-466" type="curve" smooth="yes"/>
      <point x="631" y="-466" type="line" smooth="yes"/>
      <point x="736" y="-466"/>
      <point x="788" y="-396"/>
      <point x="788" y="-258" type="curve" smooth="yes"/>
      <point x="788" y="-253" type="line"/>
      <point x="706" y="-253" type="line"/>
      <point x="706" y="-268" type="line" smooth="yes"/>
      <point x="706" y="-349"/>
      <point x="683" y="-395"/>
      <point x="634" y="-395" type="curve" smooth="yes"/>
      <point x="203" y="-395" type="line" smooth="yes"/>
      <point x="154" y="-395"/>
      <point x="131" y="-348"/>
      <point x="131" y="-263" type="curve" smooth="yes"/>
      <point x="131" y="124" type="line"/>
      <point x="49" y="154" type="line"/>
      <point x="49" y="-254" type="line" smooth="yes"/>
      <point x="49" y="-396"/>
      <point x="101" y="-466"/>
    </contour>
    <contour>
      <point x="243" y="-10" type="curve" smooth="yes"/>
      <point x="391" y="-10"/>
      <point x="459" y="123"/>
      <point x="459" y="272" type="curve" smooth="yes"/>
      <point x="459" y="426"/>
      <point x="373" y="545"/>
      <point x="242" y="545" type="curve" smooth="yes"/>
      <point x="156" y="545"/>
      <point x="83" y="480"/>
      <point x="54" y="382" type="curve"/>
      <point x="113" y="349" type="line"/>
      <point x="144" y="431"/>
      <point x="187" y="474"/>
      <point x="243" y="474" type="curve" smooth="yes"/>
      <point x="325" y="474"/>
      <point x="376" y="390"/>
      <point x="376" y="269" type="curve" smooth="yes"/>
      <point x="376" y="150"/>
      <point x="322" y="61"/>
      <point x="239" y="61" type="curve" smooth="yes"/>
      <point x="183" y="61"/>
      <point x="138" y="104"/>
      <point x="112" y="187" type="curve"/>
      <point x="49" y="154" type="line"/>
      <point x="78" y="55"/>
      <point x="151" y="-10"/>
    </contour>
    <contour>
      <point x="587" y="-10" type="curve" smooth="yes"/>
      <point x="718" y="-10"/>
      <point x="805" y="106"/>
      <point x="805" y="269" type="curve" smooth="yes"/>
      <point x="805" y="437"/>
      <point x="719" y="545"/>
      <point x="605" y="545" type="curve" smooth="yes"/>
      <point x="563" y="545"/>
      <point x="525" y="538"/>
      <point x="496" y="520" type="curve"/>
      <point x="525" y="459" type="line"/>
      <point x="549" y="469"/>
      <point x="568" y="474"/>
      <point x="596" y="474" type="curve" smooth="yes"/>
      <point x="673" y="474"/>
      <point x="723" y="394"/>
      <point x="723" y="271" type="curve" smooth="yes"/>
      <point x="723" y="149"/>
      <point x="672" y="62"/>
      <point x="585" y="62" type="curve" smooth="yes"/>
      <point x="517" y="62"/>
      <point x="469" y="122"/>
      <point x="438" y="207" type="curve"/>
      <point x="401" y="120" type="line"/>
      <point x="442" y="37"/>
      <point x="505" y="-10"/>
    </contour>
  </outline>
</glyph>
<glyph name="ttha" format="2">
  <advance width="500"/>
  <unicode hex="100C"/>
  <note>
ttha
</note>
  <outline>
    <contour>
      <point x="215" y="-467" type="curve" smooth="yes"/>
      <point x="295" y="-467" type="line" smooth="yes"/>
      <point x="399" y="-467"/>
      <point x="451" y="-398"/>
      <point x="451" y="-260" type="curve" smooth="yes"/>
      <point x="451" y="154" type="line"/>
      <point x="371" y="61" type="line"/>
      <point x="371" y="-269" type="line" smooth="yes"/>
      <point x="371" y="-350"/>
      <point x="347" y="-396"/>
      <point x="290" y="-396" type="curve" smooth="yes"/>
      <point x="220" y="-396" type="line" smooth="yes"/>
      <point x="173" y="-396"/>
      <point x="143" y="-369"/>
      <point x="143" y="-317" type="curve" smooth="yes"/>
      <point x="143" y="-268"/>
      <point x="162" y="-244"/>
      <point x="190" y="-244" type="curve" smooth="yes"/>
      <point x="214" y="-244"/>
      <point x="231" y="-260"/>
      <point x="248" y="-281" type="curve"/>
      <point x="289" y="-233" type="line"/>
      <point x="259" y="-196"/>
      <point x="229" y="-173"/>
      <point x="178" y="-173" type="curve" smooth="yes"/>
      <point x="112" y="-173"/>
      <point x="61" y="-231"/>
      <point x="61" y="-316" type="curve" smooth="yes"/>
      <point x="61" y="-413"/>
      <point x="124" y="-467"/>
    </contour>
    <contour>
      <point x="258" y="-10" type="curve" smooth="yes"/>
      <point x="348" y="-10"/>
      <point x="422" y="56"/>
      <point x="451" y="154" type="curve"/>
      <point x="388" y="187" type="line"/>
      <point x="357" y="104"/>
      <point x="314" y="61"/>
      <point x="260" y="61" type="curve" smooth="yes"/>
      <point x="179" y="61"/>
      <point x="122" y="148"/>
      <point x="122" y="269" type="curve" smooth="yes"/>
      <point x="122" y="389"/>
      <point x="173" y="474"/>
      <point x="256" y="474" type="curve" smooth="yes"/>
      <point x="312" y="474"/>
      <point x="357" y="431"/>
      <point x="387" y="349" type="curve"/>
      <point x="446" y="382" type="line"/>
      <point x="417" y="479"/>
      <point x="344" y="545"/>
      <point x="258" y="545" type="curve" smooth="yes"/>
      <point x="126" y="545"/>
      <point x="39" y="425"/>
      <point x="39" y="268" type="curve" smooth="yes"/>
      <point x="39" y="108"/>
      <point x="125" y="-10"/>
    </contour>
  </outline>
</glyph>
<glyph name="dda" format="2">
  <advance width="515"/>
  <unicode hex="100D"/>
  <note>
dda
</note>
  <outline>
    <contour>
      <point x="357" y="-467" type="line"/>
      <point x="525" y="-467" type="line"/>
      <point x="525" y="-396" type="line"/>
      <point x="438" y="-396" type="line"/>
      <point x="438" y="-8" type="line"/>
      <point x="390" y="-54"/>
      <point x="317" y="-90"/>
      <point x="248" y="-90" type="curve" smooth="yes"/>
      <point x="191" y="-90"/>
      <point x="152" y="-74"/>
      <point x="130" y="-57" type="curve"/>
      <point x="130" y="62" type="line"/>
      <point x="49" y="154" type="line"/>
      <point x="49" y="-88" type="line"/>
      <point x="103" y="-133"/>
      <point x="165" y="-161"/>
      <point x="239" y="-161" type="curve" smooth="yes"/>
      <point x="284" y="-161"/>
      <point x="323" y="-151"/>
      <point x="357" y="-134" type="curve"/>
    </contour>
    <contour>
      <point x="257" y="-10" type="curve" smooth="yes"/>
      <point x="387" y="-10"/>
      <point x="476" y="108"/>
      <point x="476" y="268" type="curve" smooth="yes"/>
      <point x="476" y="425"/>
      <point x="386" y="545"/>
      <point x="257" y="545" type="curve" smooth="yes"/>
      <point x="160" y="545"/>
      <point x="84" y="479"/>
      <point x="54" y="382" type="curve"/>
      <point x="113" y="349" type="line"/>
      <point x="145" y="431"/>
      <point x="192" y="474"/>
      <point x="251" y="474" type="curve" smooth="yes"/>
      <point x="339" y="474"/>
      <point x="393" y="389"/>
      <point x="393" y="269" type="curve" smooth="yes"/>
      <point x="393" y="148"/>
      <point x="342" y="61"/>
      <point x="255" y="61" type="curve" smooth="yes"/>
      <point x="190" y="61"/>
      <point x="145" y="104"/>
      <point x="112" y="187" type="curve"/>
      <point x="49" y="154" type="line"/>
      <point x="79" y="56"/>
      <point x="156" y="-10"/>
    </contour>
  </outline>
</glyph>
<glyph name="ddha" format="2">
  <advance width="516"/>
  <unicode hex="100E"/>
  <note>
ddha
</note>
  <outline>
    <contour>
      <point x="250" y="-10" type="curve" smooth="yes"/>
      <point x="396" y="-10"/>
      <point x="474" y="108"/>
      <point x="474" y="278" type="curve" smooth="yes"/>
      <point x="474" y="384"/>
      <point x="431" y="491"/>
      <point x="370" y="545" type="curve"/>
      <point x="327" y="486" type="line"/>
      <point x="371" y="440"/>
      <point x="391" y="369"/>
      <point x="391" y="279" type="curve" smooth="yes"/>
      <point x="391" y="145"/>
      <point x="345" y="61"/>
      <point x="249" y="61" type="curve" smooth="yes"/>
      <point x="174" y="61"/>
      <point x="127" y="120"/>
      <point x="127" y="201" type="curve" smooth="yes"/>
      <point x="127" y="246"/>
      <point x="139" y="282"/>
      <point x="176" y="331" type="curve" smooth="yes"/>
      <point x="210" y="376"/>
      <point x="224" y="408"/>
      <point x="224" y="448" type="curve" smooth="yes"/>
      <point x="224" y="499"/>
      <point x="191" y="545"/>
      <point x="132" y="545" type="curve" smooth="yes"/>
      <point x="91" y="545"/>
      <point x="60" y="527"/>
      <point x="34" y="486" type="curve"/>
      <point x="77" y="440" type="line"/>
      <point x="91" y="464"/>
      <point x="105" y="474"/>
      <point x="121" y="474" type="curve" smooth="yes"/>
      <point x="137" y="474"/>
      <point x="148" y="463"/>
      <point x="148" y="444" type="curve" smooth="yes"/>
      <point x="148" y="417"/>
      <point x="133" y="401"/>
      <point x="106" y="369" type="curve" smooth="yes"/>
      <point x="69" y="325"/>
      <point x="44" y="271"/>
      <point x="44" y="201" type="curve" smooth="yes"/>
      <point x="44" y="77"/>
      <point x="127" y="-10"/>
    </contour>
  </outline>
</glyph>
<glyph name="nna" format="2">
  <advance width="965"/>
  <unicode hex="100F"/>
  <note>
nna
</note>
  <outline>
    <contour>
      <point x="483" y="-10" type="curve" smooth="yes"/>
      <point x="560" y="-10"/>
      <point x="608" y="33"/>
      <point x="608" y="118" type="curve" smooth="yes"/>
      <point x="608" y="175"/>
      <point x="593" y="203"/>
      <point x="593" y="267" type="curve" smooth="yes"/>
      <point x="593" y="395"/>
      <point x="638" y="474"/>
      <point x="716" y="474" type="curve" smooth="yes"/>
      <point x="793" y="474"/>
      <point x="843" y="390"/>
      <point x="843" y="266" type="curve" smooth="yes"/>
      <point x="843" y="139"/>
      <point x="791" y="61"/>
      <point x="722" y="61" type="curve" smooth="yes"/>
      <point x="705" y="61"/>
      <point x="692" y="61"/>
      <point x="677" y="67" type="curve"/>
      <point x="658" y="-1" type="line"/>
      <point x="681" y="-8"/>
      <point x="700" y="-10"/>
      <point x="731" y="-10" type="curve" smooth="yes"/>
      <point x="842" y="-10"/>
      <point x="926" y="108"/>
      <point x="926" y="268" type="curve" smooth="yes"/>
      <point x="926" y="425"/>
      <point x="844" y="545"/>
      <point x="717" y="545" type="curve" smooth="yes"/>
      <point x="588" y="545"/>
      <point x="517" y="433"/>
      <point x="517" y="277" type="curve" smooth="yes"/>
      <point x="517" y="198"/>
      <point x="532" y="185"/>
      <point x="532" y="125" type="curve" smooth="yes"/>
      <point x="532" y="90"/>
      <point x="516" y="61"/>
      <point x="483" y="61" type="curve" smooth="yes"/>
      <point x="449" y="61"/>
      <point x="434" y="90"/>
      <point x="434" y="125" type="curve" smooth="yes"/>
      <point x="434" y="188"/>
      <point x="448" y="194"/>
      <point x="448" y="278" type="curve" smooth="yes"/>
      <point x="448" y="435"/>
      <point x="377" y="545"/>
      <point x="248" y="545" type="curve" smooth="yes"/>
      <point x="122" y="545"/>
      <point x="39" y="427"/>
      <point x="39" y="268" type="curve" smooth="yes"/>
      <point x="39" y="106"/>
      <point x="123" y="-10"/>
      <point x="234" y="-10" type="curve" smooth="yes"/>
      <point x="264" y="-10"/>
      <point x="284" y="-8"/>
      <point x="306" y="-1" type="curve"/>
      <point x="287" y="67" type="line"/>
      <point x="273" y="61"/>
      <point x="260" y="61"/>
      <point x="243" y="61" type="curve" smooth="yes"/>
      <point x="174" y="61"/>
      <point x="122" y="141"/>
      <point x="122" y="266" type="curve" smooth="yes"/>
      <point x="122" y="391"/>
      <point x="172" y="474"/>
      <point x="250" y="474" type="curve" smooth="yes"/>
      <point x="326" y="474"/>
      <point x="371" y="395"/>
      <point x="371" y="267" type="curve" smooth="yes"/>
      <point x="371" y="203"/>
      <point x="357" y="175"/>
      <point x="357" y="118" type="curve" smooth="yes"/>
      <point x="357" y="38"/>
      <point x="404" y="-10"/>
    </contour>
    <contour>
      <point x="417" y="420" type="line"/>
      <point x="431" y="445"/>
      <point x="449" y="474"/>
      <point x="483" y="474" type="curve" smooth="yes"/>
      <point x="512" y="474"/>
      <point x="534" y="449"/>
      <point x="548" y="417" type="curve"/>
      <point x="595" y="478" type="line"/>
      <point x="565" y="517"/>
      <point x="534" y="545"/>
      <point x="483" y="545" type="curve" smooth="yes"/>
      <point x="434" y="545"/>
      <point x="399" y="517"/>
      <point x="370" y="478" type="curve"/>
    </contour>
  </outline>
</glyph>
<glyph name="ta" format="2">
  <advance width="840"/>
  <unicode hex="1010"/>
  <note>
ta
</note>
  <outline>
    <contour>
      <point x="249" y="-10" type="curve" smooth="yes"/>
      <point x="390" y="-10"/>
      <point x="457" y="106"/>
      <point x="457" y="264" type="curve" smooth="yes"/>
      <point x="457" y="421"/>
      <point x="386" y="545"/>
      <point x="249" y="545" type="curve" smooth="yes"/>
      <point x="112" y="545"/>
      <point x="39" y="424"/>
      <point x="39" y="267" type="curve" smooth="yes"/>
      <point x="39" y="109"/>
      <point x="118" y="-10"/>
    </contour>
    <contour>
      <point x="249" y="61" type="curve" smooth="yes"/>
      <point x="163" y="61"/>
      <point x="122" y="141"/>
      <point x="122" y="265" type="curve" smooth="yes"/>
      <point x="122" y="390"/>
      <point x="162" y="474"/>
      <point x="249" y="474" type="curve" smooth="yes"/>
      <point x="336" y="474"/>
      <point x="380" y="387"/>
      <point x="380" y="262" type="curve" smooth="yes"/>
      <point x="380" y="142"/>
      <point x="335" y="61"/>
    </contour>
    <contour>
      <point x="601" y="-10" type="curve" smooth="yes"/>
      <point x="732" y="-10"/>
      <point x="801" y="104"/>
      <point x="801" y="266" type="curve" smooth="yes"/>
      <point x="801" y="414"/>
      <point x="733" y="545"/>
      <point x="589" y="545" type="curve" smooth="yes"/>
      <point x="501" y="545"/>
      <point x="447" y="498"/>
      <point x="413" y="409" type="curve"/>
      <point x="446" y="326" type="line"/>
      <point x="477" y="423"/>
      <point x="522" y="474"/>
      <point x="590" y="474" type="curve" smooth="yes"/>
      <point x="676" y="474"/>
      <point x="718" y="378"/>
      <point x="718" y="264" type="curve" smooth="yes"/>
      <point x="718" y="139"/>
      <point x="669" y="61"/>
      <point x="596" y="61" type="curve" smooth="yes"/>
      <point x="570" y="61"/>
      <point x="552" y="67"/>
      <point x="529" y="79" type="curve"/>
      <point x="500" y="16" type="line"/>
      <point x="526" y="-3"/>
      <point x="565" y="-10"/>
    </contour>
  </outline>
</glyph>
<glyph name="da" format="2">
  <advance width="496"/>
  <unicode hex="1012"/>
  <note>
da
</note>
  <outline>
    <contour>
      <point x="254" y="-10" type="curve" smooth="yes"/>
      <point x="387" y="-10"/>
      <point x="458" y="57"/>
      <point x="458" y="156" type="curve" smooth="yes"/>
      <point x="458" y="218"/>
      <point x="421" y="265"/>
      <point x="350" y="282" type="curve"/>
      <point x="350" y="286" type="line"/>
      <point x="407" y="304"/>
      <point x="439" y="338"/>
      <point x="439" y="404" type="curve" smooth="yes"/>
      <point x="439" y="494"/>
      <point x="374" y="545"/>
      <point x="243" y="545" type="curve" smooth="yes"/>
      <point x="130" y="545"/>
      <point x="57" y="490"/>
      <point x="57" y="408" type="curve" smooth="yes"/>
      <point x="57" y="378"/>
      <point x="66" y="356"/>
      <point x="82" y="337" type="curve"/>
      <point x="140" y="372" type="line"/>
      <point x="133" y="380"/>
      <point x="129" y="390"/>
      <point x="129" y="402" type="curve" smooth="yes"/>
      <point x="129" y="452"/>
      <point x="188" y="474"/>
      <point x="245" y="474" type="curve" smooth="yes"/>
      <point x="302" y="474"/>
      <point x="364" y="461"/>
      <point x="364" y="392" type="curve" smooth="yes"/>
      <point x="364" y="343"/>
      <point x="318" y="312"/>
      <point x="267" y="312" type="curve" smooth="yes"/>
      <point x="254" y="312" type="line"/>
      <point x="254" y="246" type="line"/>
      <point x="273" y="246" type="line" smooth="yes"/>
      <point x="342" y="246"/>
      <point x="376" y="208"/>
      <point x="376" y="160" type="curve" smooth="yes"/>
      <point x="376" y="82"/>
      <point x="319" y="61"/>
      <point x="250" y="61" type="curve" smooth="yes"/>
      <point x="172" y="61"/>
      <point x="119" y="94"/>
      <point x="91" y="171" type="curve"/>
      <point x="31" y="138" type="line"/>
      <point x="61" y="46"/>
      <point x="136" y="-10"/>
    </contour>
  </outline>
</glyph>
<glyph name="dha" format="2">
  <advance width="511"/>
  <unicode hex="1013"/>
  <note>
dha
</note>
  <outline>
    <contour>
      <point x="135" y="126" type="line"/>
      <point x="167" y="178"/>
      <point x="207" y="205"/>
      <point x="256" y="205" type="curve" smooth="yes"/>
      <point x="307" y="205"/>
      <point x="345" y="178"/>
      <point x="377" y="127" type="curve"/>
      <point x="400" y="202" type="line"/>
      <point x="361" y="256"/>
      <point x="312" y="276"/>
      <point x="257" y="276" type="curve" smooth="yes"/>
      <point x="196" y="276"/>
      <point x="148" y="253"/>
      <point x="111" y="197" type="curve"/>
    </contour>
    <contour>
      <point x="255" y="-10" type="curve" smooth="yes"/>
      <point x="383" y="-10"/>
      <point x="472" y="105"/>
      <point x="472" y="267" type="curve" smooth="yes"/>
      <point x="472" y="423"/>
      <point x="387" y="545"/>
      <point x="256" y="545" type="curve" smooth="yes"/>
      <point x="125" y="545"/>
      <point x="39" y="424"/>
      <point x="39" y="267" type="curve" smooth="yes"/>
      <point x="39" y="109"/>
      <point x="125" y="-10"/>
    </contour>
    <contour>
      <point x="255" y="61" type="curve" smooth="yes"/>
      <point x="176" y="61"/>
      <point x="122" y="141"/>
      <point x="122" y="265" type="curve" smooth="yes"/>
      <point x="122" y="390"/>
      <point x="173" y="474"/>
      <point x="255" y="474" type="curve" smooth="yes"/>
      <point x="336" y="474"/>
      <point x="389" y="389"/>
      <point x="389" y="265" type="curve" smooth="yes"/>
      <point x="389" y="144"/>
      <point x="336" y="61"/>
    </contour>
  </outline>
</glyph>
<glyph name="na" format="2">
  <advance width="469"/>
  <unicode hex="1014"/>
  <note>
na
</note>
  <outline>
    <contour>
      <point x="198" y="-467" type="line"/>
      <point x="279" y="-467" type="line"/>
      <point x="279" y="46" type="line" smooth="yes"/>
      <point x="279" y="168"/>
      <point x="242" y="266"/>
      <point x="142" y="266" type="curve" smooth="yes"/>
      <point x="71" y="266"/>
      <point x="22" y="213"/>
      <point x="22" y="141" type="curve" smooth="yes"/>
      <point x="22" y="44"/>
      <point x="98" y="-10"/>
      <point x="208" y="-10" type="curve" smooth="yes"/>
      <point x="232" y="-10" type="line" smooth="yes"/>
      <point x="371" y="-10"/>
      <point x="430" y="60"/>
      <point x="430" y="151" type="curve" smooth="yes"/>
      <point x="430" y="232"/>
      <point x="394" y="274"/>
      <point x="299" y="324" type="curve" smooth="yes"/>
      <point x="246" y="352"/>
      <point x="217" y="372"/>
      <point x="217" y="415" type="curve" smooth="yes"/>
      <point x="217" y="449"/>
      <point x="238" y="474"/>
      <point x="270" y="474" type="curve" smooth="yes"/>
      <point x="308" y="474"/>
      <point x="331" y="453"/>
      <point x="356" y="421" type="curve"/>
      <point x="400" y="470" type="line"/>
      <point x="365" y="512"/>
      <point x="332" y="545"/>
      <point x="268" y="545" type="curve" smooth="yes"/>
      <point x="183" y="545"/>
      <point x="136" y="485"/>
      <point x="136" y="415" type="curve" smooth="yes"/>
      <point x="136" y="349"/>
      <point x="167" y="304"/>
      <point x="235" y="270" type="curve" smooth="yes"/>
      <point x="307" y="234"/>
      <point x="347" y="202"/>
      <point x="347" y="149" type="curve" smooth="yes"/>
      <point x="347" y="85"/>
      <point x="297" y="61"/>
      <point x="222" y="61" type="curve" smooth="yes"/>
      <point x="191" y="61" type="line" smooth="yes"/>
      <point x="131" y="61"/>
      <point x="85" y="88"/>
      <point x="85" y="142" type="curve" smooth="yes"/>
      <point x="85" y="173"/>
      <point x="106" y="195"/>
      <point x="134" y="195" type="curve" smooth="yes"/>
      <point x="178" y="195"/>
      <point x="198" y="154"/>
      <point x="198" y="63" type="curve" smooth="yes"/>
    </contour>
  </outline>
</glyph>
<glyph name="pa" format="2">
  <advance width="508"/>
  <unicode hex="1015"/>
  <note>
pa
</note>
  <outline>
    <contour>
      <point x="254" y="-10" type="curve" smooth="yes"/>
      <point x="395" y="-10"/>
      <point x="469" y="97"/>
      <point x="469" y="258" type="curve" smooth="yes"/>
      <point x="469" y="387"/>
      <point x="426" y="496"/>
      <point x="368" y="545" type="curve"/>
      <point x="325" y="486" type="line"/>
      <point x="366" y="440"/>
      <point x="386" y="368"/>
      <point x="386" y="260" type="curve" smooth="yes"/>
      <point x="386" y="131"/>
      <point x="345" y="61"/>
      <point x="254" y="61" type="curve" smooth="yes"/>
      <point x="169" y="61"/>
      <point x="122" y="138"/>
      <point x="122" y="260" type="curve" smooth="yes"/>
      <point x="122" y="368"/>
      <point x="142" y="440"/>
      <point x="183" y="486" type="curve"/>
      <point x="140" y="545" type="line"/>
      <point x="82" y="497"/>
      <point x="39" y="391"/>
      <point x="39" y="258" type="curve" smooth="yes"/>
      <point x="39" y="96"/>
      <point x="117" y="-10"/>
    </contour>
  </outline>
</glyph>
<glyph name="pha" format="2">
  <advance width="512"/>
  <unicode hex="1016"/>
  <note>
pha
</note>
  <outline>
    <contour>
      <point x="259" y="-10" type="curve" smooth="yes"/>
      <point x="398" y="-10"/>
      <point x="473" y="109"/>
      <point x="473" y="279" type="curve" smooth="yes"/>
      <point x="473" y="383"/>
      <point x="427" y="480"/>
      <point x="350" y="544" type="curve"/>
      <point x="285" y="483"/>
      <point x="249" y="401"/>
      <point x="249" y="287" type="curve" smooth="yes"/>
      <point x="249" y="191"/>
      <point x="276" y="114"/>
      <point x="311" y="65" type="curve"/>
      <point x="363" y="102" type="line"/>
      <point x="331" y="145"/>
      <point x="311" y="214"/>
      <point x="311" y="287" type="curve" smooth="yes"/>
      <point x="311" y="359"/>
      <point x="326" y="407"/>
      <point x="355" y="450" type="curve"/>
      <point x="386" y="406"/>
      <point x="396" y="351"/>
      <point x="396" y="281" type="curve" smooth="yes"/>
      <point x="396" y="149"/>
      <point x="348" y="61"/>
      <point x="259" y="61" type="curve" smooth="yes"/>
      <point x="170" y="61"/>
      <point x="122" y="146"/>
      <point x="122" y="281" type="curve" smooth="yes"/>
      <point x="122" y="369"/>
      <point x="139" y="437"/>
      <point x="183" y="486" type="curve"/>
      <point x="140" y="545" type="line"/>
      <point x="78" y="487"/>
      <point x="39" y="385"/>
      <point x="39" y="279" type="curve" smooth="yes"/>
      <point x="39" y="110"/>
      <point x="112" y="-10"/>
    </contour>
  </outline>
</glyph>
<glyph name="ba" format="2">
  <advance width="513"/>
  <unicode hex="1017"/>
  <note>
ba
</note>
  <outline>
    <contour>
      <point x="257" y="-10" type="curve" smooth="yes"/>
      <point x="396" y="-10"/>
      <point x="474" y="108"/>
      <point x="474" y="278" type="curve" smooth="yes"/>
      <point x="474" y="384"/>
      <point x="431" y="491"/>
      <point x="385" y="546" type="curve"/>
      <point x="328" y="498" type="line"/>
      <point x="371" y="440"/>
      <point x="391" y="369"/>
      <point x="391" y="279" type="curve" smooth="yes"/>
      <point x="391" y="145"/>
      <point x="345" y="61"/>
      <point x="256" y="61" type="curve" smooth="yes"/>
      <point x="167" y="61"/>
      <point x="122" y="144"/>
      <point x="122" y="279" type="curve" smooth="yes"/>
      <point x="122" y="369"/>
      <point x="142" y="440"/>
      <point x="184" y="498" type="curve"/>
      <point x="126" y="545" type="line"/>
      <point x="81" y="490"/>
      <point x="39" y="386"/>
      <point x="39" y="278" type="curve" smooth="yes"/>
      <point x="39" y="108"/>
      <point x="118" y="-10"/>
    </contour>
    <contour>
      <point x="256" y="286" type="curve" smooth="yes"/>
      <point x="341" y="286"/>
      <point x="399" y="364"/>
      <point x="399" y="459" type="curve" smooth="yes"/>
      <point x="399" y="491"/>
      <point x="394" y="520"/>
      <point x="385" y="546" type="curve"/>
      <point x="328" y="498" type="line"/>
      <point x="332" y="486"/>
      <point x="334" y="472"/>
      <point x="334" y="459" type="curve" smooth="yes"/>
      <point x="334" y="402"/>
      <point x="310" y="357"/>
      <point x="256" y="357" type="curve" smooth="yes"/>
      <point x="201" y="357"/>
      <point x="177" y="402"/>
      <point x="177" y="459" type="curve" smooth="yes"/>
      <point x="177" y="473"/>
      <point x="179" y="485"/>
      <point x="184" y="498" type="curve"/>
      <point x="126" y="545" type="line"/>
      <point x="117" y="520"/>
      <point x="112" y="490"/>
      <point x="112" y="459" type="curve" smooth="yes"/>
      <point x="112" y="363"/>
      <point x="171" y="286"/>
    </contour>
  </outline>
</glyph>
<glyph name="bha" format="2">
  <advance width="840"/>
  <unicode hex="1018"/>
  <note>
bha
</note>
  <outline>
    <contour>
      <point x="233" y="-10" type="curve" smooth="yes"/>
      <point x="366" y="-10"/>
      <point x="447" y="108"/>
      <point x="447" y="268" type="curve" smooth="yes"/>
      <point x="447" y="425"/>
      <point x="362" y="545"/>
      <point x="233" y="545" type="curve" smooth="yes"/>
      <point x="132" y="545"/>
      <point x="72" y="480"/>
      <point x="44" y="382" type="curve"/>
      <point x="104" y="349" type="line"/>
      <point x="131" y="431"/>
      <point x="176" y="474"/>
      <point x="231" y="474" type="curve" smooth="yes"/>
      <point x="314" y="474"/>
      <point x="368" y="389"/>
      <point x="368" y="269" type="curve" smooth="yes"/>
      <point x="368" y="148"/>
      <point x="312" y="61"/>
      <point x="230" y="61" type="curve" smooth="yes"/>
      <point x="169" y="61"/>
      <point x="133" y="103"/>
      <point x="102" y="187" type="curve"/>
      <point x="39" y="154" type="line"/>
      <point x="68" y="56"/>
      <point x="142" y="-10"/>
    </contour>
    <contour>
      <point x="599" y="-9" type="curve" smooth="yes"/>
      <point x="717" y="-9"/>
      <point x="801" y="98"/>
      <point x="801" y="266" type="curve" smooth="yes"/>
      <point x="801" y="423"/>
      <point x="717" y="545"/>
      <point x="585" y="545" type="curve" smooth="yes"/>
      <point x="503" y="545"/>
      <point x="440" y="499"/>
      <point x="399" y="415" type="curve"/>
      <point x="433" y="333" type="line"/>
      <point x="465" y="428"/>
      <point x="513" y="474"/>
      <point x="584" y="474" type="curve" smooth="yes"/>
      <point x="667" y="474"/>
      <point x="718" y="389"/>
      <point x="718" y="264" type="curve" smooth="yes"/>
      <point x="718" y="140"/>
      <point x="670" y="61"/>
      <point x="592" y="61" type="curve" smooth="yes"/>
      <point x="565" y="61"/>
      <point x="542" y="66"/>
      <point x="517" y="77" type="curve"/>
      <point x="489" y="16" type="line"/>
      <point x="517" y="2"/>
      <point x="554" y="-9"/>
    </contour>
  </outline>
</glyph>
<glyph name="ya" format="2">
  <advance width="841"/>
  <unicode hex="101A"/>
  <note>
ya
</note>
  <outline>
    <contour>
      <point x="252" y="-10" type="curve" smooth="yes"/>
      <point x="386" y="-10"/>
      <point x="459" y="108"/>
      <point x="459" y="278" type="curve" smooth="yes"/>
      <point x="459" y="384"/>
      <point x="418" y="491"/>
      <point x="360" y="545" type="curve"/>
      <point x="317" y="486" type="line"/>
      <point x="361" y="440"/>
      <point x="381" y="369"/>
      <point x="381" y="279" type="curve" smooth="yes"/>
      <point x="381" y="145"/>
      <point x="338" y="61"/>
      <point x="251" y="61" type="curve" smooth="yes"/>
      <point x="167" y="61"/>
      <point x="122" y="144"/>
      <point x="122" y="279" type="curve" smooth="yes"/>
      <point x="122" y="369"/>
      <point x="142" y="440"/>
      <point x="184" y="486" type="curve"/>
      <point x="141" y="545" type="line"/>
      <point x="81" y="490"/>
      <point x="39" y="386"/>
      <point x="39" y="278" type="curve" smooth="yes"/>
      <point x="39" y="108"/>
      <point x="118" y="-10"/>
    </contour>
    <contour>
      <point x="585" y="-10" type="curve" smooth="yes"/>
      <point x="716" y="-10"/>
      <point x="803" y="106"/>
      <point x="803" y="269" type="curve" smooth="yes"/>
      <point x="803" y="437"/>
      <point x="717" y="545"/>
      <point x="603" y="545" type="curve" smooth="yes"/>
      <point x="561" y="545"/>
      <point x="523" y="538"/>
      <point x="494" y="520" type="curve"/>
      <point x="523" y="459" type="line"/>
      <point x="547" y="469"/>
      <point x="566" y="474"/>
      <point x="594" y="474" type="curve" smooth="yes"/>
      <point x="671" y="474"/>
      <point x="721" y="394"/>
      <point x="721" y="271" type="curve" smooth="yes"/>
      <point x="721" y="149"/>
      <point x="670" y="62"/>
      <point x="583" y="62" type="curve" smooth="yes"/>
      <point x="515" y="62"/>
      <point x="467" y="122"/>
      <point x="436" y="207" type="curve"/>
      <point x="399" y="120" type="line"/>
      <point x="440" y="37"/>
      <point x="503" y="-10"/>
    </contour>
  </outline>
</glyph>
<glyph name="la" format="2">
  <advance width="841"/>
  <unicode hex="101C"/>
  <note>
la
</note>
  <outline>
    <contour>
      <point x="234" y="-10" type="curve" smooth="yes"/>
      <point x="276" y="-10"/>
      <point x="311" y="-3"/>
      <point x="339" y="15" type="curve"/>
      <point x="310" y="76" type="line"/>
      <point x="289" y="64"/>
      <point x="271" y="58"/>
      <point x="244" y="58" type="curve" smooth="yes"/>
      <point x="171" y="58"/>
      <point x="122" y="138"/>
      <point x="122" y="266" type="curve" smooth="yes"/>
      <point x="122" y="392"/>
      <point x="167" y="476"/>
      <point x="238" y="476" type="curve" smooth="yes"/>
      <point x="305" y="476"/>
      <point x="349" y="410"/>
      <point x="387" y="245" type="curve" smooth="yes"/>
      <point x="424" y="83"/>
      <point x="485" y="-10"/>
      <point x="602" y="-10" type="curve" smooth="yes"/>
      <point x="721" y="-10"/>
      <point x="802" y="108"/>
      <point x="802" y="267" type="curve" smooth="yes"/>
      <point x="802" y="439"/>
      <point x="724" y="545"/>
      <point x="607" y="545" type="curve" smooth="yes"/>
      <point x="565" y="545"/>
      <point x="530" y="538"/>
      <point x="502" y="520" type="curve"/>
      <point x="531" y="459" type="line"/>
      <point x="552" y="471"/>
      <point x="569" y="477"/>
      <point x="597" y="477" type="curve" smooth="yes"/>
      <point x="672" y="477"/>
      <point x="720" y="399"/>
      <point x="720" y="269" type="curve" smooth="yes"/>
      <point x="720" y="141"/>
      <point x="671" y="59"/>
      <point x="604" y="59" type="curve" smooth="yes"/>
      <point x="530" y="59"/>
      <point x="490" y="141"/>
      <point x="452" y="297" type="curve" smooth="yes"/>
      <point x="412" y="460"/>
      <point x="355" y="545"/>
      <point x="239" y="545" type="curve" smooth="yes"/>
      <point x="118" y="545"/>
      <point x="39" y="424"/>
      <point x="39" y="267" type="curve" smooth="yes"/>
      <point x="39" y="98"/>
      <point x="117" y="-10"/>
    </contour>
  </outline>
</glyph>
<glyph name="wa" format="2">
  <advance width="511"/>
  <unicode hex="101D"/>
  <note>
wa
</note>
  <outline>
    <contour>
      <point x="255" y="-10" type="curve" smooth="yes"/>
      <point x="383" y="-10"/>
      <point x="472" y="105"/>
      <point x="472" y="267" type="curve" smooth="yes"/>
      <point x="472" y="423"/>
      <point x="387" y="545"/>
      <point x="256" y="545" type="curve" smooth="yes"/>
      <point x="125" y="545"/>
      <point x="39" y="424"/>
      <point x="39" y="267" type="curve" smooth="yes"/>
      <point x="39" y="109"/>
      <point x="125" y="-10"/>
    </contour>
    <contour>
      <point x="255" y="61" type="curve" smooth="yes"/>
      <point x="176" y="61"/>
      <point x="122" y="141"/>
      <point x="122" y="265" type="curve" smooth="yes"/>
      <point x="122" y="390"/>
      <point x="173" y="474"/>
      <point x="255" y="474" type="curve" smooth="yes"/>
      <point x="336" y="474"/>
      <point x="389" y="389"/>
      <point x="389" y="265" type="curve" smooth="yes"/>
      <point x="389" y="144"/>
      <point x="336" y="61"/>
    </contour>
  </outline>
</glyph>
<glyph name="sa" format="2">
  <advance width="842"/>
  <unicode hex="101E"/>
  <note>
sa
</note>
  <outline>
    <contour>
      <point x="231" y="-10" type="curve" smooth="yes"/>
      <point x="379" y="-10"/>
      <point x="447" y="123"/>
      <point x="447" y="272" type="curve" smooth="yes"/>
      <point x="447" y="426"/>
      <point x="361" y="545"/>
      <point x="230" y="545" type="curve" smooth="yes"/>
      <point x="144" y="545"/>
      <point x="71" y="480"/>
      <point x="42" y="382" type="curve"/>
      <point x="101" y="349" type="line"/>
      <point x="132" y="431"/>
      <point x="175" y="474"/>
      <point x="231" y="474" type="curve" smooth="yes"/>
      <point x="313" y="474"/>
      <point x="364" y="390"/>
      <point x="364" y="269" type="curve" smooth="yes"/>
      <point x="364" y="150"/>
      <point x="310" y="61"/>
      <point x="227" y="61" type="curve" smooth="yes"/>
      <point x="171" y="61"/>
      <point x="126" y="104"/>
      <point x="100" y="187" type="curve"/>
      <point x="37" y="154" type="line"/>
      <point x="66" y="55"/>
      <point x="139" y="-10"/>
    </contour>
    <contour>
      <point x="585" y="-10" type="curve" smooth="yes"/>
      <point x="716" y="-10"/>
      <point x="803" y="106"/>
      <point x="803" y="269" type="curve" smooth="yes"/>
      <point x="803" y="437"/>
      <point x="717" y="545"/>
      <point x="603" y="545" type="curve" smooth="yes"/>
      <point x="561" y="545"/>
      <point x="523" y="538"/>
      <point x="494" y="520" type="curve"/>
      <point x="523" y="459" type="line"/>
      <point x="547" y="469"/>
      <point x="566" y="474"/>
      <point x="594" y="474" type="curve" smooth="yes"/>
      <point x="671" y="474"/>
      <point x="721" y="394"/>
      <point x="721" y="271" type="curve" smooth="yes"/>
      <point x="721" y="149"/>
      <point x="670" y="62"/>
      <point x="583" y="62" type="curve" smooth="yes"/>
      <point x="515" y="62"/>
      <point x="467" y="122"/>
      <point x="436" y="207" type="curve"/>
      <point x="399" y="120" type="line"/>
      <point x="440" y="37"/>
      <point x="503" y="-10"/>
    </contour>
  </outline>
</glyph>
<glyph name="lla" format="2">
  <advance width="503"/>
  <unicode hex="1020"/>
  <note>
lla
</note>
  <outline>
    <contour>
      <point x="218" y="-466" type="curve" smooth="yes"/>
      <point x="294" y="-466" type="line" smooth="yes"/>
      <point x="399" y="-466"/>
      <point x="451" y="-404"/>
      <point x="451" y="-281" type="curve" smooth="yes"/>
      <point x="451" y="-276" type="line"/>
      <point x="369" y="-276" type="line"/>
      <point x="369" y="-291" type="line" smooth="yes"/>
      <point x="369" y="-357"/>
      <point x="346" y="-395"/>
      <point x="297" y="-395" type="curve" smooth="yes"/>
      <point x="216" y="-395" type="line" smooth="yes"/>
      <point x="167" y="-395"/>
      <point x="144" y="-348"/>
      <point x="144" y="-263" type="curve" smooth="yes"/>
      <point x="144" y="-134" type="line"/>
      <point x="178" y="-151"/>
      <point x="216" y="-161"/>
      <point x="261" y="-161" type="curve" smooth="yes"/>
      <point x="335" y="-161"/>
      <point x="397" y="-133"/>
      <point x="451" y="-88" type="curve"/>
      <point x="451" y="154" type="line"/>
      <point x="370" y="62" type="line"/>
      <point x="370" y="-57" type="line"/>
      <point x="348" y="-74"/>
      <point x="309" y="-90"/>
      <point x="252" y="-90" type="curve" smooth="yes"/>
      <point x="183" y="-90"/>
      <point x="110" y="-54"/>
      <point x="62" y="-8" type="curve"/>
      <point x="62" y="-254" type="line" smooth="yes"/>
      <point x="62" y="-396"/>
      <point x="114" y="-466"/>
    </contour>
    <contour>
      <point x="258" y="-10" type="curve" smooth="yes"/>
      <point x="348" y="-10"/>
      <point x="422" y="56"/>
      <point x="451" y="154" type="curve"/>
      <point x="388" y="187" type="line"/>
      <point x="357" y="104"/>
      <point x="314" y="61"/>
      <point x="260" y="61" type="curve" smooth="yes"/>
      <point x="179" y="61"/>
      <point x="122" y="148"/>
      <point x="122" y="269" type="curve" smooth="yes"/>
      <point x="122" y="389"/>
      <point x="173" y="474"/>
      <point x="256" y="474" type="curve" smooth="yes"/>
      <point x="312" y="474"/>
      <point x="357" y="431"/>
      <point x="387" y="349" type="curve"/>
      <point x="446" y="382" type="line"/>
      <point x="417" y="479"/>
      <point x="344" y="545"/>
      <point x="258" y="545" type="curve" smooth="yes"/>
      <point x="126" y="545"/>
      <point x="39" y="425"/>
      <point x="39" y="268" type="curve" smooth="yes"/>
      <point x="39" y="108"/>
      <point x="125" y="-10"/>
    </contour>
  </outline>
</glyph>
<glyph name="a_shn" format="2">
  <advance width="840"/>
  <unicode hex="1022"/>
  <note>
a_shn
</note>
  <outline>
    <contour>
      <point x="132" y="-10" type="curve" smooth="yes"/>
      <point x="191" y="-10"/>
      <point x="224" y="43"/>
      <point x="224" y="91" type="curve" smooth="yes"/>
      <point x="224" y="134"/>
      <point x="210" y="159"/>
      <point x="174" y="206" type="curve" smooth="yes"/>
      <point x="138" y="253"/>
      <point x="126" y="289"/>
      <point x="126" y="334" type="curve" smooth="yes"/>
      <point x="126" y="417"/>
      <point x="171" y="477"/>
      <point x="246" y="477" type="curve" smooth="yes"/>
      <point x="330" y="477"/>
      <point x="381" y="393"/>
      <point x="381" y="256" type="curve" smooth="yes"/>
      <point x="381" y="165"/>
      <point x="361" y="96"/>
      <point x="315" y="49" type="curve"/>
      <point x="358" y="-10" type="line"/>
      <point x="418" y="47"/>
      <point x="459" y="151"/>
      <point x="459" y="257" type="curve" smooth="yes"/>
      <point x="459" y="422"/>
      <point x="375" y="545"/>
      <point x="244" y="545" type="curve" smooth="yes"/>
      <point x="124" y="545"/>
      <point x="44" y="458"/>
      <point x="44" y="334" type="curve" smooth="yes"/>
      <point x="44" y="264"/>
      <point x="66" y="208"/>
      <point x="106" y="166" type="curve" smooth="yes"/>
      <point x="133" y="137"/>
      <point x="148" y="122"/>
      <point x="148" y="95" type="curve" smooth="yes"/>
      <point x="148" y="75"/>
      <point x="139" y="58"/>
      <point x="123" y="58" type="curve" smooth="yes"/>
      <point x="107" y="58"/>
      <point x="91" y="69"/>
      <point x="77" y="95" type="curve"/>
      <point x="34" y="49" type="line"/>
      <point x="60" y="8"/>
      <point x="91" y="-10"/>
    </contour>
    <contour>
      <point x="603" y="-10" type="curve" smooth="yes"/>
      <point x="717" y="-10"/>
      <point x="803" y="98"/>
      <point x="803" y="266" type="curve" smooth="yes"/>
      <point x="803" y="429"/>
      <point x="716" y="545"/>
      <point x="585" y="545" type="curve" smooth="yes"/>
      <point x="503" y="545"/>
      <point x="440" y="498"/>
      <point x="399" y="415" type="curve"/>
      <point x="436" y="328" type="line"/>
      <point x="467" y="413"/>
      <point x="515" y="473"/>
      <point x="583" y="473" type="curve" smooth="yes"/>
      <point x="670" y="473"/>
      <point x="721" y="386"/>
      <point x="721" y="264" type="curve" smooth="yes"/>
      <point x="721" y="141"/>
      <point x="671" y="61"/>
      <point x="594" y="61" type="curve" smooth="yes"/>
      <point x="566" y="61"/>
      <point x="547" y="66"/>
      <point x="523" y="76" type="curve"/>
      <point x="494" y="15" type="line"/>
      <point x="523" y="-3"/>
      <point x="561" y="-10"/>
    </contour>
  </outline>
</glyph>
<glyph name="i_m" format="2">
  <advance width="822"/>
  <unicode hex="1023"/>
  <note>
i_m
</note>
  <outline>
    <contour>
      <point x="138" y="-10" type="curve"/>
      <point x="181" y="48" type="line"/>
      <point x="141" y="95"/>
      <point x="122" y="162"/>
      <point x="122" y="255" type="curve" smooth="yes"/>
      <point x="122" y="392"/>
      <point x="173" y="474"/>
      <point x="246" y="474" type="curve" smooth="yes"/>
      <point x="327" y="474"/>
      <point x="369" y="377"/>
      <point x="369" y="225" type="curve" smooth="yes"/>
      <point x="369" y="119" type="line"/>
      <point x="452" y="119" type="line"/>
      <point x="452" y="230" type="line" smooth="yes"/>
      <point x="452" y="385"/>
      <point x="494" y="474"/>
      <point x="576" y="474" type="curve" smooth="yes"/>
      <point x="650" y="474"/>
      <point x="700" y="390"/>
      <point x="700" y="255" type="curve" smooth="yes"/>
      <point x="700" y="162"/>
      <point x="681" y="95"/>
      <point x="642" y="48" type="curve"/>
      <point x="684" y="-10" type="line"/>
      <point x="742" y="41"/>
      <point x="783" y="146"/>
      <point x="783" y="257" type="curve" smooth="yes"/>
      <point x="783" y="430"/>
      <point x="698" y="545"/>
      <point x="577" y="545" type="curve" smooth="yes"/>
      <point x="491" y="545"/>
      <point x="420" y="486"/>
      <point x="397" y="381" type="curve"/>
      <point x="423" y="381" type="line"/>
      <point x="404" y="480"/>
      <point x="332" y="545"/>
      <point x="246" y="545" type="curve" smooth="yes"/>
      <point x="125" y="545"/>
      <point x="39" y="429"/>
      <point x="39" y="257" type="curve" smooth="yes"/>
      <point x="39" y="140"/>
      <point x="81" y="38"/>
    </contour>
    <contour>
      <point x="616" y="-467" type="line"/>
      <point x="738" y="-467" type="line"/>
      <point x="738" y="-396" type="line"/>
      <point x="664" y="-396" type="line"/>
      <point x="681" y="-361"/>
      <point x="695" y="-315"/>
      <point x="695" y="-262" type="curve" smooth="yes"/>
      <point x="695" y="-133"/>
      <point x="640" y="-48"/>
      <point x="536" y="-48" type="curve" smooth="yes"/>
      <point x="468" y="-48"/>
      <point x="414" y="-95"/>
      <point x="398" y="-174" type="curve"/>
      <point x="423" y="-164" type="line"/>
      <point x="404" y="-87"/>
      <point x="349" y="-48"/>
      <point x="287" y="-48" type="curve" smooth="yes"/>
      <point x="187" y="-48"/>
      <point x="129" y="-132"/>
      <point x="129" y="-257" type="curve" smooth="yes"/>
      <point x="129" y="-349"/>
      <point x="164" y="-426"/>
      <point x="206" y="-466" type="curve"/>
      <point x="247" y="-408" type="line"/>
      <point x="218" y="-375"/>
      <point x="201" y="-327"/>
      <point x="201" y="-258" type="curve" smooth="yes"/>
      <point x="201" y="-165"/>
      <point x="239" y="-113"/>
      <point x="287" y="-113" type="curve" smooth="yes"/>
      <point x="343" y="-113"/>
      <point x="375" y="-178"/>
      <point x="375" y="-285" type="curve" smooth="yes"/>
      <point x="375" y="-370" type="line"/>
      <point x="448" y="-370" type="line"/>
      <point x="448" y="-286" type="line" smooth="yes"/>
      <point x="448" y="-172"/>
      <point x="481" y="-113"/>
      <point x="535" y="-113" type="curve" smooth="yes"/>
      <point x="585" y="-113"/>
      <point x="622" y="-167"/>
      <point x="622" y="-264" type="curve" smooth="yes"/>
      <point x="622" y="-329"/>
      <point x="606" y="-375"/>
      <point x="576" y="-408" type="curve"/>
    </contour>
  </outline>
</glyph>
<glyph name="ii" format="2">
  <advance width="997"/>
  <unicode hex="1024"/>
  <note>
ii
</note>
  <outline>
    <contour>
      <point x="217" y="-467" type="curve" smooth="yes"/>
      <point x="600" y="-467" type="line" smooth="yes"/>
      <point x="703" y="-467"/>
      <point x="758" y="-397"/>
      <point x="758" y="-260" type="curve" smooth="yes"/>
      <point x="758" y="246" type="line" smooth="yes"/>
      <point x="758" y="423"/>
      <point x="691" y="545"/>
      <point x="566" y="545" type="curve" smooth="yes"/>
      <point x="479" y="545"/>
      <point x="420" y="482"/>
      <point x="397" y="426" type="curve"/>
      <point x="435" y="331" type="line"/>
      <point x="466" y="421"/>
      <point x="503" y="474"/>
      <point x="564" y="474" type="curve" smooth="yes"/>
      <point x="638" y="474"/>
      <point x="676" y="390"/>
      <point x="676" y="242" type="curve" smooth="yes"/>
      <point x="676" y="-272" type="line" smooth="yes"/>
      <point x="676" y="-351"/>
      <point x="652" y="-396"/>
      <point x="591" y="-396" type="curve" smooth="yes"/>
      <point x="221" y="-396" type="line" smooth="yes"/>
      <point x="151" y="-396"/>
      <point x="118" y="-366"/>
      <point x="118" y="-312" type="curve" smooth="yes"/>
      <point x="118" y="-246"/>
      <point x="171" y="-214"/>
      <point x="275" y="-214" type="curve" smooth="yes"/>
      <point x="376" y="-214"/>
      <point x="459" y="-242"/>
      <point x="517" y="-281" type="curve"/>
      <point x="554" y="-217" type="line"/>
      <point x="484" y="-175"/>
      <point x="388" y="-143"/>
      <point x="275" y="-143" type="curve" smooth="yes"/>
      <point x="117" y="-143"/>
      <point x="35" y="-208"/>
      <point x="35" y="-312" type="curve" smooth="yes"/>
      <point x="35" y="-398"/>
      <point x="82" y="-467"/>
    </contour>
    <contour>
      <point x="136" y="-10" type="curve"/>
      <point x="179" y="49" type="line"/>
      <point x="138" y="95"/>
      <point x="118" y="167"/>
      <point x="118" y="255" type="curve" smooth="yes"/>
      <point x="118" y="392"/>
      <point x="163" y="474"/>
      <point x="250" y="474" type="curve" smooth="yes"/>
      <point x="337" y="474"/>
      <point x="382" y="392"/>
      <point x="382" y="255" type="curve" smooth="yes"/>
      <point x="382" y="167"/>
      <point x="362" y="95"/>
      <point x="321" y="49" type="curve"/>
      <point x="364" y="-10" type="line"/>
      <point x="422" y="39"/>
      <point x="465" y="148"/>
      <point x="465" y="257" type="curve" smooth="yes"/>
      <point x="465" y="426"/>
      <point x="387" y="545"/>
      <point x="250" y="545" type="curve" smooth="yes"/>
      <point x="113" y="545"/>
      <point x="35" y="427"/>
      <point x="35" y="257" type="curve" smooth="yes"/>
      <point x="35" y="144"/>
      <point x="78" y="38"/>
    </contour>
    <contour>
      <point x="875" y="-467" type="line"/>
      <point x="957" y="-467" type="line"/>
      <point x="957" y="214" type="line" smooth="yes"/>
      <point x="957" y="456"/>
      <point x="910" y="543"/>
      <point x="801" y="674" type="curve" smooth="yes"/>
      <point x="760" y="723"/>
      <point x="739" y="775"/>
      <point x="739" y="829" type="curve" smooth="yes"/>
      <point x="739" y="894"/>
      <point x="774" y="933"/>
      <point x="818" y="933" type="curve" smooth="yes"/>
      <point x="863" y="933"/>
      <point x="883" y="898"/>
      <point x="900" y="855" type="curve"/>
      <point x="964" y="891" type="line"/>
      <point x="937" y="975"/>
      <point x="887" y="1004"/>
      <point x="817" y="1004" type="curve" smooth="yes"/>
      <point x="716" y="1004"/>
      <point x="656" y="924"/>
      <point x="656" y="829" type="curve" smooth="yes"/>
      <point x="656" y="745"/>
      <point x="693" y="677"/>
      <point x="759" y="601" type="curve" smooth="yes"/>
      <point x="842" y="506"/>
      <point x="875" y="405"/>
      <point x="875" y="220" type="curve" smooth="yes"/>
    </contour>
  </outline>
</glyph>
<glyph name="u_m" format="2">
  <advance width="496"/>
  <unicode hex="1025"/>
  <note>
u_m
</note>
  <outline>
    <contour>
      <point x="201" y="-467" type="curve" smooth="yes"/>
      <point x="281" y="-467" type="line" smooth="yes"/>
      <point x="372" y="-467"/>
      <point x="435" y="-413"/>
      <point x="435" y="-316" type="curve" smooth="yes"/>
      <point x="435" y="-231"/>
      <point x="384" y="-173"/>
      <point x="318" y="-173" type="curve" smooth="yes"/>
      <point x="267" y="-173"/>
      <point x="237" y="-196"/>
      <point x="207" y="-233" type="curve"/>
      <point x="248" y="-281" type="line"/>
      <point x="265" y="-260"/>
      <point x="282" y="-244"/>
      <point x="306" y="-244" type="curve" smooth="yes"/>
      <point x="334" y="-244"/>
      <point x="353" y="-268"/>
      <point x="353" y="-317" type="curve" smooth="yes"/>
      <point x="353" y="-369"/>
      <point x="323" y="-396"/>
      <point x="276" y="-396" type="curve" smooth="yes"/>
      <point x="206" y="-396" type="line" smooth="yes"/>
      <point x="149" y="-396"/>
      <point x="125" y="-350"/>
      <point x="125" y="-269" type="curve" smooth="yes"/>
      <point x="125" y="61" type="line"/>
      <point x="45" y="154" type="line"/>
      <point x="45" y="-260" type="line" smooth="yes"/>
      <point x="45" y="-398"/>
      <point x="97" y="-467"/>
    </contour>
    <contour>
      <point x="238" y="-10" type="curve" smooth="yes"/>
      <point x="371" y="-10"/>
      <point x="457" y="108"/>
      <point x="457" y="268" type="curve" smooth="yes"/>
      <point x="457" y="425"/>
      <point x="370" y="545"/>
      <point x="238" y="545" type="curve" smooth="yes"/>
      <point x="152" y="545"/>
      <point x="79" y="479"/>
      <point x="50" y="382" type="curve"/>
      <point x="109" y="349" type="line"/>
      <point x="139" y="431"/>
      <point x="184" y="474"/>
      <point x="240" y="474" type="curve" smooth="yes"/>
      <point x="323" y="474"/>
      <point x="374" y="389"/>
      <point x="374" y="269" type="curve" smooth="yes"/>
      <point x="374" y="148"/>
      <point x="317" y="61"/>
      <point x="236" y="61" type="curve" smooth="yes"/>
      <point x="182" y="61"/>
      <point x="139" y="104"/>
      <point x="108" y="187" type="curve"/>
      <point x="45" y="154" type="line"/>
      <point x="74" y="56"/>
      <point x="148" y="-10"/>
    </contour>
  </outline>
</glyph>
<glyph name="e_m" format="2">
  <advance width="494"/>
  <unicode hex="1027"/>
  <note>
e_m
</note>
  <outline>
    <contour>
      <point x="257" y="-10" type="curve" smooth="yes"/>
      <point x="362" y="-10"/>
      <point x="430" y="54"/>
      <point x="455" y="150" type="curve"/>
      <point x="405" y="196"/>
      <point x="347" y="232"/>
      <point x="267" y="232" type="curve" smooth="yes"/>
      <point x="221" y="232"/>
      <point x="169" y="211"/>
      <point x="132" y="179" type="curve"/>
      <point x="125" y="204"/>
      <point x="121" y="233"/>
      <point x="121" y="266" type="curve" smooth="yes"/>
      <point x="121" y="302"/>
      <point x="125" y="331"/>
      <point x="132" y="356" type="curve"/>
      <point x="169" y="324"/>
      <point x="221" y="303"/>
      <point x="267" y="303" type="curve" smooth="yes"/>
      <point x="347" y="303"/>
      <point x="405" y="339"/>
      <point x="455" y="385" type="curve"/>
      <point x="430" y="481"/>
      <point x="362" y="545"/>
      <point x="257" y="545" type="curve" smooth="yes"/>
      <point x="129" y="545"/>
      <point x="39" y="428"/>
      <point x="39" y="267" type="curve" smooth="yes"/>
      <point x="39" y="107"/>
      <point x="129" y="-10"/>
    </contour>
    <contour>
      <point x="260" y="61" type="curve" smooth="yes"/>
      <point x="216" y="61"/>
      <point x="181" y="89"/>
      <point x="161" y="118" type="curve"/>
      <point x="190" y="147"/>
      <point x="227" y="167"/>
      <point x="265" y="167" type="curve" smooth="yes"/>
      <point x="303" y="167"/>
      <point x="335" y="154"/>
      <point x="364" y="125" type="curve"/>
      <point x="344" y="81"/>
      <point x="312" y="61"/>
    </contour>
    <contour>
      <point x="265" y="368" type="curve" smooth="yes"/>
      <point x="227" y="368"/>
      <point x="190" y="388"/>
      <point x="161" y="417" type="curve"/>
      <point x="181" y="446"/>
      <point x="216" y="474"/>
      <point x="260" y="474" type="curve" smooth="yes"/>
      <point x="312" y="474"/>
      <point x="344" y="454"/>
      <point x="364" y="410" type="curve"/>
      <point x="335" y="381"/>
      <point x="303" y="368"/>
    </contour>
  </outline>
</glyph>
<glyph name="e_mon" format="2">
  <advance width="510"/>
  <unicode hex="1028"/>
  <note>
e_mon
</note>
  <outline>
    <contour>
      <point x="257" y="-467" type="curve" smooth="yes"/>
      <point x="398" y="-467"/>
      <point x="471" y="-346"/>
      <point x="471" y="-207" type="curve" smooth="yes"/>
      <point x="471" y="-200" type="line"/>
      <point x="388" y="-200" type="line"/>
      <point x="388" y="-207" type="line" smooth="yes"/>
      <point x="388" y="-305"/>
      <point x="348" y="-396"/>
      <point x="259" y="-396" type="curve" smooth="yes"/>
      <point x="173" y="-396"/>
      <point x="132" y="-313"/>
      <point x="132" y="-177" type="curve" smooth="yes"/>
      <point x="132" y="256" type="line" smooth="yes"/>
      <point x="132" y="393"/>
      <point x="173" y="475"/>
      <point x="259" y="475" type="curve" smooth="yes"/>
      <point x="342" y="475"/>
      <point x="388" y="394"/>
      <point x="388" y="272" type="curve" smooth="yes"/>
      <point x="388" y="176"/>
      <point x="360" y="60"/>
      <point x="313" y="60" type="curve" smooth="yes"/>
      <point x="295" y="60"/>
      <point x="288" y="73"/>
      <point x="288" y="86" type="curve" smooth="yes"/>
      <point x="288" y="101"/>
      <point x="292" y="115"/>
      <point x="315" y="142" type="curve" smooth="yes"/>
      <point x="335" y="166"/>
      <point x="350" y="201"/>
      <point x="350" y="239" type="curve" smooth="yes"/>
      <point x="350" y="292"/>
      <point x="322" y="341"/>
      <point x="262" y="341" type="curve" smooth="yes"/>
      <point x="207" y="341"/>
      <point x="180" y="298"/>
      <point x="164" y="258" type="curve"/>
      <point x="215" y="225" type="line"/>
      <point x="228" y="256"/>
      <point x="239" y="273"/>
      <point x="257" y="273" type="curve" smooth="yes"/>
      <point x="272" y="273"/>
      <point x="281" y="262"/>
      <point x="281" y="242" type="curve" smooth="yes"/>
      <point x="281" y="222"/>
      <point x="275" y="206"/>
      <point x="257" y="186" type="curve" smooth="yes"/>
      <point x="228" y="153"/>
      <point x="208" y="120"/>
      <point x="208" y="80" type="curve" smooth="yes"/>
      <point x="208" y="23"/>
      <point x="251" y="-10"/>
      <point x="309" y="-10" type="curve" smooth="yes"/>
      <point x="418" y="-10"/>
      <point x="471" y="128"/>
      <point x="471" y="269" type="curve" smooth="yes"/>
      <point x="471" y="435"/>
      <point x="395" y="546"/>
      <point x="257" y="546" type="curve" smooth="yes"/>
      <point x="115" y="546"/>
      <point x="49" y="426"/>
      <point x="49" y="254" type="curve" smooth="yes"/>
      <point x="49" y="-175" type="line" smooth="yes"/>
      <point x="49" y="-355"/>
      <point x="120" y="-467"/>
    </contour>
  </outline>
</glyph>
<glyph name="o_m" format="2">
  <advance width="1022"/>
  <unicode hex="1029"/>
  <note>
o_m
</note>
  <outline>
    <contour>
      <point x="205" y="-466" type="curve" smooth="yes"/>
      <point x="810" y="-466" type="line" smooth="yes"/>
      <point x="915" y="-466"/>
      <point x="967" y="-396"/>
      <point x="967" y="-254" type="curve" smooth="yes"/>
      <point x="967" y="156" type="line"/>
      <point x="885" y="156" type="line"/>
      <point x="885" y="-263" type="line" smooth="yes"/>
      <point x="885" y="-347"/>
      <point x="862" y="-395"/>
      <point x="813" y="-395" type="curve" smooth="yes"/>
      <point x="203" y="-395" type="line" smooth="yes"/>
      <point x="154" y="-395"/>
      <point x="131" y="-348"/>
      <point x="131" y="-263" type="curve" smooth="yes"/>
      <point x="131" y="801" type="line" smooth="yes"/>
      <point x="131" y="885"/>
      <point x="154" y="932"/>
      <point x="203" y="932" type="curve" smooth="yes"/>
      <point x="813" y="932" type="line" smooth="yes"/>
      <point x="862" y="932"/>
      <point x="885" y="884"/>
      <point x="885" y="801" type="curve" smooth="yes"/>
      <point x="885" y="761" type="line"/>
      <point x="967" y="761" type="line"/>
      <point x="967" y="791" type="line" smooth="yes"/>
      <point x="967" y="932"/>
      <point x="915" y="1003"/>
      <point x="810" y="1003" type="curve" smooth="yes"/>
      <point x="205" y="1003" type="line" smooth="yes"/>
      <point x="101" y="1003"/>
      <point x="49" y="932"/>
      <point x="49" y="791" type="curve" smooth="yes"/>
      <point x="49" y="-254" type="line" smooth="yes"/>
      <point x="49" y="-396"/>
      <point x="101" y="-466"/>
    </contour>
    <contour>
      <point x="411" y="-10" type="curve" smooth="yes"/>
      <point x="559" y="-10"/>
      <point x="627" y="123"/>
      <point x="627" y="272" type="curve" smooth="yes"/>
      <point x="627" y="426"/>
      <point x="541" y="545"/>
      <point x="410" y="545" type="curve" smooth="yes"/>
      <point x="324" y="545"/>
      <point x="251" y="480"/>
      <point x="222" y="382" type="curve"/>
      <point x="281" y="349" type="line"/>
      <point x="312" y="431"/>
      <point x="355" y="474"/>
      <point x="411" y="474" type="curve" smooth="yes"/>
      <point x="493" y="474"/>
      <point x="544" y="390"/>
      <point x="544" y="269" type="curve" smooth="yes"/>
      <point x="544" y="150"/>
      <point x="490" y="61"/>
      <point x="407" y="61" type="curve" smooth="yes"/>
      <point x="351" y="61"/>
      <point x="306" y="104"/>
      <point x="280" y="187" type="curve"/>
      <point x="217" y="154" type="line"/>
      <point x="246" y="55"/>
      <point x="319" y="-10"/>
    </contour>
    <contour>
      <point x="765" y="-10" type="curve" smooth="yes"/>
      <point x="896" y="-10"/>
      <point x="983" y="106"/>
      <point x="983" y="269" type="curve" smooth="yes"/>
      <point x="983" y="437"/>
      <point x="897" y="545"/>
      <point x="783" y="545" type="curve" smooth="yes"/>
      <point x="741" y="545"/>
      <point x="703" y="538"/>
      <point x="674" y="520" type="curve"/>
      <point x="703" y="459" type="line"/>
      <point x="727" y="469"/>
      <point x="746" y="474"/>
      <point x="774" y="474" type="curve" smooth="yes"/>
      <point x="851" y="474"/>
      <point x="901" y="394"/>
      <point x="901" y="271" type="curve" smooth="yes"/>
      <point x="901" y="149"/>
      <point x="850" y="62"/>
      <point x="763" y="62" type="curve" smooth="yes"/>
      <point x="695" y="62"/>
      <point x="647" y="122"/>
      <point x="616" y="207" type="curve"/>
      <point x="579" y="120" type="line"/>
      <point x="620" y="37"/>
      <point x="683" y="-10"/>
    </contour>
  </outline>
</glyph>
<glyph name="_tall_aa" format="2">
  <advance width="181"/>
  <unicode hex="102B"/>
  <note>
_tall_aa
</note>
  <outline>
    <contour>
      <point x="49" y="0" type="line"/>
      <point x="132" y="0" type="line"/>
      <point x="132" y="783" type="line" smooth="yes"/>
      <point x="132" y="927"/>
      <point x="63" y="1003"/>
      <point x="-46" y="1003" type="curve" smooth="yes"/>
      <point x="-152" y="1003"/>
      <point x="-222" y="926"/>
      <point x="-222" y="797" type="curve" smooth="yes"/>
      <point x="-222" y="771" type="line"/>
      <point x="-139" y="771" type="line"/>
      <point x="-139" y="797" type="line" smooth="yes"/>
      <point x="-139" y="882"/>
      <point x="-105" y="932"/>
      <point x="-45" y="932" type="curve" smooth="yes"/>
      <point x="17" y="932"/>
      <point x="49" y="885"/>
      <point x="49" y="777" type="curve" smooth="yes"/>
    </contour>
  </outline>
</glyph>
<glyph name="_aa" format="2">
  <advance width="335"/>
  <unicode hex="102C"/>
  <note>
_aa
</note>
  <outline>
    <contour>
      <point x="106" y="-10" type="curve" smooth="yes"/>
      <point x="221" y="-10"/>
      <point x="297" y="105"/>
      <point x="297" y="268" type="curve" smooth="yes"/>
      <point x="297" y="425"/>
      <point x="219" y="545"/>
      <point x="82" y="545" type="curve" smooth="yes"/>
      <point x="-14" y="545"/>
      <point x="-74" y="482"/>
      <point x="-115" y="420" type="curve"/>
      <point x="-78" y="354" type="line"/>
      <point x="-29" y="437"/>
      <point x="20" y="474"/>
      <point x="82" y="474" type="curve" smooth="yes"/>
      <point x="170" y="474"/>
      <point x="214" y="387"/>
      <point x="214" y="269" type="curve" smooth="yes"/>
      <point x="214" y="143"/>
      <point x="168" y="61"/>
      <point x="96" y="61" type="curve" smooth="yes"/>
      <point x="70" y="61"/>
      <point x="50" y="66"/>
      <point x="31" y="76" type="curve"/>
      <point x="2" y="16" type="line"/>
      <point x="30" y="0"/>
      <point x="60" y="-10"/>
    </contour>
  </outline>
</glyph>
<glyph name="_i" format="2">
  <unicode hex="102D"/>
  <note>
_i
</note>
  <outline>
    <contour>
      <point x="-231" y="626" type="curve" smooth="yes"/>
      <point x="-136" y="626"/>
      <point x="-90" y="706"/>
      <point x="-90" y="810" type="curve" smooth="yes"/>
      <point x="-90" y="914"/>
      <point x="-133" y="1001"/>
      <point x="-230" y="1001" type="curve" smooth="yes"/>
      <point x="-327" y="1001"/>
      <point x="-370" y="918"/>
      <point x="-370" y="814" type="curve" smooth="yes"/>
      <point x="-370" y="709"/>
      <point x="-326" y="626"/>
    </contour>
    <contour>
      <point x="-230" y="688" type="curve" smooth="yes"/>
      <point x="-284" y="688"/>
      <point x="-302" y="742"/>
      <point x="-302" y="812" type="curve" smooth="yes"/>
      <point x="-302" y="886"/>
      <point x="-286" y="940"/>
      <point x="-230" y="940" type="curve" smooth="yes"/>
      <point x="-174" y="940"/>
      <point x="-157" y="882"/>
      <point x="-157" y="808" type="curve" smooth="yes"/>
      <point x="-157" y="738"/>
      <point x="-176" y="688"/>
    </contour>
  </outline>
</glyph>
<glyph name="_ii" format="2">
  <unicode hex="102E"/>
  <note>
_ii
</note>
  <outline>
    <contour>
      <point x="-231" y="626" type="curve" smooth="yes"/>
      <point x="-136" y="626"/>
      <point x="-90" y="706"/>
      <point x="-90" y="810" type="curve" smooth="yes"/>
      <point x="-90" y="914"/>
      <point x="-133" y="1001"/>
      <point x="-230" y="1001" type="curve" smooth="yes"/>
      <point x="-327" y="1001"/>
      <point x="-370" y="918"/>
      <point x="-370" y="814" type="curve" smooth="yes"/>
      <point x="-370" y="709"/>
      <point x="-326" y="626"/>
    </contour>
    <contour>
      <point x="-230" y="688" type="curve" smooth="yes"/>
      <point x="-284" y="688"/>
      <point x="-302" y="742"/>
      <point x="-302" y="812" type="curve" smooth="yes"/>
      <point x="-302" y="886"/>
      <point x="-286" y="940"/>
      <point x="-230" y="940" type="curve" smooth="yes"/>
      <point x="-174" y="940"/>
      <point x="-157" y="882"/>
      <point x="-157" y="808" type="curve" smooth="yes"/>
      <point x="-157" y="738"/>
      <point x="-176" y="688"/>
    </contour>
    <contour>
      <point x="-302" y="728" type="line"/>
      <point x="-280" y="756"/>
      <point x="-255" y="774"/>
      <point x="-229" y="774" type="curve" smooth="yes"/>
      <point x="-202" y="774"/>
      <point x="-178" y="756"/>
      <point x="-157" y="729" type="curve"/>
      <point x="-145" y="784" type="line"/>
      <point x="-170" y="815"/>
      <point x="-195" y="834"/>
      <point x="-230" y="834" type="curve" smooth="yes"/>
      <point x="-264" y="834"/>
      <point x="-292" y="812"/>
      <point x="-314" y="784" type="curve"/>
    </contour>
  </outline>
</glyph>
<glyph name="_u" format="2">
  <unicode hex="102F"/>
  <note>
_u
</note>
  <outline>
    <contour>
      <point x="-276" y="-467" type="line"/>
      <point x="-102" y="-467" type="line"/>
      <point x="-102" y="-397" type="line"/>
      <point x="-193" y="-397" type="line"/>
      <point x="-193" y="-49" type="line"/>
      <point x="-276" y="-49" type="line"/>
    </contour>
  </outline>
</glyph>
<glyph name="_uu" format="2">
  <unicode hex="1030"/>
  <note>
_uu
</note>
  <outline>
    <contour>
      <point x="-205" y="-467" type="line"/>
      <point x="-31" y="-467" type="line"/>
      <point x="-31" y="-396" type="line"/>
      <point x="-122" y="-396" type="line"/>
      <point x="-122" y="-49" type="line"/>
      <point x="-205" y="-49" type="line"/>
    </contour>
    <contour>
      <point x="-374" y="-467" type="line"/>
      <point x="-291" y="-467" type="line"/>
      <point x="-291" y="-49" type="line"/>
      <point x="-374" y="-49" type="line"/>
    </contour>
  </outline>
</glyph>
<glyph name="_e" format="2">
  <advance width="501"/>
  <unicode hex="1031"/>
  <note>
_e
</note>
  <outline>
    <contour>
      <point x="266" y="-10" type="curve" smooth="yes"/>
      <point x="365" y="-10"/>
      <point x="441" y="62"/>
      <point x="462" y="177" type="curve"/>
      <point x="390" y="238"/>
      <point x="337" y="266"/>
      <point x="275" y="266" type="curve" smooth="yes"/>
      <point x="209" y="266"/>
      <point x="157" y="231"/>
      <point x="116" y="184" type="curve"/>
      <point x="135" y="123" type="line"/>
      <point x="172" y="166"/>
      <point x="213" y="199"/>
      <point x="271" y="199" type="curve" smooth="yes"/>
      <point x="308" y="199"/>
      <point x="345" y="178"/>
      <point x="377" y="152" type="curve"/>
      <point x="356" y="92"/>
      <point x="313" y="61"/>
      <point x="264" y="61" type="curve" smooth="yes"/>
      <point x="168" y="61"/>
      <point x="121" y="164"/>
      <point x="121" y="269" type="curve" smooth="yes"/>
      <point x="121" y="391"/>
      <point x="177" y="474"/>
      <point x="270" y="474" type="curve" smooth="yes"/>
      <point x="327" y="474"/>
      <point x="372" y="436"/>
      <point x="398" y="349" type="curve"/>
      <point x="458" y="382" type="line"/>
      <point x="420" y="495"/>
      <point x="359" y="545"/>
      <point x="263" y="545" type="curve" smooth="yes"/>
      <point x="126" y="545"/>
      <point x="39" y="424"/>
      <point x="39" y="268" type="curve" smooth="yes"/>
      <point x="39" y="112"/>
      <point x="130" y="-10"/>
    </contour>
  </outline>
</glyph>
<glyph name="_ai" format="2">
  <unicode hex="1032"/>
  <note>
_ai
</note>
  <outline>
    <contour>
      <point x="-153" y="609" type="line"/>
      <point x="-105" y="654" type="line"/>
      <point x="-257" y="850" type="line"/>
      <point x="-306" y="807" type="line"/>
    </contour>
  </outline>
</glyph>
<glyph name="_ii_mon" format="2">
  <unicode hex="1033"/>
  <note>
_ii_mon
</note>
  <outline>
    <contour>
      <point x="-241" y="626" type="curve" smooth="yes"/>
      <point x="-148" y="626"/>
      <point x="-88" y="703"/>
      <point x="-88" y="814" type="curve" smooth="yes"/>
      <point x="-88" y="920"/>
      <point x="-150" y="1001"/>
      <point x="-241" y="1001" type="curve" smooth="yes"/>
      <point x="-335" y="1001"/>
      <point x="-395" y="918"/>
      <point x="-395" y="814" type="curve" smooth="yes"/>
      <point x="-395" y="706"/>
      <point x="-337" y="626"/>
    </contour>
    <contour>
      <point x="-241" y="679" type="curve" smooth="yes"/>
      <point x="-307" y="679"/>
      <point x="-344" y="734"/>
      <point x="-344" y="814" type="curve" smooth="yes"/>
      <point x="-344" y="893"/>
      <point x="-303" y="950"/>
      <point x="-241" y="950" type="curve" smooth="yes"/>
      <point x="-180" y="950"/>
      <point x="-139" y="891"/>
      <point x="-139" y="814" type="curve" smooth="yes"/>
      <point x="-139" y="731"/>
      <point x="-177" y="679"/>
    </contour>
    <contour>
      <point x="-241" y="727" type="curve" smooth="yes"/>
      <point x="-204" y="727"/>
      <point x="-175" y="763"/>
      <point x="-175" y="814" type="curve" smooth="yes"/>
      <point x="-175" y="865"/>
      <point x="-204" y="901"/>
      <point x="-241" y="901" type="curve" smooth="yes"/>
      <point x="-279" y="901"/>
      <point x="-307" y="865"/>
      <point x="-307" y="814" type="curve" smooth="yes"/>
      <point x="-307" y="763"/>
      <point x="-280" y="727"/>
    </contour>
    <contour>
      <point x="-242" y="770" type="curve" smooth="yes"/>
      <point x="-261" y="770"/>
      <point x="-274" y="788"/>
      <point x="-274" y="814" type="curve" smooth="yes"/>
      <point x="-274" y="841"/>
      <point x="-260" y="859"/>
      <point x="-242" y="859" type="curve" smooth="yes"/>
      <point x="-223" y="859"/>
      <point x="-209" y="841"/>
      <point x="-209" y="814" type="curve" smooth="yes"/>
      <point x="-209" y="788"/>
      <point x="-222" y="770"/>
    </contour>
  </outline>
</glyph>
<glyph name="_o_mon" format="2">
  <unicode hex="1034"/>
  <note>
_o_mon
</note>
  <outline>
    <contour>
      <point x="-309" y="603" type="line"/>
      <point x="-155" y="801" type="line"/>
      <point x="-199" y="851" type="line"/>
      <point x="-352" y="655" type="line"/>
    </contour>
  </outline>
</glyph>
<glyph name="_e_above" format="2">
  <unicode hex="1035"/>
  <note>
_e_above
</note>
  <outline>
    <contour>
      <point x="-212" y="626" type="curve" smooth="yes"/>
      <point x="-148" y="626"/>
      <point x="-96" y="676"/>
      <point x="-77" y="757" type="curve"/>
      <point x="-108" y="798"/>
      <point x="-151" y="833"/>
      <point x="-210" y="833" type="curve" smooth="yes"/>
      <point x="-248" y="833"/>
      <point x="-279" y="818"/>
      <point x="-303" y="794" type="curve"/>
      <point x="-285" y="727" type="line"/>
      <point x="-265" y="758"/>
      <point x="-240" y="772"/>
      <point x="-210" y="772" type="curve" smooth="yes"/>
      <point x="-184" y="772"/>
      <point x="-163" y="760"/>
      <point x="-146" y="742" type="curve"/>
      <point x="-159" y="708"/>
      <point x="-183" y="688"/>
      <point x="-212" y="688" type="curve" smooth="yes"/>
      <point x="-264" y="688"/>
      <point x="-290" y="741"/>
      <point x="-290" y="814" type="curve" smooth="yes"/>
      <point x="-290" y="885"/>
      <point x="-261" y="940"/>
      <point x="-211" y="940" type="curve" smooth="yes"/>
      <point x="-175" y="940"/>
      <point x="-145" y="911"/>
      <point x="-133" y="869" type="curve"/>
      <point x="-82" y="899" type="line"/>
      <point x="-102" y="963"/>
      <point x="-151" y="1001"/>
      <point x="-210" y="1001" type="curve" smooth="yes"/>
      <point x="-299" y="1001"/>
      <point x="-354" y="921"/>
      <point x="-354" y="814" type="curve" smooth="yes"/>
      <point x="-354" y="707"/>
      <point x="-300" y="626"/>
    </contour>
  </outline>
</glyph>
<glyph name="anusvara" format="2">
  <unicode hex="1036"/>
  <note>
anusvara
</note>
  <outline>
    <contour>
      <point x="-244" y="630" type="curve" smooth="yes"/>
      <point x="-193" y="630"/>
      <point x="-156" y="668"/>
      <point x="-156" y="735" type="curve" smooth="yes"/>
      <point x="-156" y="800"/>
      <point x="-193" y="838"/>
      <point x="-244" y="838" type="curve" smooth="yes"/>
      <point x="-295" y="838"/>
      <point x="-330" y="799"/>
      <point x="-330" y="734" type="curve" smooth="yes"/>
      <point x="-330" y="668"/>
      <point x="-295" y="630"/>
    </contour>
    <contour>
      <point x="-243" y="679" type="curve" smooth="yes"/>
      <point x="-267" y="679"/>
      <point x="-279" y="700"/>
      <point x="-279" y="734" type="curve" smooth="yes"/>
      <point x="-279" y="768"/>
      <point x="-264" y="789"/>
      <point x="-243" y="789" type="curve" smooth="yes"/>
      <point x="-222" y="789"/>
      <point x="-207" y="768"/>
      <point x="-207" y="734" type="curve" smooth="yes"/>
      <point x="-207" y="700"/>
      <point x="-222" y="679"/>
    </contour>
  </outline>
</glyph>
<glyph name="visarga" format="2">
  <advance width="268"/>
  <unicode hex="1038"/>
  <note>
visarga
</note>
  <outline>
    <contour>
      <point x="133" y="327" type="curve" smooth="yes"/>
      <point x="184" y="327"/>
      <point x="221" y="366"/>
      <point x="221" y="433" type="curve" smooth="yes"/>
      <point x="221" y="497"/>
      <point x="185" y="536"/>
      <point x="133" y="536" type="curve" smooth="yes"/>
      <point x="81" y="536"/>
      <point x="47" y="497"/>
      <point x="47" y="432" type="curve" smooth="yes"/>
      <point x="47" y="365"/>
      <point x="82" y="327"/>
    </contour>
    <contour>
      <point x="133" y="-11" type="curve" smooth="yes"/>
      <point x="184" y="-11"/>
      <point x="221" y="27"/>
      <point x="221" y="94" type="curve" smooth="yes"/>
      <point x="221" y="158"/>
      <point x="185" y="197"/>
      <point x="133" y="197" type="curve" smooth="yes"/>
      <point x="81" y="197"/>
      <point x="47" y="158"/>
      <point x="47" y="93" type="curve" smooth="yes"/>
      <point x="47" y="27"/>
      <point x="82" y="-11"/>
    </contour>
    <contour>
      <point x="134" y="38" type="curve" smooth="yes"/>
      <point x="110" y="38"/>
      <point x="98" y="59"/>
      <point x="98" y="93" type="curve" smooth="yes"/>
      <point x="98" y="127"/>
      <point x="113" y="148"/>
      <point x="134" y="148" type="curve" smooth="yes"/>
      <point x="155" y="148"/>
      <point x="171" y="127"/>
      <point x="171" y="93" type="curve" smooth="yes"/>
      <point x="171" y="59"/>
      <point x="155" y="38"/>
    </contour>
    <contour>
      <point x="134" y="377" type="curve" smooth="yes"/>
      <point x="110" y="377"/>
      <point x="98" y="396"/>
      <point x="98" y="432" type="curve" smooth="yes"/>
      <point x="98" y="465"/>
      <point x="113" y="486"/>
      <point x="134" y="486" type="curve" smooth="yes"/>
      <point x="155" y="486"/>
      <point x="170" y="465"/>
      <point x="170" y="432" type="curve" smooth="yes"/>
      <point x="170" y="397"/>
      <point x="155" y="377"/>
    </contour>
  </outline>
</glyph>
<glyph name="virama" format="2">
  <unicode hex="1039"/>
  <note>
virama
</note>
  <outline>
    <contour>
      <point x="-271" y="-413" type="line"/>
      <point x="-205" y="-413" type="line"/>
      <point x="-205" y="-287" type="line"/>
      <point x="-112" y="-287" type="line"/>
      <point x="-112" y="-224" type="line"/>
      <point x="-205" y="-224" type="line"/>
      <point x="-205" y="-98" type="line"/>
      <point x="-271" y="-98" type="line"/>
      <point x="-271" y="-224" type="line"/>
      <point x="-363" y="-224" type="line"/>
      <point x="-363" y="-287" type="line"/>
      <point x="-271" y="-287" type="line"/>
    </contour>
  </outline>
</glyph>
<glyph name="asat" format="2">
  <unicode hex="103A"/>
  <note>
asat
</note>
  <outline>
    <contour>
      <point x="-282" y="628" type="curve"/>
      <point x="-240" y="675" type="line"/>
      <point x="-264" y="704"/>
      <point x="-301" y="749"/>
      <point x="-301" y="826" type="curve" smooth="yes"/>
      <point x="-301" y="902"/>
      <point x="-272" y="940"/>
      <point x="-230" y="940" type="curve" smooth="yes"/>
      <point x="-197" y="940"/>
      <point x="-175" y="916"/>
      <point x="-162" y="880" type="curve"/>
      <point x="-114" y="920" type="line"/>
      <point x="-136" y="971"/>
      <point x="-178" y="1001"/>
      <point x="-230" y="1001" type="curve" smooth="yes"/>
      <point x="-310" y="1001"/>
      <point x="-369" y="932"/>
      <point x="-369" y="826" type="curve" smooth="yes"/>
      <point x="-369" y="736"/>
      <point x="-329" y="677"/>
    </contour>
  </outline>
</glyph>
<glyph name="medial_ya" format="2">
  <advance width="163"/>
  <unicode hex="103B"/>
  <note>
medial_ya
</note>
  <outline>
    <contour>
      <point x="123" y="-466" type="line"/>
      <point x="123" y="534" type="line"/>
      <point x="40" y="534" type="line"/>
      <point x="40" y="-360" type="line"/>
      <point x="-86" y="-307" type="line"/>
      <point x="-86" y="106" type="line"/>
      <point x="-169" y="106" type="line"/>
      <point x="-169" y="-347" type="line"/>
    </contour>
  </outline>
</glyph>
<glyph name="medial_wa" format="2">
  <unicode hex="103D"/>
  <note>
medial_wa
</note>
  <outline>
    <contour>
      <point x="-246" y="-423" type="curve" smooth="yes"/>
      <point x="-150" y="-423"/>
      <point x="-102" y="-339"/>
      <point x="-102" y="-240" type="curve" smooth="yes"/>
      <point x="-102" y="-136"/>
      <point x="-148" y="-49"/>
      <point x="-245" y="-49" type="curve" smooth="yes"/>
      <point x="-337" y="-49"/>
      <point x="-387" y="-129"/>
      <point x="-387" y="-237" type="curve" smooth="yes"/>
      <point x="-387" y="-342"/>
      <point x="-337" y="-423"/>
    </contour>
    <contour>
      <point x="-244" y="-360" type="curve" smooth="yes"/>
      <point x="-297" y="-360"/>
      <point x="-320" y="-308"/>
      <point x="-320" y="-239" type="curve" smooth="yes"/>
      <point x="-320" y="-165"/>
      <point x="-296" y="-112"/>
      <point x="-244" y="-112" type="curve" smooth="yes"/>
      <point x="-192" y="-112"/>
      <point x="-169" y="-167"/>
      <point x="-169" y="-241" type="curve" smooth="yes"/>
      <point x="-169" y="-312"/>
      <point x="-194" y="-360"/>
    </contour>
  </outline>
</glyph>
<glyph name="medial_ha" format="2">
  <unicode hex="103E"/>
  <note>
medial_ha
</note>
  <outline>
    <contour>
      <point x="-364" y="-467" type="line"/>
      <point x="-200" y="-467" type="line"/>
      <point x="-200" y="-49" type="line"/>
      <point x="-266" y="-49" type="line"/>
      <point x="-266" y="-404" type="line"/>
      <point x="-364" y="-404" type="line"/>
    </contour>
  </outline>
</glyph>
<glyph name="great_sa" format="2">
  <advance width="1198"/>
  <unicode hex="103F"/>
  <note>
great_sa
</note>
  <outline>
    <contour>
      <point x="231" y="-10" type="curve" smooth="yes"/>
      <point x="379" y="-10"/>
      <point x="447" y="123"/>
      <point x="447" y="272" type="curve" smooth="yes"/>
      <point x="447" y="426"/>
      <point x="361" y="545"/>
      <point x="230" y="545" type="curve" smooth="yes"/>
      <point x="144" y="545"/>
      <point x="71" y="480"/>
      <point x="42" y="382" type="curve"/>
      <point x="101" y="349" type="line"/>
      <point x="132" y="431"/>
      <point x="175" y="474"/>
      <point x="231" y="474" type="curve" smooth="yes"/>
      <point x="313" y="474"/>
      <point x="364" y="390"/>
      <point x="364" y="269" type="curve" smooth="yes"/>
      <point x="364" y="150"/>
      <point x="310" y="61"/>
      <point x="227" y="61" type="curve" smooth="yes"/>
      <point x="171" y="61"/>
      <point x="126" y="104"/>
      <point x="100" y="187" type="curve"/>
      <point x="37" y="154" type="line"/>
      <point x="66" y="55"/>
      <point x="139" y="-10"/>
    </contour>
    <contour>
      <point x="585" y="-10" type="curve" smooth="yes"/>
      <point x="716" y="-10"/>
      <point x="803" y="106"/>
      <point x="803" y="269" type="curve" smooth="yes"/>
      <point x="803" y="437"/>
      <point x="717" y="545"/>
      <point x="603" y="545" type="curve" smooth="yes"/>
      <point x="561" y="545"/>
      <point x="523" y="538"/>
      <point x="494" y="520" type="curve"/>
      <point x="523" y="459" type="line"/>
      <point x="547" y="469"/>
      <point x="566" y="474"/>
      <point x="594" y="474" type="curve" smooth="yes"/>
      <point x="671" y="474"/>
      <point x="721" y="394"/>
      <point x="721" y="271" type="curve" smooth="yes"/>
      <point x="721" y="149"/>
      <point x="670" y="62"/>
      <point x="583" y="62" type="curve" smooth="yes"/>
      <point x="515" y="62"/>
      <point x="467" y="122"/>
      <point x="436" y="207" type="curve"/>
      <point x="399" y="120" type="line"/>
      <point x="440" y="37"/>
      <point x="503" y="-10"/>
    </contour>
    <contour>
      <point x="941" y="-10" type="curve" smooth="yes"/>
      <point x="1072" y="-10"/>
      <point x="1159" y="106"/>
      <point x="1159" y="269" type="curve" smooth="yes"/>
      <point x="1159" y="437"/>
      <point x="1073" y="545"/>
      <point x="959" y="545" type="curve" smooth="yes"/>
      <point x="917" y="545"/>
      <point x="879" y="538"/>
      <point x="850" y="520" type="curve"/>
      <point x="879" y="459" type="line"/>
      <point x="903" y="469"/>
      <point x="922" y="474"/>
      <point x="950" y="474" type="curve" smooth="yes"/>
      <point x="1027" y="474"/>
      <point x="1077" y="394"/>
      <point x="1077" y="271" type="curve" smooth="yes"/>
      <point x="1077" y="149"/>
      <point x="1026" y="62"/>
      <point x="939" y="62" type="curve" smooth="yes"/>
      <point x="871" y="62"/>
      <point x="823" y="122"/>
      <point x="792" y="207" type="curve"/>
      <point x="755" y="120" type="line"/>
      <point x="796" y="37"/>
      <point x="859" y="-10"/>
    </contour>
  </outline>
</glyph>
<glyph name="zero_m" format="2">
  <advance width="511"/>
  <unicode hex="1040"/>
  <note>
zero_m
</note>
  <outline>
    <contour>
      <point x="255" y="-10" type="curve" smooth="yes"/>
      <point x="383" y="-10"/>
      <point x="472" y="105"/>
      <point x="472" y="267" type="curve" smooth="yes"/>
      <point x="472" y="423"/>
      <point x="387" y="545"/>
      <point x="256" y="545" type="curve" smooth="yes"/>
      <point x="125" y="545"/>
      <point x="39" y="424"/>
      <point x="39" y="267" type="curve" smooth="yes"/>
      <point x="39" y="109"/>
      <point x="125" y="-10"/>
    </contour>
    <contour>
      <point x="255" y="58" type="curve" smooth="yes"/>
      <point x="176" y="58"/>
      <point x="122" y="139"/>
      <point x="122" y="265" type="curve" smooth="yes"/>
      <point x="122" y="392"/>
      <point x="173" y="477"/>
      <point x="255" y="477" type="curve" smooth="yes"/>
      <point x="337" y="477"/>
      <point x="390" y="391"/>
      <point x="390" y="265" type="curve" smooth="yes"/>
      <point x="390" y="142"/>
      <point x="337" y="58"/>
    </contour>
  </outline>
</glyph>
<glyph name="one_m" format="2">
  <advance width="468"/>
  <unicode hex="1041"/>
  <note>
one_m
</note>
  <outline>
    <contour>
      <point x="222" y="-10" type="curve" smooth="yes"/>
      <point x="345" y="-10"/>
      <point x="429" y="108"/>
      <point x="429" y="268" type="curve" smooth="yes"/>
      <point x="429" y="426"/>
      <point x="347" y="545"/>
      <point x="222" y="545" type="curve" smooth="yes"/>
      <point x="140" y="545"/>
      <point x="71" y="480"/>
      <point x="43" y="382" type="curve"/>
      <point x="102" y="349" type="line"/>
      <point x="131" y="433"/>
      <point x="171" y="477"/>
      <point x="223" y="477" type="curve" smooth="yes"/>
      <point x="299" y="477"/>
      <point x="346" y="392"/>
      <point x="346" y="269" type="curve" smooth="yes"/>
      <point x="346" y="140"/>
      <point x="296" y="58"/>
      <point x="219" y="58" type="curve" smooth="yes"/>
      <point x="167" y="58"/>
      <point x="125" y="102"/>
      <point x="101" y="187" type="curve"/>
      <point x="38" y="154" type="line"/>
      <point x="65" y="55"/>
      <point x="136" y="-10"/>
    </contour>
  </outline>
</glyph>
<glyph name="two_m" format="2">
  <advance width="519"/>
  <unicode hex="1042"/>
  <note>
two_m
</note>
  <outline>
    <contour>
      <point x="246" y="-467" type="curve" smooth="yes"/>
      <point x="383" y="-467"/>
      <point x="454" y="-355"/>
      <point x="454" y="-175" type="curve" smooth="yes"/>
      <point x="454" y="536" type="line"/>
      <point x="371" y="536" type="line" smooth="yes"/>
      <point x="371" y="-177" type="line" smooth="yes"/>
      <point x="371" y="-313"/>
      <point x="330" y="-396"/>
      <point x="244" y="-396" type="curve" smooth="yes"/>
      <point x="155" y="-396"/>
      <point x="115" y="-305"/>
      <point x="115" y="-207" type="curve" smooth="yes"/>
      <point x="115" y="-200" type="line"/>
      <point x="32" y="-200" type="line"/>
      <point x="32" y="-207" type="line" smooth="yes"/>
      <point x="32" y="-346"/>
      <point x="105" y="-467"/>
    </contour>
  </outline>
</glyph>
<glyph name="three_m" format="2">
  <advance width="465"/>
  <unicode hex="1043"/>
  <note>
three_m
</note>
  <outline>
    <contour>
      <point x="281" y="-467" type="line"/>
      <point x="367" y="-467" type="line"/>
      <point x="240" y="-154" type="line" smooth="yes"/>
      <point x="219" y="-103"/>
      <point x="185" y="-20"/>
      <point x="160" y="21" type="curve"/>
      <point x="160" y="8" type="line"/>
      <point x="176" y="-3"/>
      <point x="196" y="-10"/>
      <point x="224" y="-10" type="curve" smooth="yes"/>
      <point x="343" y="-10"/>
      <point x="426" y="111"/>
      <point x="426" y="268" type="curve" smooth="yes"/>
      <point x="426" y="427"/>
      <point x="354" y="545"/>
      <point x="219" y="545" type="curve" smooth="yes"/>
      <point x="127" y="545"/>
      <point x="68" y="479"/>
      <point x="40" y="382" type="curve"/>
      <point x="103" y="355" type="line"/>
      <point x="127" y="433"/>
      <point x="159" y="477"/>
      <point x="220" y="477" type="curve" smooth="yes"/>
      <point x="306" y="477"/>
      <point x="343" y="392"/>
      <point x="343" y="269" type="curve" smooth="yes"/>
      <point x="343" y="142"/>
      <point x="293" y="61"/>
      <point x="216" y="61" type="curve" smooth="yes"/>
      <point x="159" y="61"/>
      <point x="129" y="103"/>
      <point x="95" y="186" type="curve"/>
      <point x="35" y="154" type="line"/>
    </contour>
  </outline>
</glyph>
<glyph name="four_m" format="2">
  <advance width="465"/>
  <unicode hex="1044"/>
  <note>
four_m
</note>
  <outline>
    <contour>
      <point x="98" y="-467" type="line"/>
      <point x="184" y="-467" type="line"/>
      <point x="430" y="154" type="line"/>
      <point x="370" y="186" type="line"/>
      <point x="336" y="103"/>
      <point x="306" y="61"/>
      <point x="249" y="61" type="curve" smooth="yes"/>
      <point x="172" y="61"/>
      <point x="122" y="142"/>
      <point x="122" y="269" type="curve" smooth="yes"/>
      <point x="122" y="392"/>
      <point x="159" y="477"/>
      <point x="245" y="477" type="curve" smooth="yes"/>
      <point x="306" y="477"/>
      <point x="338" y="433"/>
      <point x="362" y="355" type="curve"/>
      <point x="425" y="382" type="line"/>
      <point x="397" y="479"/>
      <point x="338" y="545"/>
      <point x="246" y="545" type="curve" smooth="yes"/>
      <point x="111" y="545"/>
      <point x="39" y="427"/>
      <point x="39" y="268" type="curve" smooth="yes"/>
      <point x="39" y="111"/>
      <point x="122" y="-10"/>
      <point x="241" y="-10" type="curve" smooth="yes"/>
      <point x="269" y="-10"/>
      <point x="289" y="-3"/>
      <point x="305" y="8" type="curve"/>
      <point x="305" y="21" type="line"/>
      <point x="280" y="-20"/>
      <point x="246" y="-103"/>
      <point x="225" y="-154" type="curve" smooth="yes"/>
    </contour>
  </outline>
</glyph>
<glyph name="five_m" format="2">
  <advance width="516"/>
  <unicode hex="1045"/>
  <note>
five_m
</note>
  <outline>
    <contour>
      <point x="259" y="-467" type="curve" smooth="yes"/>
      <point x="396" y="-467"/>
      <point x="467" y="-355"/>
      <point x="467" y="-175" type="curve" smooth="yes"/>
      <point x="467" y="269" type="line" smooth="yes"/>
      <point x="467" y="430"/>
      <point x="394" y="545"/>
      <point x="262" y="545" type="curve" smooth="yes"/>
      <point x="136" y="545"/>
      <point x="50" y="440"/>
      <point x="50" y="282" type="curve" smooth="yes"/>
      <point x="50" y="186"/>
      <point x="99" y="122"/>
      <point x="169" y="122" type="curve" smooth="yes"/>
      <point x="246" y="122"/>
      <point x="286" y="183"/>
      <point x="286" y="263" type="curve" smooth="yes"/>
      <point x="286" y="341"/>
      <point x="243" y="398"/>
      <point x="190" y="398" type="curve" smooth="yes"/>
      <point x="171" y="398"/>
      <point x="153" y="392"/>
      <point x="144" y="379" type="curve"/>
      <point x="162" y="436"/>
      <point x="202" y="474"/>
      <point x="259" y="474" type="curve" smooth="yes"/>
      <point x="342" y="474"/>
      <point x="384" y="393"/>
      <point x="384" y="270" type="curve" smooth="yes"/>
      <point x="384" y="-177" type="line" smooth="yes"/>
      <point x="384" y="-313"/>
      <point x="343" y="-396"/>
      <point x="257" y="-396" type="curve" smooth="yes"/>
      <point x="168" y="-396"/>
      <point x="128" y="-305"/>
      <point x="128" y="-207" type="curve" smooth="yes"/>
      <point x="128" y="-200" type="line"/>
      <point x="45" y="-200" type="line"/>
      <point x="45" y="-207" type="line" smooth="yes"/>
      <point x="45" y="-346"/>
      <point x="118" y="-467"/>
    </contour>
    <contour>
      <point x="169" y="185" type="curve" smooth="yes"/>
      <point x="141" y="185"/>
      <point x="123" y="219"/>
      <point x="123" y="259" type="curve" smooth="yes"/>
      <point x="123" y="296"/>
      <point x="136" y="335"/>
      <point x="169" y="335" type="curve" smooth="yes"/>
      <point x="201" y="335"/>
      <point x="217" y="302"/>
      <point x="217" y="259" type="curve" smooth="yes"/>
      <point x="217" y="220"/>
      <point x="205" y="185"/>
    </contour>
  </outline>
</glyph>
<glyph name="six_m" format="2">
  <advance width="534"/>
  <unicode hex="1046"/>
  <note>
six_m
</note>
  <outline>
    <contour>
      <point x="269" y="-13" type="curve" smooth="yes"/>
      <point x="406" y="-13"/>
      <point x="489" y="104"/>
      <point x="489" y="255" type="curve" smooth="yes"/>
      <point x="489" y="320"/>
      <point x="456" y="367"/>
      <point x="400" y="367" type="curve" smooth="yes"/>
      <point x="340" y="367"/>
      <point x="326" y="334"/>
      <point x="290" y="334" type="curve" smooth="yes"/>
      <point x="264" y="334"/>
      <point x="250" y="352"/>
      <point x="250" y="401" type="curve" smooth="yes"/>
      <point x="250" y="446"/>
      <point x="267" y="484"/>
      <point x="294" y="484" type="curve" smooth="yes"/>
      <point x="309" y="484"/>
      <point x="320" y="476"/>
      <point x="328" y="458" type="curve"/>
      <point x="386" y="494" type="line"/>
      <point x="368" y="525"/>
      <point x="340" y="546"/>
      <point x="292" y="546" type="curve" smooth="yes"/>
      <point x="218" y="546"/>
      <point x="176" y="481"/>
      <point x="176" y="401" type="curve" smooth="yes"/>
      <point x="176" y="316"/>
      <point x="211" y="263"/>
      <point x="279" y="263" type="curve" smooth="yes"/>
      <point x="329" y="263"/>
      <point x="349" y="296"/>
      <point x="381" y="296" type="curve" smooth="yes"/>
      <point x="400" y="296"/>
      <point x="406" y="275"/>
      <point x="406" y="254" type="curve" smooth="yes"/>
      <point x="406" y="139"/>
      <point x="353" y="58"/>
      <point x="273" y="58" type="curve" smooth="yes"/>
      <point x="175" y="58"/>
      <point x="132" y="134"/>
      <point x="132" y="285" type="curve" smooth="yes"/>
      <point x="132" y="698" type="line" smooth="yes"/>
      <point x="132" y="857"/>
      <point x="174" y="929"/>
      <point x="272" y="929" type="curve" smooth="yes"/>
      <point x="355" y="929"/>
      <point x="406" y="844"/>
      <point x="406" y="739" type="curve" smooth="yes"/>
      <point x="406" y="733" type="line"/>
      <point x="489" y="733" type="line"/>
      <point x="489" y="737" type="line" smooth="yes"/>
      <point x="489" y="894"/>
      <point x="407" y="1000"/>
      <point x="268" y="1000" type="curve" smooth="yes"/>
      <point x="118" y="1000"/>
      <point x="49" y="894"/>
      <point x="49" y="698" type="curve" smooth="yes"/>
      <point x="49" y="281" type="line" smooth="yes"/>
      <point x="49" y="98"/>
      <point x="116" y="-13"/>
    </contour>
  </outline>
</glyph>
<glyph name="seven_m" format="2">
  <advance width="488"/>
  <unicode hex="1047"/>
  <note>
seven_m
</note>
  <outline>
    <contour>
      <point x="277" y="-466" type="curve" smooth="yes"/>
      <point x="331" y="-466"/>
      <point x="371" y="-445"/>
      <point x="400" y="-383" type="curve"/>
      <point x="339" y="-342" type="line"/>
      <point x="322" y="-372"/>
      <point x="312" y="-395"/>
      <point x="281" y="-395" type="curve" smooth="yes"/>
      <point x="246" y="-395"/>
      <point x="230" y="-363"/>
      <point x="230" y="-311" type="curve" smooth="yes"/>
      <point x="230" y="-227"/>
      <point x="256" y="-169"/>
      <point x="335" y="-36" type="curve" smooth="yes"/>
      <point x="391" y="58"/>
      <point x="448" y="153"/>
      <point x="448" y="305" type="curve" smooth="yes"/>
      <point x="448" y="427"/>
      <point x="381" y="545"/>
      <point x="248" y="545" type="curve" smooth="yes"/>
      <point x="124" y="545"/>
      <point x="39" y="435"/>
      <point x="39" y="254" type="curve" smooth="yes"/>
      <point x="39" y="136"/>
      <point x="92" y="45"/>
      <point x="135" y="22" type="curve"/>
      <point x="180" y="80" type="line"/>
      <point x="152" y="103"/>
      <point x="122" y="164"/>
      <point x="122" y="254" type="curve" smooth="yes"/>
      <point x="122" y="397"/>
      <point x="173" y="474"/>
      <point x="250" y="474" type="curve" smooth="yes"/>
      <point x="328" y="474"/>
      <point x="365" y="391"/>
      <point x="365" y="297" type="curve" smooth="yes"/>
      <point x="365" y="186"/>
      <point x="334" y="119"/>
      <point x="267" y="7" type="curve" smooth="yes"/>
      <point x="173" y="-151"/>
      <point x="147" y="-222"/>
      <point x="147" y="-312" type="curve" smooth="yes"/>
      <point x="147" y="-401"/>
      <point x="194" y="-466"/>
    </contour>
  </outline>
</glyph>
<glyph name="eight_m" format="2">
  <advance width="508"/>
  <unicode hex="1048"/>
  <note>
eight_m
</note>
  <outline>
    <contour>
      <point x="166" y="-11" type="curve"/>
      <point x="245" y="82"/>
      <point x="262" y="167"/>
      <point x="262" y="254" type="curve" smooth="yes"/>
      <point x="262" y="353"/>
      <point x="236" y="420"/>
      <point x="197" y="467" type="curve"/>
      <point x="150" y="428" type="line"/>
      <point x="182" y="389"/>
      <point x="200" y="323"/>
      <point x="200" y="254" type="curve" smooth="yes"/>
      <point x="200" y="187"/>
      <point x="186" y="130"/>
      <point x="159" y="90" type="curve"/>
      <point x="129" y="131"/>
      <point x="115" y="187"/>
      <point x="115" y="255" type="curve" smooth="yes"/>
      <point x="115" y="383"/>
      <point x="166" y="474"/>
      <point x="254" y="474" type="curve" smooth="yes"/>
      <point x="341" y="474"/>
      <point x="386" y="392"/>
      <point x="386" y="255" type="curve" smooth="yes"/>
      <point x="386" y="167"/>
      <point x="366" y="95"/>
      <point x="325" y="49" type="curve"/>
      <point x="368" y="-10" type="line"/>
      <point x="426" y="39"/>
      <point x="469" y="148"/>
      <point x="469" y="257" type="curve" smooth="yes"/>
      <point x="469" y="426"/>
      <point x="391" y="545"/>
      <point x="254" y="545" type="curve" smooth="yes"/>
      <point x="119" y="545"/>
      <point x="39" y="428"/>
      <point x="39" y="257" type="curve" smooth="yes"/>
      <point x="39" y="146"/>
      <point x="88" y="43"/>
    </contour>
  </outline>
</glyph>
<glyph name="nine_m" format="2">
  <advance width="534"/>
  <unicode hex="1049"/>
  <note>
nine_m
</note>
  <outline>
    <contour>
      <point x="268" y="-465" type="curve" smooth="yes"/>
      <point x="407" y="-465"/>
      <point x="489" y="-359"/>
      <point x="489" y="-202" type="curve" smooth="yes"/>
      <point x="489" y="-198" type="line"/>
      <point x="406" y="-198" type="line"/>
      <point x="406" y="-204" type="line" smooth="yes"/>
      <point x="406" y="-309"/>
      <point x="355" y="-394"/>
      <point x="272" y="-394" type="curve" smooth="yes"/>
      <point x="174" y="-394"/>
      <point x="132" y="-322"/>
      <point x="132" y="-163" type="curve" smooth="yes"/>
      <point x="132" y="250" type="line" smooth="yes"/>
      <point x="132" y="401"/>
      <point x="175" y="477"/>
      <point x="273" y="477" type="curve" smooth="yes"/>
      <point x="353" y="477"/>
      <point x="406" y="396"/>
      <point x="406" y="281" type="curve" smooth="yes"/>
      <point x="406" y="260"/>
      <point x="400" y="239"/>
      <point x="381" y="239" type="curve" smooth="yes"/>
      <point x="349" y="239"/>
      <point x="329" y="272"/>
      <point x="279" y="272" type="curve" smooth="yes"/>
      <point x="211" y="272"/>
      <point x="176" y="219"/>
      <point x="176" y="134" type="curve" smooth="yes"/>
      <point x="176" y="54"/>
      <point x="218" y="-11"/>
      <point x="292" y="-11" type="curve" smooth="yes"/>
      <point x="340" y="-11"/>
      <point x="368" y="10"/>
      <point x="386" y="41" type="curve"/>
      <point x="328" y="77" type="line"/>
      <point x="320" y="59"/>
      <point x="309" y="51"/>
      <point x="294" y="51" type="curve" smooth="yes"/>
      <point x="267" y="51"/>
      <point x="250" y="89"/>
      <point x="250" y="134" type="curve" smooth="yes"/>
      <point x="250" y="183"/>
      <point x="264" y="201"/>
      <point x="290" y="201" type="curve" smooth="yes"/>
      <point x="326" y="201"/>
      <point x="340" y="168"/>
      <point x="400" y="168" type="curve" smooth="yes"/>
      <point x="456" y="168"/>
      <point x="489" y="215"/>
      <point x="489" y="280" type="curve" smooth="yes"/>
      <point x="489" y="431"/>
      <point x="406" y="548"/>
      <point x="269" y="548" type="curve" smooth="yes"/>
      <point x="116" y="548"/>
      <point x="49" y="437"/>
      <point x="49" y="254" type="curve" smooth="yes"/>
      <point x="49" y="-163" type="line" smooth="yes"/>
      <point x="49" y="-359"/>
      <point x="118" y="-465"/>
    </contour>
  </outline>
</glyph>
<glyph name="little_section" format="2">
  <advance width="213"/>
  <unicode hex="104A"/>
  <note>
little_section
</note>
  <outline>
    <contour>
      <point x="65" y="0" type="line"/>
      <point x="148" y="0" type="line"/>
      <point x="148" y="535" type="line"/>
      <point x="65" y="535" type="line"/>
    </contour>
  </outline>
</glyph>
<glyph name="locative" format="2">
  <advance width="502"/>
  <unicode hex="104C"/>
  <note>
locative
</note>
  <outline>
    <contour>
      <point x="203" y="-467" type="curve" smooth="yes"/>
      <point x="283" y="-467" type="line" smooth="yes"/>
      <point x="387" y="-467"/>
      <point x="440" y="-398"/>
      <point x="440" y="-260" type="curve" smooth="yes"/>
      <point x="440" y="-8" type="line"/>
      <point x="392" y="-54"/>
      <point x="319" y="-90"/>
      <point x="250" y="-90" type="curve" smooth="yes"/>
      <point x="193" y="-90"/>
      <point x="154" y="-74"/>
      <point x="132" y="-57" type="curve"/>
      <point x="132" y="62" type="line"/>
      <point x="51" y="154" type="line"/>
      <point x="51" y="-88" type="line"/>
      <point x="105" y="-133"/>
      <point x="167" y="-161"/>
      <point x="241" y="-161" type="curve" smooth="yes"/>
      <point x="286" y="-161"/>
      <point x="325" y="-151"/>
      <point x="359" y="-134" type="curve"/>
      <point x="359" y="-269" type="line" smooth="yes"/>
      <point x="359" y="-350"/>
      <point x="335" y="-396"/>
      <point x="278" y="-396" type="curve" smooth="yes"/>
      <point x="208" y="-396" type="line" smooth="yes"/>
      <point x="156" y="-396"/>
      <point x="131" y="-372"/>
      <point x="131" y="-339" type="curve" smooth="yes"/>
      <point x="131" y="-308"/>
      <point x="148" y="-290"/>
      <point x="178" y="-290" type="curve" smooth="yes"/>
      <point x="202" y="-290"/>
      <point x="219" y="-306"/>
      <point x="236" y="-327" type="curve"/>
      <point x="277" y="-279" type="line"/>
      <point x="247" y="-242"/>
      <point x="217" y="-219"/>
      <point x="166" y="-219" type="curve" smooth="yes"/>
      <point x="96" y="-219"/>
      <point x="49" y="-267"/>
      <point x="49" y="-338" type="curve" smooth="yes"/>
      <point x="49" y="-421"/>
      <point x="106" y="-467"/>
    </contour>
    <contour>
      <point x="244" y="-10" type="curve" smooth="yes"/>
      <point x="377" y="-10"/>
      <point x="463" y="108"/>
      <point x="463" y="268" type="curve" smooth="yes"/>
      <point x="463" y="425"/>
      <point x="376" y="545"/>
      <point x="244" y="545" type="curve" smooth="yes"/>
      <point x="158" y="545"/>
      <point x="85" y="479"/>
      <point x="56" y="382" type="curve"/>
      <point x="115" y="349" type="line"/>
      <point x="145" y="431"/>
      <point x="190" y="474"/>
      <point x="246" y="474" type="curve" smooth="yes"/>
      <point x="329" y="474"/>
      <point x="380" y="389"/>
      <point x="380" y="269" type="curve" smooth="yes"/>
      <point x="380" y="148"/>
      <point x="323" y="61"/>
      <point x="242" y="61" type="curve" smooth="yes"/>
      <point x="188" y="61"/>
      <point x="145" y="104"/>
      <point x="114" y="187" type="curve"/>
      <point x="51" y="154" type="line"/>
      <point x="80" y="56"/>
      <point x="154" y="-10"/>
    </contour>
    <component base="asat" xOffset="517"/>
  </outline>
</glyph>
<glyph name="completed" format="2">
  <advance width="687"/>
  <unicode hex="104D"/>
  <note>
completed
</note>
  <outline>
    <contour>
      <point x="210" y="-467" type="curve" smooth="yes"/>
      <point x="491" y="-467" type="line" smooth="yes"/>
      <point x="595" y="-467"/>
      <point x="647" y="-398"/>
      <point x="647" y="-260" type="curve" smooth="yes"/>
      <point x="647" y="214" type="line" smooth="yes"/>
      <point x="647" y="458"/>
      <point x="601" y="543"/>
      <point x="492" y="674" type="curve" smooth="yes"/>
      <point x="451" y="723"/>
      <point x="430" y="775"/>
      <point x="430" y="829" type="curve" smooth="yes"/>
      <point x="430" y="894"/>
      <point x="465" y="933"/>
      <point x="509" y="933" type="curve" smooth="yes"/>
      <point x="554" y="933"/>
      <point x="574" y="898"/>
      <point x="591" y="855" type="curve"/>
      <point x="655" y="891" type="line"/>
      <point x="628" y="975"/>
      <point x="578" y="1004"/>
      <point x="508" y="1004" type="curve" smooth="yes"/>
      <point x="407" y="1004"/>
      <point x="347" y="924"/>
      <point x="347" y="829" type="curve" smooth="yes"/>
      <point x="347" y="745"/>
      <point x="384" y="677"/>
      <point x="450" y="601" type="curve" smooth="yes"/>
      <point x="533" y="506"/>
      <point x="566" y="405"/>
      <point x="566" y="220" type="curve" smooth="yes"/>
      <point x="566" y="-269" type="line" smooth="yes"/>
      <point x="566" y="-350"/>
      <point x="543" y="-396"/>
      <point x="486" y="-396" type="curve" smooth="yes"/>
      <point x="215" y="-396" type="line" smooth="yes"/>
      <point x="168" y="-396"/>
      <point x="138" y="-369"/>
      <point x="138" y="-317" type="curve" smooth="yes"/>
      <point x="138" y="-268"/>
      <point x="157" y="-244"/>
      <point x="185" y="-244" type="curve" smooth="yes"/>
      <point x="209" y="-244"/>
      <point x="226" y="-260"/>
      <point x="243" y="-281" type="curve"/>
      <point x="284" y="-233" type="line"/>
      <point x="254" y="-196"/>
      <point x="224" y="-173"/>
      <point x="173" y="-173" type="curve" smooth="yes"/>
      <point x="107" y="-173"/>
      <point x="56" y="-231"/>
      <point x="56" y="-316" type="curve" smooth="yes"/>
      <point x="56" y="-413"/>
      <point x="119" y="-467"/>
    </contour>
    <contour>
      <point x="369" y="-267" type="line"/>
      <point x="450" y="-267" type="line"/>
      <point x="450" y="267" type="line" smooth="yes"/>
      <point x="450" y="426"/>
      <point x="369" y="545"/>
      <point x="243" y="545" type="curve" smooth="yes"/>
      <point x="118" y="545"/>
      <point x="35" y="427"/>
      <point x="35" y="267" type="curve" smooth="yes"/>
      <point x="35" y="109"/>
      <point x="118" y="-10"/>
      <point x="241" y="-10" type="curve" smooth="yes"/>
      <point x="269" y="-10"/>
      <point x="297" y="0"/>
      <point x="322" y="9" type="curve"/>
      <point x="321" y="208"/>
      <point x="251" y="325"/>
      <point x="99" y="333" type="curve"/>
      <point x="92" y="267" type="line"/>
      <point x="193" y="264"/>
      <point x="257" y="181"/>
      <point x="264" y="45" type="curve"/>
      <point x="282" y="64" type="line"/>
      <point x="270" y="60"/>
      <point x="256" y="58"/>
      <point x="243" y="58" type="curve" smooth="yes"/>
      <point x="158" y="58"/>
      <point x="104" y="144"/>
      <point x="104" y="265" type="curve" smooth="yes"/>
      <point x="104" y="393"/>
      <point x="155" y="477"/>
      <point x="238" y="477" type="curve" smooth="yes"/>
      <point x="319" y="477"/>
      <point x="369" y="389"/>
      <point x="369" y="265" type="curve" smooth="yes"/>
    </contour>
  </outline>
</glyph>
<glyph name="aforementioned" format="2">
  <advance width="500"/>
  <unicode hex="104E"/>
  <note>
aforementioned
</note>
  <outline>
    <contour>
      <point x="258" y="-10" type="curve" smooth="yes"/>
      <point x="348" y="-10"/>
      <point x="422" y="56"/>
      <point x="451" y="154" type="curve"/>
      <point x="388" y="187" type="line"/>
      <point x="357" y="104"/>
      <point x="314" y="61"/>
      <point x="260" y="61" type="curve" smooth="yes"/>
      <point x="179" y="61"/>
      <point x="122" y="148"/>
      <point x="122" y="269" type="curve" smooth="yes"/>
      <point x="122" y="389"/>
      <point x="173" y="474"/>
      <point x="256" y="474" type="curve" smooth="yes"/>
      <point x="312" y="474"/>
      <point x="357" y="431"/>
      <point x="387" y="349" type="curve"/>
      <point x="446" y="382" type="line"/>
      <point x="417" y="479"/>
      <point x="344" y="545"/>
      <point x="258" y="545" type="curve" smooth="yes"/>
      <point x="126" y="545"/>
      <point x="39" y="425"/>
      <point x="39" y="268" type="curve" smooth="yes"/>
      <point x="39" y="108"/>
      <point x="125" y="-10"/>
    </contour>
    <contour>
      <point x="371" y="-466" type="line"/>
      <point x="451" y="-466" type="line"/>
      <point x="451" y="154" type="line"/>
      <point x="371" y="61" type="line"/>
    </contour>
  </outline>
</glyph>
<glyph name="genitive" format="2">
  <advance width="918"/>
  <unicode hex="104F"/>
  <note>
genitive
</note>
  <outline>
    <contour>
      <point x="797" y="0" type="line"/>
      <point x="878" y="0" type="line"/>
      <point x="878" y="341" type="line" smooth="yes"/>
      <point x="878" y="519"/>
      <point x="831" y="602"/>
      <point x="744" y="675" type="curve" smooth="yes"/>
      <point x="680" y="729"/>
      <point x="661" y="781"/>
      <point x="661" y="829" type="curve" smooth="yes"/>
      <point x="661" y="894"/>
      <point x="696" y="933"/>
      <point x="740" y="933" type="curve" smooth="yes"/>
      <point x="785" y="933"/>
      <point x="805" y="898"/>
      <point x="822" y="855" type="curve"/>
      <point x="886" y="891" type="line"/>
      <point x="859" y="975"/>
      <point x="809" y="1004"/>
      <point x="739" y="1004" type="curve" smooth="yes"/>
      <point x="638" y="1004"/>
      <point x="578" y="924"/>
      <point x="578" y="829" type="curve" smooth="yes"/>
      <point x="578" y="763"/>
      <point x="601" y="691"/>
      <point x="688" y="617" type="curve" smooth="yes"/>
      <point x="760" y="555"/>
      <point x="797" y="487"/>
      <point x="797" y="347" type="curve" smooth="yes"/>
    </contour>
    <contour>
      <point x="600" y="0" type="line"/>
      <point x="681" y="0" type="line"/>
      <point x="681" y="367" type="line" smooth="yes"/>
      <point x="681" y="473"/>
      <point x="643" y="545"/>
      <point x="530" y="545" type="curve" smooth="yes"/>
      <point x="442" y="545"/>
      <point x="397" y="495"/>
      <point x="376" y="431" type="curve"/>
      <point x="451" y="385" type="line"/>
      <point x="451" y="437"/>
      <point x="475" y="474"/>
      <point x="530" y="474" type="curve" smooth="yes"/>
      <point x="583" y="474"/>
      <point x="600" y="439"/>
      <point x="600" y="368" type="curve" smooth="yes"/>
    </contour>
    <component base="e_m" xOffset="-4"/>
  </outline>
</glyph>
<glyph name="sha_skt" format="2">
  <advance width="508"/>
  <unicode hex="1050"/>
  <note>
sha_skt
</note>
  <outline>
    <contour>
      <point x="254" y="197" type="curve" smooth="yes"/>
      <point x="280" y="197"/>
      <point x="300" y="217"/>
      <point x="300" y="260" type="curve" smooth="yes"/>
      <point x="300" y="304"/>
      <point x="281" y="323"/>
      <point x="254" y="323" type="curve" smooth="yes"/>
      <point x="229" y="323"/>
      <point x="210" y="304"/>
      <point x="210" y="260" type="curve" smooth="yes"/>
      <point x="210" y="216"/>
      <point x="230" y="197"/>
    </contour>
    <component base="ga"/>
  </outline>
</glyph>
<glyph name="ssa_skt" format="2">
  <advance width="508"/>
  <unicode hex="1051"/>
  <note>
ssa_skt
</note>
  <outline>
    <contour>
      <point x="254" y="-10" type="curve" smooth="yes"/>
      <point x="395" y="-10"/>
      <point x="469" y="97"/>
      <point x="469" y="258" type="curve" smooth="yes"/>
      <point x="469" y="387"/>
      <point x="426" y="496"/>
      <point x="368" y="545" type="curve"/>
      <point x="325" y="486" type="line"/>
      <point x="366" y="440"/>
      <point x="386" y="368"/>
      <point x="386" y="260" type="curve" smooth="yes"/>
      <point x="386" y="131"/>
      <point x="345" y="61"/>
      <point x="254" y="61" type="curve" smooth="yes"/>
      <point x="170" y="61"/>
      <point x="122" y="135"/>
      <point x="122" y="260" type="curve" smooth="yes"/>
      <point x="122" y="368"/>
      <point x="142" y="440"/>
      <point x="183" y="486" type="curve"/>
      <point x="140" y="545" type="line"/>
      <point x="82" y="497"/>
      <point x="39" y="391"/>
      <point x="39" y="258" type="curve" smooth="yes"/>
      <point x="39" y="96"/>
      <point x="117" y="-10"/>
    </contour>
    <contour>
      <point x="254" y="212" type="curve" smooth="yes"/>
      <point x="280" y="212"/>
      <point x="299" y="232"/>
      <point x="299" y="275" type="curve" smooth="yes"/>
      <point x="299" y="319"/>
      <point x="280" y="338"/>
      <point x="254" y="338" type="curve" smooth="yes"/>
      <point x="229" y="338"/>
      <point x="210" y="319"/>
      <point x="210" y="275" type="curve" smooth="yes"/>
      <point x="210" y="231"/>
      <point x="230" y="212"/>
    </contour>
  </outline>
</glyph>
<glyph name="vocR_skt" format="2">
  <advance width="514"/>
  <unicode hex="1052"/>
  <note>
vocR_skt
</note>
  <outline>
    <contour>
      <point x="263" y="-10" type="curve" smooth="yes"/>
      <point x="384" y="-10"/>
      <point x="465" y="77"/>
      <point x="465" y="201" type="curve" smooth="yes"/>
      <point x="465" y="271"/>
      <point x="440" y="325"/>
      <point x="403" y="369" type="curve" smooth="yes"/>
      <point x="376" y="401"/>
      <point x="361" y="417"/>
      <point x="361" y="444" type="curve" smooth="yes"/>
      <point x="361" y="463"/>
      <point x="372" y="474"/>
      <point x="388" y="474" type="curve" smooth="yes"/>
      <point x="404" y="474"/>
      <point x="418" y="464"/>
      <point x="432" y="440" type="curve"/>
      <point x="475" y="486" type="line"/>
      <point x="449" y="527"/>
      <point x="418" y="545"/>
      <point x="377" y="545" type="curve" smooth="yes"/>
      <point x="318" y="545"/>
      <point x="285" y="499"/>
      <point x="285" y="448" type="curve" smooth="yes"/>
      <point x="285" y="408"/>
      <point x="299" y="376"/>
      <point x="333" y="331" type="curve" smooth="yes"/>
      <point x="370" y="282"/>
      <point x="382" y="246"/>
      <point x="382" y="201" type="curve" smooth="yes"/>
      <point x="382" y="120"/>
      <point x="337" y="61"/>
      <point x="264" y="61" type="curve" smooth="yes"/>
      <point x="168" y="61"/>
      <point x="122" y="145"/>
      <point x="122" y="279" type="curve" smooth="yes"/>
      <point x="122" y="369"/>
      <point x="142" y="440"/>
      <point x="186" y="486" type="curve"/>
      <point x="143" y="545" type="line"/>
      <point x="82" y="491"/>
      <point x="39" y="384"/>
      <point x="39" y="278" type="curve" smooth="yes"/>
      <point x="39" y="108"/>
      <point x="117" y="-10"/>
    </contour>
  </outline>
</glyph>
<glyph name="vocRR_skt" format="2">
  <advance width="507"/>
  <unicode hex="1053"/>
  <note>
vocRR_skt
</note>
  <outline>
    <contour>
      <point x="255" y="-10" type="curve" smooth="yes"/>
      <point x="388" y="-10"/>
      <point x="463" y="77"/>
      <point x="463" y="201" type="curve" smooth="yes"/>
      <point x="463" y="271"/>
      <point x="438" y="325"/>
      <point x="401" y="369" type="curve" smooth="yes"/>
      <point x="374" y="401"/>
      <point x="359" y="417"/>
      <point x="359" y="444" type="curve" smooth="yes"/>
      <point x="359" y="463"/>
      <point x="370" y="474"/>
      <point x="386" y="474" type="curve" smooth="yes"/>
      <point x="402" y="474"/>
      <point x="416" y="464"/>
      <point x="430" y="440" type="curve"/>
      <point x="473" y="486" type="line"/>
      <point x="447" y="527"/>
      <point x="416" y="545"/>
      <point x="375" y="545" type="curve" smooth="yes"/>
      <point x="316" y="545"/>
      <point x="283" y="499"/>
      <point x="283" y="448" type="curve" smooth="yes"/>
      <point x="283" y="408"/>
      <point x="297" y="376"/>
      <point x="331" y="331" type="curve" smooth="yes"/>
      <point x="368" y="282"/>
      <point x="380" y="246"/>
      <point x="380" y="201" type="curve" smooth="yes"/>
      <point x="380" y="120"/>
      <point x="341" y="61"/>
      <point x="255" y="61" type="curve" smooth="yes"/>
      <point x="167" y="61"/>
      <point x="127" y="120"/>
      <point x="127" y="201" type="curve" smooth="yes"/>
      <point x="127" y="246"/>
      <point x="139" y="282"/>
      <point x="176" y="331" type="curve" smooth="yes"/>
      <point x="210" y="376"/>
      <point x="224" y="408"/>
      <point x="224" y="448" type="curve" smooth="yes"/>
      <point x="224" y="499"/>
      <point x="191" y="545"/>
      <point x="132" y="545" type="curve" smooth="yes"/>
      <point x="91" y="545"/>
      <point x="60" y="527"/>
      <point x="34" y="486" type="curve"/>
      <point x="77" y="440" type="line"/>
      <point x="91" y="464"/>
      <point x="105" y="474"/>
      <point x="121" y="474" type="curve" smooth="yes"/>
      <point x="137" y="474"/>
      <point x="148" y="463"/>
      <point x="148" y="444" type="curve" smooth="yes"/>
      <point x="148" y="417"/>
      <point x="133" y="401"/>
      <point x="106" y="369" type="curve" smooth="yes"/>
      <point x="69" y="325"/>
      <point x="44" y="271"/>
      <point x="44" y="201" type="curve" smooth="yes"/>
      <point x="44" y="77"/>
      <point x="120" y="-10"/>
    </contour>
  </outline>
</glyph>
<glyph name="vocL_skt" format="2">
  <advance width="512"/>
  <unicode hex="1054"/>
  <note>
vocL_skt
</note>
  <outline>
    <contour>
      <point x="253" y="-10" type="curve" smooth="yes"/>
      <point x="358" y="-10"/>
      <point x="419" y="40"/>
      <point x="459" y="155" type="curve"/>
      <point x="389" y="184" type="line"/>
      <point x="356" y="101"/>
      <point x="320" y="61"/>
      <point x="260" y="61" type="curve" smooth="yes"/>
      <point x="177" y="61"/>
      <point x="121" y="144"/>
      <point x="121" y="266" type="curve" smooth="yes"/>
      <point x="121" y="371"/>
      <point x="168" y="474"/>
      <point x="254" y="474" type="curve" smooth="yes"/>
      <point x="312" y="474"/>
      <point x="356" y="443"/>
      <point x="377" y="383" type="curve"/>
      <point x="345" y="357"/>
      <point x="307" y="336"/>
      <point x="261" y="336" type="curve" smooth="yes"/>
      <point x="213" y="336"/>
      <point x="172" y="369"/>
      <point x="135" y="412" type="curve"/>
      <point x="116" y="351" type="line"/>
      <point x="157" y="304"/>
      <point x="209" y="269"/>
      <point x="265" y="269" type="curve" smooth="yes"/>
      <point x="336" y="269"/>
      <point x="389" y="297"/>
      <point x="461" y="358" type="curve"/>
      <point x="440" y="473"/>
      <point x="365" y="545"/>
      <point x="256" y="545" type="curve" smooth="yes"/>
      <point x="130" y="545"/>
      <point x="39" y="423"/>
      <point x="39" y="267" type="curve" smooth="yes"/>
      <point x="39" y="111"/>
      <point x="126" y="-10"/>
    </contour>
  </outline>
</glyph>
<glyph name="vocLL_skt" format="2">
  <advance width="495"/>
  <unicode hex="1055"/>
  <note>
vocLL_skt
</note>
  <outline>
    <contour>
      <point x="182" y="-10" type="curve" smooth="yes"/>
      <point x="224" y="-10"/>
      <point x="256" y="18"/>
      <point x="275" y="73" type="curve"/>
      <point x="250" y="71" type="line"/>
      <point x="267" y="17"/>
      <point x="291" y="-10"/>
      <point x="347" y="-10" type="curve" smooth="yes"/>
      <point x="419" y="-10"/>
      <point x="455" y="45"/>
      <point x="456" y="125" type="curve"/>
      <point x="376" y="139" type="line"/>
      <point x="372" y="88"/>
      <point x="361" y="61"/>
      <point x="336" y="61" type="curve" smooth="yes"/>
      <point x="314" y="61"/>
      <point x="301" y="86"/>
      <point x="301" y="129" type="curve" smooth="yes"/>
      <point x="301" y="140" type="line"/>
      <point x="218" y="140" type="line"/>
      <point x="218" y="129" type="line" smooth="yes"/>
      <point x="218" y="89"/>
      <point x="207" y="61"/>
      <point x="182" y="61" type="curve" smooth="yes"/>
      <point x="142" y="61"/>
      <point x="121" y="128"/>
      <point x="121" y="266" type="curve" smooth="yes"/>
      <point x="121" y="371"/>
      <point x="165" y="474"/>
      <point x="254" y="474" type="curve" smooth="yes"/>
      <point x="306" y="474"/>
      <point x="352" y="443"/>
      <point x="375" y="383" type="curve"/>
      <point x="340" y="357"/>
      <point x="301" y="336"/>
      <point x="261" y="336" type="curve" smooth="yes"/>
      <point x="205" y="336"/>
      <point x="166" y="369"/>
      <point x="131" y="412" type="curve"/>
      <point x="113" y="351" type="line"/>
      <point x="152" y="304"/>
      <point x="202" y="269"/>
      <point x="265" y="269" type="curve" smooth="yes"/>
      <point x="328" y="269"/>
      <point x="382" y="297"/>
      <point x="456" y="358" type="curve"/>
      <point x="435" y="473"/>
      <point x="357" y="545"/>
      <point x="256" y="545" type="curve" smooth="yes"/>
      <point x="126" y="545"/>
      <point x="39" y="423"/>
      <point x="39" y="267" type="curve" smooth="yes"/>
      <point x="39" y="97"/>
      <point x="94" y="-10"/>
    </contour>
  </outline>
</glyph>
<glyph name="_vocR_skt" format="2">
  <advance width="266"/>
  <unicode hex="1056"/>
  <note>
_vocR_skt
</note>
  <outline>
    <contour>
      <point x="64" y="-10" type="curve" smooth="yes"/>
      <point x="166" y="-10"/>
      <point x="230" y="62"/>
      <point x="230" y="161" type="curve" smooth="yes"/>
      <point x="230" y="247"/>
      <point x="193" y="282"/>
      <point x="133" y="336" type="curve" smooth="yes"/>
      <point x="106" y="360"/>
      <point x="82" y="385"/>
      <point x="82" y="427" type="curve" smooth="yes"/>
      <point x="82" y="456"/>
      <point x="98" y="472"/>
      <point x="118" y="472" type="curve" smooth="yes"/>
      <point x="142" y="472"/>
      <point x="155" y="461"/>
      <point x="177" y="433" type="curve"/>
      <point x="226" y="491" type="line"/>
      <point x="198" y="520"/>
      <point x="171" y="545"/>
      <point x="114" y="545" type="curve" smooth="yes"/>
      <point x="43" y="545"/>
      <point x="2" y="487"/>
      <point x="2" y="424" type="curve" smooth="yes"/>
      <point x="2" y="363"/>
      <point x="34" y="313"/>
      <point x="76" y="277" type="curve" smooth="yes"/>
      <point x="123" y="237"/>
      <point x="150" y="211"/>
      <point x="150" y="161" type="curve" smooth="yes"/>
      <point x="150" y="106"/>
      <point x="120" y="61"/>
      <point x="65" y="61" type="curve" smooth="yes"/>
      <point x="11" y="61"/>
      <point x="-27" y="99"/>
      <point x="-58" y="165" type="curve"/>
      <point x="-122" y="126" type="line"/>
      <point x="-83" y="39"/>
      <point x="-20" y="-10"/>
    </contour>
  </outline>
</glyph>
<glyph name="_vocRR_skt" format="2">
  <advance width="304"/>
  <unicode hex="1057"/>
  <note>
_vocRR_skt
</note>
  <outline>
    <contour>
      <point x="-27" y="-10" type="curve" smooth="yes"/>
      <point x="32" y="-10"/>
      <point x="57" y="17"/>
      <point x="74" y="71" type="curve"/>
      <point x="48" y="73" type="line"/>
      <point x="64" y="17"/>
      <point x="103" y="-10"/>
      <point x="150" y="-10" type="curve" smooth="yes"/>
      <point x="218" y="-10"/>
      <point x="268" y="49"/>
      <point x="268" y="149" type="curve" smooth="yes"/>
      <point x="268" y="247"/>
      <point x="231" y="282"/>
      <point x="171" y="336" type="curve" smooth="yes"/>
      <point x="144" y="360"/>
      <point x="120" y="385"/>
      <point x="120" y="427" type="curve" smooth="yes"/>
      <point x="120" y="456"/>
      <point x="136" y="472"/>
      <point x="156" y="472" type="curve" smooth="yes"/>
      <point x="180" y="472"/>
      <point x="193" y="461"/>
      <point x="215" y="433" type="curve"/>
      <point x="264" y="491" type="line"/>
      <point x="236" y="520"/>
      <point x="209" y="545"/>
      <point x="152" y="545" type="curve" smooth="yes"/>
      <point x="81" y="545"/>
      <point x="40" y="487"/>
      <point x="40" y="424" type="curve" smooth="yes"/>
      <point x="40" y="363"/>
      <point x="72" y="313"/>
      <point x="114" y="277" type="curve" smooth="yes"/>
      <point x="161" y="237"/>
      <point x="188" y="211"/>
      <point x="188" y="148" type="curve" smooth="yes"/>
      <point x="188" y="86"/>
      <point x="170" y="61"/>
      <point x="145" y="61" type="curve" smooth="yes"/>
      <point x="118" y="61"/>
      <point x="106" y="89"/>
      <point x="106" y="129" type="curve" smooth="yes"/>
      <point x="106" y="140" type="line"/>
      <point x="23" y="140" type="line"/>
      <point x="23" y="129" type="line" smooth="yes"/>
      <point x="23" y="86"/>
      <point x="9" y="61"/>
      <point x="-16" y="61" type="curve" smooth="yes"/>
      <point x="-45" y="61"/>
      <point x="-59" y="88"/>
      <point x="-63" y="139" type="curve"/>
      <point x="-141" y="125" type="line"/>
      <point x="-140" y="45"/>
      <point x="-102" y="-10"/>
    </contour>
  </outline>
</glyph>
<glyph name="_vocL_skt" format="2">
  <unicode hex="1058"/>
  <note>
_vocL_skt
</note>
  <outline>
    <contour>
      <point x="-235" y="-468" type="curve" smooth="yes"/>
      <point x="-172" y="-468"/>
      <point x="-126" y="-434"/>
      <point x="-85" y="-381" type="curve"/>
      <point x="-116" y="-328" type="line"/>
      <point x="-152" y="-374"/>
      <point x="-184" y="-399"/>
      <point x="-227" y="-399" type="curve" smooth="yes"/>
      <point x="-290" y="-399"/>
      <point x="-327" y="-347"/>
      <point x="-327" y="-259" type="curve" smooth="yes"/>
      <point x="-327" y="-180"/>
      <point x="-297" y="-118"/>
      <point x="-234" y="-118" type="curve" smooth="yes"/>
      <point x="-198" y="-118"/>
      <point x="-164" y="-138"/>
      <point x="-150" y="-173" type="curve"/>
      <point x="-177" y="-190"/>
      <point x="-206" y="-202"/>
      <point x="-234" y="-202" type="curve" smooth="yes"/>
      <point x="-266" y="-202"/>
      <point x="-293" y="-184"/>
      <point x="-320" y="-159" type="curve"/>
      <point x="-334" y="-222" type="line"/>
      <point x="-302" y="-249"/>
      <point x="-268" y="-266"/>
      <point x="-229" y="-266" type="curve" smooth="yes"/>
      <point x="-182" y="-266"/>
      <point x="-142" y="-251"/>
      <point x="-79" y="-204" type="curve"/>
      <point x="-91" y="-108"/>
      <point x="-152" y="-47"/>
      <point x="-232" y="-47" type="curve" smooth="yes"/>
      <point x="-333" y="-47"/>
      <point x="-402" y="-132"/>
      <point x="-402" y="-258" type="curve" smooth="yes"/>
      <point x="-402" y="-382"/>
      <point x="-337" y="-468"/>
    </contour>
  </outline>
</glyph>
<glyph name="_vocLL_skt" format="2">
  <unicode hex="1059"/>
  <note>
_vocLL_skt
</note>
  <outline>
    <contour>
      <point x="-295" y="-466" type="curve" smooth="yes"/>
      <point x="-266" y="-466"/>
      <point x="-239" y="-443"/>
      <point x="-227" y="-394" type="curve"/>
      <point x="-251" y="-399" type="line"/>
      <point x="-238" y="-442"/>
      <point x="-222" y="-466"/>
      <point x="-180" y="-466" type="curve" smooth="yes"/>
      <point x="-124" y="-466"/>
      <point x="-99" y="-423"/>
      <point x="-99" y="-351" type="curve"/>
      <point x="-168" y="-341" type="line"/>
      <point x="-169" y="-372"/>
      <point x="-174" y="-398"/>
      <point x="-189" y="-398" type="curve" smooth="yes"/>
      <point x="-200" y="-398"/>
      <point x="-209" y="-384"/>
      <point x="-209" y="-354" type="curve" smooth="yes"/>
      <point x="-209" y="-343" type="line"/>
      <point x="-273" y="-343" type="line"/>
      <point x="-273" y="-354" type="line" smooth="yes"/>
      <point x="-273" y="-383"/>
      <point x="-284" y="-398"/>
      <point x="-294" y="-398" type="curve" smooth="yes"/>
      <point x="-322" y="-398"/>
      <point x="-329" y="-328"/>
      <point x="-329" y="-263" type="curve" smooth="yes"/>
      <point x="-329" y="-172"/>
      <point x="-302" y="-111"/>
      <point x="-242" y="-111" type="curve" smooth="yes"/>
      <point x="-211" y="-111"/>
      <point x="-181" y="-135"/>
      <point x="-168" y="-175" type="curve"/>
      <point x="-193" y="-192"/>
      <point x="-219" y="-203"/>
      <point x="-245" y="-203" type="curve" smooth="yes"/>
      <point x="-275" y="-203"/>
      <point x="-301" y="-184"/>
      <point x="-326" y="-157" type="curve"/>
      <point x="-340" y="-219" type="line"/>
      <point x="-311" y="-250"/>
      <point x="-277" y="-268"/>
      <point x="-240" y="-268" type="curve" smooth="yes"/>
      <point x="-194" y="-268"/>
      <point x="-157" y="-253"/>
      <point x="-98" y="-206" type="curve"/>
      <point x="-109" y="-109"/>
      <point x="-167" y="-49"/>
      <point x="-242" y="-49" type="curve" smooth="yes"/>
      <point x="-343" y="-49"/>
      <point x="-404" y="-137"/>
      <point x="-404" y="-262" type="curve" smooth="yes"/>
      <point x="-404" y="-391"/>
      <point x="-363" y="-466"/>
    </contour>
  </outline>
</glyph>
<glyph name="nga_mon" format="2">
  <advance width="490"/>
  <unicode hex="105A"/>
  <note>
nga_mon
</note>
  <outline>
    <contour>
      <point x="258" y="-10" type="curve" smooth="yes"/>
      <point x="348" y="-10"/>
      <point x="422" y="56"/>
      <point x="451" y="154" type="curve"/>
      <point x="388" y="187" type="line"/>
      <point x="357" y="104"/>
      <point x="314" y="61"/>
      <point x="260" y="61" type="curve" smooth="yes"/>
      <point x="179" y="61"/>
      <point x="122" y="148"/>
      <point x="122" y="269" type="curve" smooth="yes"/>
      <point x="122" y="389"/>
      <point x="173" y="474"/>
      <point x="256" y="474" type="curve" smooth="yes"/>
      <point x="312" y="474"/>
      <point x="357" y="431"/>
      <point x="387" y="349" type="curve"/>
      <point x="446" y="382" type="line"/>
      <point x="417" y="479"/>
      <point x="344" y="545"/>
      <point x="258" y="545" type="curve" smooth="yes"/>
      <point x="126" y="545"/>
      <point x="39" y="425"/>
      <point x="39" y="268" type="curve" smooth="yes"/>
      <point x="39" y="108"/>
      <point x="125" y="-10"/>
    </contour>
    <contour>
      <point x="312" y="-466" type="curve" smooth="yes"/>
      <point x="330" y="-466"/>
      <point x="352" y="-461"/>
      <point x="367" y="-449" type="curve"/>
      <point x="343" y="-395" type="line"/>
      <point x="335" y="-399"/>
      <point x="329" y="-402"/>
      <point x="320" y="-402" type="curve" smooth="yes"/>
      <point x="306" y="-402"/>
      <point x="297" y="-391"/>
      <point x="297" y="-374" type="curve" smooth="yes"/>
      <point x="297" y="-356"/>
      <point x="304" y="-337"/>
      <point x="325" y="-309" type="curve" smooth="yes"/>
      <point x="362" y="-259"/>
      <point x="384" y="-225"/>
      <point x="384" y="-180" type="curve" smooth="yes"/>
      <point x="384" y="-105"/>
      <point x="338" y="-48"/>
      <point x="258" y="-48" type="curve" smooth="yes"/>
      <point x="168" y="-48"/>
      <point x="130" y="-107"/>
      <point x="127" y="-182" type="curve"/>
      <point x="202" y="-182" type="line"/>
      <point x="205" y="-143"/>
      <point x="225" y="-115"/>
      <point x="257" y="-115" type="curve" smooth="yes"/>
      <point x="286" y="-115"/>
      <point x="306" y="-141"/>
      <point x="306" y="-177" type="curve" smooth="yes"/>
      <point x="306" y="-203"/>
      <point x="297" y="-228"/>
      <point x="280" y="-252" type="curve" smooth="yes"/>
      <point x="247" y="-299"/>
      <point x="219" y="-333"/>
      <point x="219" y="-378" type="curve" smooth="yes"/>
      <point x="219" y="-426"/>
      <point x="245" y="-466"/>
    </contour>
  </outline>
</glyph>
<glyph name="bba_mon" format="2">
  <advance width="506"/>
  <unicode hex="105C"/>
  <note>
bba_mon
</note>
  <outline>
    <contour>
      <point x="252" y="-10" type="curve" smooth="yes"/>
      <point x="383" y="-10"/>
      <point x="473" y="105"/>
      <point x="473" y="267" type="curve" smooth="yes"/>
      <point x="473" y="427"/>
      <point x="386" y="545"/>
      <point x="253" y="545" type="curve" smooth="yes"/>
      <point x="119" y="545"/>
      <point x="34" y="424"/>
      <point x="34" y="267" type="curve" smooth="yes"/>
      <point x="34" y="109"/>
      <point x="120" y="-10"/>
    </contour>
    <contour>
      <point x="253" y="58" type="curve" smooth="yes"/>
      <point x="165" y="58"/>
      <point x="107" y="139"/>
      <point x="107" y="265" type="curve" smooth="yes"/>
      <point x="107" y="392"/>
      <point x="162" y="477"/>
      <point x="253" y="477" type="curve" smooth="yes"/>
      <point x="343" y="477"/>
      <point x="400" y="391"/>
      <point x="400" y="265" type="curve" smooth="yes"/>
      <point x="400" y="142"/>
      <point x="343" y="58"/>
    </contour>
    <contour>
      <point x="253" y="167" type="curve" smooth="yes"/>
      <point x="303" y="167"/>
      <point x="339" y="207"/>
      <point x="339" y="273" type="curve" smooth="yes"/>
      <point x="339" y="337"/>
      <point x="302" y="377"/>
      <point x="253" y="377" type="curve" smooth="yes"/>
      <point x="202" y="377"/>
      <point x="169" y="337"/>
      <point x="169" y="272" type="curve" smooth="yes"/>
      <point x="169" y="206"/>
      <point x="202" y="167"/>
    </contour>
    <contour>
      <point x="254" y="217" type="curve" smooth="yes"/>
      <point x="229" y="217"/>
      <point x="216" y="238"/>
      <point x="216" y="272" type="curve" smooth="yes"/>
      <point x="216" y="305"/>
      <point x="232" y="327"/>
      <point x="254" y="327" type="curve" smooth="yes"/>
      <point x="276" y="327"/>
      <point x="291" y="306"/>
      <point x="291" y="272" type="curve" smooth="yes"/>
      <point x="291" y="238"/>
      <point x="276" y="217"/>
    </contour>
  </outline>
</glyph>
<glyph name="bbe_mon" format="2">
  <advance width="496"/>
  <unicode hex="105D"/>
  <note>
bbe_mon
</note>
  <outline>
    <contour>
      <point x="210" y="-467" type="curve" smooth="yes"/>
      <point x="290" y="-467" type="line" smooth="yes"/>
      <point x="394" y="-467"/>
      <point x="446" y="-398"/>
      <point x="446" y="-260" type="curve" smooth="yes"/>
      <point x="446" y="154" type="line"/>
      <point x="366" y="61" type="line"/>
      <point x="366" y="-269" type="line" smooth="yes"/>
      <point x="366" y="-350"/>
      <point x="342" y="-396"/>
      <point x="293" y="-396" type="curve" smooth="yes"/>
      <point x="209" y="-396" type="line" smooth="yes"/>
      <point x="168" y="-396"/>
      <point x="138" y="-369"/>
      <point x="138" y="-317" type="curve" smooth="yes"/>
      <point x="138" y="-268"/>
      <point x="157" y="-244"/>
      <point x="185" y="-244" type="curve" smooth="yes"/>
      <point x="209" y="-244"/>
      <point x="226" y="-261"/>
      <point x="243" y="-284" type="curve"/>
      <point x="284" y="-233" type="line"/>
      <point x="254" y="-196"/>
      <point x="224" y="-173"/>
      <point x="173" y="-173" type="curve" smooth="yes"/>
      <point x="108" y="-173"/>
      <point x="58" y="-231"/>
      <point x="58" y="-316" type="curve" smooth="yes"/>
      <point x="58" y="-412"/>
      <point x="117" y="-467"/>
    </contour>
    <contour>
      <point x="135" y="126" type="line"/>
      <point x="167" y="178"/>
      <point x="207" y="205"/>
      <point x="256" y="205" type="curve" smooth="yes"/>
      <point x="307" y="205"/>
      <point x="345" y="178"/>
      <point x="377" y="127" type="curve"/>
      <point x="400" y="202" type="line"/>
      <point x="361" y="256"/>
      <point x="312" y="276"/>
      <point x="257" y="276" type="curve" smooth="yes"/>
      <point x="196" y="276"/>
      <point x="148" y="253"/>
      <point x="111" y="197" type="curve"/>
    </contour>
    <contour>
      <point x="257" y="-10" type="curve" smooth="yes"/>
      <point x="390" y="-10"/>
      <point x="474" y="109"/>
      <point x="474" y="278" type="curve" smooth="yes"/>
      <point x="474" y="384"/>
      <point x="431" y="491"/>
      <point x="370" y="545" type="curve"/>
      <point x="327" y="486" type="line"/>
      <point x="372" y="440"/>
      <point x="394" y="369"/>
      <point x="394" y="279" type="curve" smooth="yes"/>
      <point x="394" y="145"/>
      <point x="338" y="61"/>
      <point x="256" y="61" type="curve" smooth="yes"/>
      <point x="173" y="61"/>
      <point x="119" y="144"/>
      <point x="119" y="279" type="curve" smooth="yes"/>
      <point x="119" y="369"/>
      <point x="140" y="440"/>
      <point x="184" y="486" type="curve"/>
      <point x="141" y="545" type="line"/>
      <point x="81" y="490"/>
      <point x="39" y="386"/>
      <point x="39" y="278" type="curve" smooth="yes"/>
      <point x="39" y="107"/>
      <point x="118" y="-10"/>
    </contour>
  </outline>
</glyph>
<glyph name="_medialNa_mon" format="2">
  <unicode hex="105E"/>
  <note>
_medialNa_mon
</note>
  <outline>
    <contour>
      <point x="-310" y="-466" type="curve" smooth="yes"/>
      <point x="-232" y="-466"/>
      <point x="-192" y="-411"/>
      <point x="-192" y="-310" type="curve" smooth="yes"/>
      <point x="-192" y="-39" type="line"/>
      <point x="-265" y="-39" type="line"/>
      <point x="-265" y="-319" type="line" smooth="yes"/>
      <point x="-265" y="-368"/>
      <point x="-281" y="-393"/>
      <point x="-310" y="-393" type="curve" smooth="yes"/>
      <point x="-333" y="-393"/>
      <point x="-355" y="-373"/>
      <point x="-355" y="-333" type="curve" smooth="yes"/>
      <point x="-355" y="-277"/>
      <point x="-323" y="-244"/>
      <point x="-251" y="-244" type="curve" smooth="yes"/>
      <point x="-192" y="-244"/>
      <point x="-155" y="-266"/>
      <point x="-108" y="-301" type="curve"/>
      <point x="-71" y="-242" type="line"/>
      <point x="-127" y="-203"/>
      <point x="-183" y="-172"/>
      <point x="-252" y="-172" type="curve" smooth="yes"/>
      <point x="-365" y="-172"/>
      <point x="-428" y="-232"/>
      <point x="-428" y="-329" type="curve" smooth="yes"/>
      <point x="-428" y="-409"/>
      <point x="-382" y="-466"/>
    </contour>
  </outline>
</glyph>
<glyph name="_medialMa_mon" format="2">
  <unicode hex="105F"/>
  <note>
_medialMa_mon
</note>
  <outline>
    <contour>
      <point x="-249" y="-466" type="curve" smooth="yes"/>
      <point x="-181" y="-466"/>
      <point x="-113" y="-438"/>
      <point x="-61" y="-395" type="curve"/>
      <point x="-97" y="-340" type="line"/>
      <point x="-145" y="-378"/>
      <point x="-195" y="-399"/>
      <point x="-244" y="-399" type="curve" smooth="yes"/>
      <point x="-307" y="-399"/>
      <point x="-341" y="-369"/>
      <point x="-341" y="-320" type="curve" smooth="yes"/>
      <point x="-341" y="-267"/>
      <point x="-313" y="-239"/>
      <point x="-257" y="-239" type="curve" smooth="yes"/>
      <point x="-236" y="-239"/>
      <point x="-214" y="-241"/>
      <point x="-195" y="-245" type="curve"/>
      <point x="-195" y="-39" type="line"/>
      <point x="-268" y="-39" type="line"/>
      <point x="-268" y="-171" type="line"/>
      <point x="-351" y="-171"/>
      <point x="-414" y="-228"/>
      <point x="-414" y="-315" type="curve" smooth="yes"/>
      <point x="-414" y="-412"/>
      <point x="-353" y="-466"/>
    </contour>
  </outline>
</glyph>
<glyph name="_medialLa_mon" format="2">
  <unicode hex="1060"/>
  <note>
_medialLa_mon
</note>
  <outline>
    <contour>
      <point x="-405" y="-467" type="line"/>
      <point x="-97" y="-467" type="line"/>
      <point x="-97" y="-399" type="line"/>
      <point x="-287" y="-399" type="line"/>
      <point x="-142" y="-49" type="line"/>
      <point x="-231" y="-49" type="line"/>
    </contour>
  </outline>
</glyph>
<glyph name="sha_skn" format="2">
  <advance width="535"/>
  <unicode hex="1061"/>
  <note>
sha_skn
</note>
  <outline>
    <contour>
      <point x="387" y="-467" type="line"/>
      <point x="470" y="-467" type="line"/>
      <point x="470" y="267" type="line" smooth="yes"/>
      <point x="470" y="421"/>
      <point x="400" y="545"/>
      <point x="261" y="545" type="curve" smooth="yes"/>
      <point x="118" y="545"/>
      <point x="39" y="428"/>
      <point x="39" y="267" type="curve" smooth="yes"/>
      <point x="39" y="109"/>
      <point x="122" y="-10"/>
      <point x="245" y="-10" type="curve" smooth="yes"/>
      <point x="276" y="-10"/>
      <point x="304" y="-5"/>
      <point x="326" y="4" type="curve"/>
      <point x="326" y="206"/>
      <point x="255" y="325"/>
      <point x="103" y="333" type="curve"/>
      <point x="96" y="267" type="line"/>
      <point x="199" y="264"/>
      <point x="253" y="182"/>
      <point x="260" y="34" type="curve"/>
      <point x="286" y="64" type="line"/>
      <point x="274" y="60"/>
      <point x="260" y="58"/>
      <point x="247" y="58" type="curve" smooth="yes"/>
      <point x="162" y="58"/>
      <point x="108" y="144"/>
      <point x="108" y="265" type="curve" smooth="yes"/>
      <point x="108" y="389"/>
      <point x="157" y="473"/>
      <point x="256" y="473" type="curve" smooth="yes"/>
      <point x="344" y="473"/>
      <point x="387" y="387"/>
      <point x="387" y="265" type="curve" smooth="yes"/>
    </contour>
    <contour>
      <point x="155" y="-467" type="line"/>
      <point x="326" y="-467" type="line"/>
      <point x="326" y="7" type="line"/>
      <point x="243" y="7" type="line" smooth="yes"/>
      <point x="243" y="-396" type="line"/>
      <point x="155" y="-396" type="line"/>
    </contour>
  </outline>
</glyph>
<glyph name="eu_skn" format="2">
  <advance width="253"/>
  <unicode hex="1062"/>
  <note>
eu_skn
</note>
  <outline>
    <contour>
      <point x="107" y="0" type="line"/>
      <point x="188" y="0" type="line"/>
      <point x="188" y="536" type="line"/>
      <point x="12" y="536" type="line"/>
      <point x="12" y="468" type="line"/>
      <point x="107" y="468" type="line"/>
    </contour>
  </outline>
</glyph>
<glyph name="hathi_skn" format="2">
  <advance width="500"/>
  <unicode hex="1063"/>
  <note>
hathi_skn
</note>
  <outline>
    <contour>
      <point x="49" y="-466" type="line"/>
      <point x="129" y="-466" type="line"/>
      <point x="129" y="61" type="line"/>
      <point x="49" y="154" type="line"/>
    </contour>
    <contour>
      <point x="242" y="-10" type="curve" smooth="yes"/>
      <point x="375" y="-10"/>
      <point x="461" y="108"/>
      <point x="461" y="268" type="curve" smooth="yes"/>
      <point x="461" y="425"/>
      <point x="374" y="545"/>
      <point x="242" y="545" type="curve" smooth="yes"/>
      <point x="156" y="545"/>
      <point x="83" y="479"/>
      <point x="54" y="382" type="curve"/>
      <point x="113" y="349" type="line"/>
      <point x="143" y="431"/>
      <point x="188" y="474"/>
      <point x="244" y="474" type="curve" smooth="yes"/>
      <point x="327" y="474"/>
      <point x="378" y="389"/>
      <point x="378" y="269" type="curve" smooth="yes"/>
      <point x="378" y="148"/>
      <point x="321" y="61"/>
      <point x="240" y="61" type="curve" smooth="yes"/>
      <point x="186" y="61"/>
      <point x="143" y="104"/>
      <point x="112" y="187" type="curve"/>
      <point x="49" y="154" type="line"/>
      <point x="78" y="56"/>
      <point x="152" y="-10"/>
    </contour>
  </outline>
</glyph>
<glyph name="kepho_skn" format="2">
  <advance width="308"/>
  <unicode hex="1064"/>
  <note>
kepho_skn
</note>
  <outline>
    <contour>
      <point x="113" y="0" type="line"/>
      <point x="286" y="0" type="line"/>
      <point x="286" y="68" type="line"/>
      <point x="196" y="68" type="line"/>
      <point x="196" y="536" type="line"/>
      <point x="22" y="536" type="line"/>
      <point x="22" y="468" type="line"/>
      <point x="113" y="468" type="line"/>
    </contour>
  </outline>
</glyph>
<glyph name="tha_wpk" format="2">
  <advance width="511"/>
  <unicode hex="1065"/>
  <note>
tha_wpk
</note>
  <outline>
    <contour>
      <point x="243" y="-10" type="curve" smooth="yes"/>
      <point x="380" y="-10"/>
      <point x="472" y="101"/>
      <point x="472" y="268" type="curve" smooth="yes"/>
      <point x="472" y="427"/>
      <point x="380" y="545"/>
      <point x="243" y="545" type="curve" smooth="yes"/>
      <point x="152" y="545"/>
      <point x="76" y="479"/>
      <point x="45" y="382" type="curve"/>
      <point x="104" y="349" type="line"/>
      <point x="136" y="433"/>
      <point x="184" y="477"/>
      <point x="245" y="477" type="curve" smooth="yes"/>
      <point x="333" y="477"/>
      <point x="389" y="391"/>
      <point x="389" y="269" type="curve" smooth="yes"/>
      <point x="389" y="147"/>
      <point x="329" y="58"/>
      <point x="241" y="58" type="curve" smooth="yes"/>
      <point x="180" y="58"/>
      <point x="131" y="102"/>
      <point x="103" y="187" type="curve"/>
      <point x="40" y="154" type="line"/>
      <point x="69" y="56"/>
      <point x="147" y="-10"/>
    </contour>
  </outline>
</glyph>
<glyph name="pwa_wpk" format="2">
  <advance width="508"/>
  <unicode hex="1066"/>
  <note>
pwa_wpk
</note>
  <outline>
    <contour>
      <point x="254" y="-10" type="curve" smooth="yes"/>
      <point x="395" y="-10"/>
      <point x="469" y="97"/>
      <point x="469" y="258" type="curve" smooth="yes"/>
      <point x="469" y="387"/>
      <point x="426" y="496"/>
      <point x="368" y="545" type="curve"/>
      <point x="325" y="486" type="line"/>
      <point x="366" y="440"/>
      <point x="386" y="368"/>
      <point x="386" y="260" type="curve" smooth="yes"/>
      <point x="386" y="131"/>
      <point x="345" y="61"/>
      <point x="254" y="61" type="curve" smooth="yes"/>
      <point x="169" y="61"/>
      <point x="122" y="138"/>
      <point x="122" y="260" type="curve" smooth="yes"/>
      <point x="122" y="368"/>
      <point x="142" y="440"/>
      <point x="183" y="486" type="curve"/>
      <point x="140" y="545" type="line"/>
      <point x="82" y="497"/>
      <point x="39" y="391"/>
      <point x="39" y="258" type="curve" smooth="yes"/>
      <point x="39" y="96"/>
      <point x="117" y="-10"/>
    </contour>
    <contour>
      <point x="131" y="-467" type="line"/>
      <point x="304" y="-467" type="line"/>
      <point x="304" y="8" type="line"/>
      <point x="221" y="8" type="line"/>
      <point x="221" y="-399" type="line"/>
      <point x="131" y="-399" type="line"/>
    </contour>
  </outline>
</glyph>
<glyph name="eu_wpk" format="2">
  <advance width="328"/>
  <unicode hex="1067"/>
  <note>
eu_wpk
</note>
  <outline>
    <contour>
      <point x="146" y="-11" type="curve" smooth="yes"/>
      <point x="217" y="-11"/>
      <point x="263" y="40"/>
      <point x="263" y="129" type="curve"/>
      <point x="256" y="202"/>
      <point x="216" y="269"/>
      <point x="146" y="269" type="curve" smooth="yes"/>
      <point x="76" y="269"/>
      <point x="30" y="216"/>
      <point x="30" y="129" type="curve" smooth="yes"/>
      <point x="30" y="40"/>
      <point x="76" y="-11"/>
    </contour>
    <contour>
      <point x="146" y="54" type="curve" smooth="yes"/>
      <point x="114" y="54"/>
      <point x="96" y="83"/>
      <point x="96" y="129" type="curve" smooth="yes"/>
      <point x="96" y="174"/>
      <point x="117" y="204"/>
      <point x="146" y="204" type="curve" smooth="yes"/>
      <point x="176" y="204"/>
      <point x="196" y="174"/>
      <point x="196" y="129" type="curve" smooth="yes"/>
      <point x="196" y="83"/>
      <point x="179" y="54"/>
    </contour>
    <contour>
      <point x="263" y="129" type="line"/>
      <point x="263" y="535" type="line"/>
      <point x="188" y="535" type="line"/>
      <point x="188" y="244" type="line"/>
    </contour>
  </outline>
</glyph>
<glyph name="ue_wpk" format="2">
  <advance width="268"/>
  <unicode hex="1068"/>
  <note>
ue_wpk
</note>
  <outline>
    <contour>
      <point x="22" y="0" type="line"/>
      <point x="195" y="0" type="line"/>
      <point x="195" y="536" type="line"/>
      <point x="112" y="536" type="line"/>
      <point x="112" y="71" type="line"/>
      <point x="22" y="71" type="line"/>
    </contour>
    <contour>
      <point x="146" y="653" type="curve" smooth="yes"/>
      <point x="198" y="653"/>
      <point x="235" y="691"/>
      <point x="235" y="758" type="curve" smooth="yes"/>
      <point x="235" y="824"/>
      <point x="198" y="861"/>
      <point x="146" y="861" type="curve" smooth="yes"/>
      <point x="95" y="861"/>
      <point x="60" y="823"/>
      <point x="60" y="758" type="curve" smooth="yes"/>
      <point x="60" y="691"/>
      <point x="95" y="653"/>
    </contour>
    <contour>
      <point x="147" y="702" type="curve" smooth="yes"/>
      <point x="124" y="702"/>
      <point x="111" y="724"/>
      <point x="111" y="758" type="curve" smooth="yes"/>
      <point x="111" y="792"/>
      <point x="126" y="812"/>
      <point x="147" y="812" type="curve" smooth="yes"/>
      <point x="169" y="812"/>
      <point x="184" y="792"/>
      <point x="184" y="758" type="curve" smooth="yes"/>
      <point x="184" y="724"/>
      <point x="169" y="702"/>
    </contour>
  </outline>
</glyph>
<glyph name="tone1_wpk" format="2">
  <advance width="325"/>
  <unicode hex="1069"/>
  <note>
tone1_wpk
</note>
  <outline>
    <contour>
      <point x="156" y="-13" type="curve" smooth="yes"/>
      <point x="209" y="-13"/>
      <point x="246" y="4"/>
      <point x="283" y="54" type="curve"/>
      <point x="239" y="101" type="line"/>
      <point x="215" y="69"/>
      <point x="192" y="58"/>
      <point x="169" y="58" type="curve" smooth="yes"/>
      <point x="138" y="58"/>
      <point x="117" y="85"/>
      <point x="117" y="122" type="curve" smooth="yes"/>
      <point x="117" y="163"/>
      <point x="134" y="192"/>
      <point x="175" y="228" type="curve" smooth="yes"/>
      <point x="255" y="298"/>
      <point x="284" y="344"/>
      <point x="284" y="416" type="curve" smooth="yes"/>
      <point x="284" y="484"/>
      <point x="238" y="545"/>
      <point x="161" y="545" type="curve" smooth="yes"/>
      <point x="101" y="545"/>
      <point x="66" y="520"/>
      <point x="37" y="476" type="curve"/>
      <point x="89" y="430" type="line"/>
      <point x="108" y="464"/>
      <point x="131" y="475"/>
      <point x="152" y="475" type="curve" smooth="yes"/>
      <point x="185" y="475"/>
      <point x="203" y="447"/>
      <point x="203" y="413" type="curve" smooth="yes"/>
      <point x="203" y="383"/>
      <point x="193" y="344"/>
      <point x="145" y="304" type="curve" smooth="yes"/>
      <point x="61" y="234"/>
      <point x="37" y="192"/>
      <point x="37" y="124" type="curve" smooth="yes"/>
      <point x="37" y="43"/>
      <point x="86" y="-13"/>
    </contour>
  </outline>
</glyph>
<glyph name="tone2_wpk" format="2">
  <advance width="330"/>
  <unicode hex="106A"/>
  <note>
tone2_wpk
</note>
  <outline>
    <contour>
      <point x="146" y="-11" type="curve" smooth="yes"/>
      <point x="224" y="-11"/>
      <point x="265" y="41"/>
      <point x="265" y="143" type="curve" smooth="yes"/>
      <point x="265" y="536" type="line"/>
      <point x="190" y="536" type="line"/>
      <point x="190" y="153" type="line" smooth="yes"/>
      <point x="190" y="87"/>
      <point x="174" y="60"/>
      <point x="147" y="60" type="curve" smooth="yes"/>
      <point x="120" y="60"/>
      <point x="103" y="86"/>
      <point x="103" y="131" type="curve"/>
      <point x="28" y="131" type="line"/>
      <point x="28" y="45"/>
      <point x="72" y="-11"/>
    </contour>
  </outline>
</glyph>
<glyph name="tone3_wpk" format="2">
  <advance width="330"/>
  <unicode hex="106B"/>
  <note>
tone3_wpk
</note>
  <outline>
    <contour>
      <point x="190" y="0" type="line"/>
      <point x="265" y="0" type="line"/>
      <point x="265" y="393" type="line" smooth="yes"/>
      <point x="265" y="495"/>
      <point x="224" y="547"/>
      <point x="146" y="547" type="curve" smooth="yes"/>
      <point x="72" y="547"/>
      <point x="28" y="491"/>
      <point x="28" y="405" type="curve"/>
      <point x="103" y="405" type="line"/>
      <point x="103" y="450"/>
      <point x="120" y="476"/>
      <point x="147" y="476" type="curve" smooth="yes"/>
      <point x="174" y="476"/>
      <point x="190" y="449"/>
      <point x="190" y="383" type="curve" smooth="yes"/>
    </contour>
  </outline>
</glyph>
<glyph name="tone4_wpk" format="2">
  <advance width="330"/>
  <unicode hex="106C"/>
  <note>
tone4_wpk
</note>
  <outline>
    <contour>
      <point x="184" y="-11" type="curve" smooth="yes"/>
      <point x="258" y="-11"/>
      <point x="302" y="45"/>
      <point x="302" y="131" type="curve"/>
      <point x="227" y="131" type="line"/>
      <point x="227" y="86"/>
      <point x="210" y="60"/>
      <point x="183" y="60" type="curve" smooth="yes"/>
      <point x="156" y="60"/>
      <point x="140" y="87"/>
      <point x="140" y="153" type="curve" smooth="yes"/>
      <point x="140" y="536" type="line"/>
      <point x="65" y="536" type="line"/>
      <point x="65" y="143" type="line" smooth="yes"/>
      <point x="65" y="41"/>
      <point x="106" y="-11"/>
    </contour>
  </outline>
</glyph>
<glyph name="tone5_wpk" format="2">
  <advance width="325"/>
  <unicode hex="106D"/>
  <note>
tone5_wpk
</note>
  <outline>
    <contour>
      <point x="169" y="-13" type="curve" smooth="yes"/>
      <point x="239" y="-13"/>
      <point x="288" y="43"/>
      <point x="288" y="124" type="curve" smooth="yes"/>
      <point x="288" y="192"/>
      <point x="264" y="234"/>
      <point x="180" y="304" type="curve" smooth="yes"/>
      <point x="132" y="344"/>
      <point x="122" y="383"/>
      <point x="122" y="413" type="curve" smooth="yes"/>
      <point x="122" y="447"/>
      <point x="140" y="475"/>
      <point x="173" y="475" type="curve" smooth="yes"/>
      <point x="194" y="475"/>
      <point x="217" y="464"/>
      <point x="236" y="430" type="curve"/>
      <point x="288" y="476" type="line"/>
      <point x="259" y="520"/>
      <point x="224" y="545"/>
      <point x="164" y="545" type="curve" smooth="yes"/>
      <point x="87" y="545"/>
      <point x="41" y="484"/>
      <point x="41" y="416" type="curve" smooth="yes"/>
      <point x="41" y="344"/>
      <point x="70" y="298"/>
      <point x="150" y="228" type="curve" smooth="yes"/>
      <point x="191" y="192"/>
      <point x="208" y="163"/>
      <point x="208" y="122" type="curve" smooth="yes"/>
      <point x="208" y="85"/>
      <point x="187" y="58"/>
      <point x="156" y="58" type="curve" smooth="yes"/>
      <point x="133" y="58"/>
      <point x="110" y="69"/>
      <point x="86" y="101" type="curve"/>
      <point x="42" y="54" type="line"/>
      <point x="79" y="4"/>
      <point x="116" y="-13"/>
    </contour>
  </outline>
</glyph>
<glyph name="nna_epk" format="2">
  <advance width="964"/>
  <unicode hex="106E"/>
  <note>
nna_epk
</note>
  <outline>
    <contour>
      <point x="138" y="-10" type="curve"/>
      <point x="181" y="49" type="line"/>
      <point x="141" y="95"/>
      <point x="122" y="167"/>
      <point x="122" y="255" type="curve" smooth="yes"/>
      <point x="122" y="394"/>
      <point x="167" y="475"/>
      <point x="234" y="475" type="curve" smooth="yes"/>
      <point x="301" y="475"/>
      <point x="344" y="396"/>
      <point x="344" y="255" type="curve" smooth="yes"/>
      <point x="344" y="167"/>
      <point x="325" y="95"/>
      <point x="286" y="49" type="curve"/>
      <point x="329" y="-10" type="line"/>
      <point x="386" y="42"/>
      <point x="427" y="149"/>
      <point x="427" y="257" type="curve" smooth="yes"/>
      <point x="427" y="419"/>
      <point x="352" y="545"/>
      <point x="234" y="545" type="curve" smooth="yes"/>
      <point x="118" y="545"/>
      <point x="39" y="430"/>
      <point x="39" y="257" type="curve" smooth="yes"/>
      <point x="39" y="144"/>
      <point x="81" y="38"/>
    </contour>
    <contour>
      <point x="521" y="-10" type="line"/>
      <point x="580" y="42"/>
      <point x="617" y="133"/>
      <point x="617" y="257" type="curve" smooth="yes"/>
      <point x="617" y="410"/>
      <point x="545" y="545"/>
      <point x="426" y="545" type="curve" smooth="yes"/>
      <point x="389" y="545"/>
      <point x="353" y="530"/>
      <point x="324" y="500" type="curve"/>
      <point x="376" y="453" type="line"/>
      <point x="392" y="466"/>
      <point x="409" y="474"/>
      <point x="427" y="474" type="curve" smooth="yes"/>
      <point x="495" y="474"/>
      <point x="540" y="396"/>
      <point x="540" y="255" type="curve" smooth="yes"/>
      <point x="540" y="167"/>
      <point x="520" y="95"/>
      <point x="478" y="49" type="curve"/>
    </contour>
    <contour>
      <point x="746" y="-10" type="curve" smooth="yes"/>
      <point x="848" y="-10"/>
      <point x="925" y="101"/>
      <point x="925" y="267" type="curve" smooth="yes"/>
      <point x="925" y="422"/>
      <point x="849" y="545"/>
      <point x="731" y="545" type="curve" smooth="yes"/>
      <point x="662" y="545"/>
      <point x="607" y="496"/>
      <point x="571" y="407" type="curve"/>
      <point x="606" y="325" type="line"/>
      <point x="632" y="418"/>
      <point x="668" y="474"/>
      <point x="727" y="474" type="curve" smooth="yes"/>
      <point x="798" y="474"/>
      <point x="842" y="389"/>
      <point x="842" y="264" type="curve" smooth="yes"/>
      <point x="842" y="136"/>
      <point x="800" y="58"/>
      <point x="736" y="58" type="curve" smooth="yes"/>
      <point x="713" y="58"/>
      <point x="697" y="64"/>
      <point x="679" y="76" type="curve"/>
      <point x="650" y="15" type="line"/>
      <point x="676" y="-3"/>
      <point x="710" y="-10"/>
    </contour>
  </outline>
</glyph>
<glyph name="ywa_epk" format="2">
  <advance width="841"/>
  <unicode hex="106F"/>
  <note>
ywa_epk
</note>
  <outline>
    <contour>
      <point x="252" y="-10" type="curve" smooth="yes"/>
      <point x="386" y="-10"/>
      <point x="459" y="108"/>
      <point x="459" y="278" type="curve" smooth="yes"/>
      <point x="459" y="384"/>
      <point x="418" y="491"/>
      <point x="360" y="545" type="curve"/>
      <point x="317" y="486" type="line"/>
      <point x="361" y="440"/>
      <point x="381" y="369"/>
      <point x="381" y="279" type="curve" smooth="yes"/>
      <point x="381" y="145"/>
      <point x="338" y="61"/>
      <point x="251" y="61" type="curve" smooth="yes"/>
      <point x="167" y="61"/>
      <point x="122" y="144"/>
      <point x="122" y="279" type="curve" smooth="yes"/>
      <point x="122" y="369"/>
      <point x="142" y="440"/>
      <point x="184" y="486" type="curve"/>
      <point x="141" y="545" type="line"/>
      <point x="81" y="490"/>
      <point x="39" y="386"/>
      <point x="39" y="278" type="curve" smooth="yes"/>
      <point x="39" y="108"/>
      <point x="118" y="-10"/>
    </contour>
    <contour>
      <point x="478" y="-467" type="line"/>
      <point x="651" y="-467" type="line"/>
      <point x="651" y="11" type="line"/>
      <point x="568" y="6" type="line"/>
      <point x="568" y="-396" type="line"/>
      <point x="478" y="-396" type="line"/>
    </contour>
    <contour>
      <point x="603" y="-10" type="curve" smooth="yes"/>
      <point x="717" y="-10"/>
      <point x="803" y="98"/>
      <point x="803" y="266" type="curve" smooth="yes"/>
      <point x="803" y="429"/>
      <point x="716" y="545"/>
      <point x="585" y="545" type="curve" smooth="yes"/>
      <point x="503" y="545"/>
      <point x="440" y="498"/>
      <point x="399" y="415" type="curve"/>
      <point x="436" y="328" type="line"/>
      <point x="467" y="413"/>
      <point x="515" y="473"/>
      <point x="583" y="473" type="curve" smooth="yes"/>
      <point x="670" y="473"/>
      <point x="721" y="386"/>
      <point x="721" y="264" type="curve" smooth="yes"/>
      <point x="721" y="141"/>
      <point x="671" y="61"/>
      <point x="594" y="61" type="curve" smooth="yes"/>
      <point x="566" y="61"/>
      <point x="547" y="66"/>
      <point x="523" y="76" type="curve"/>
      <point x="494" y="15" type="line"/>
      <point x="523" y="-3"/>
      <point x="561" y="-10"/>
    </contour>
  </outline>
</glyph>
<glyph name="ghwa_epk" format="2">
  <advance width="847"/>
  <unicode hex="1070"/>
  <note>
ghwa_epk
</note>
  <outline>
    <contour>
      <point x="249" y="-10" type="curve" smooth="yes"/>
      <point x="380" y="-10"/>
      <point x="464" y="113"/>
      <point x="464" y="278" type="curve" smooth="yes"/>
      <point x="464" y="384"/>
      <point x="423" y="488"/>
      <point x="363" y="545" type="curve"/>
      <point x="320" y="486" type="line"/>
      <point x="366" y="439"/>
      <point x="386" y="370"/>
      <point x="386" y="279" type="curve" smooth="yes"/>
      <point x="386" y="142"/>
      <point x="335" y="58"/>
      <point x="251" y="58" type="curve" smooth="yes"/>
      <point x="176" y="58"/>
      <point x="131" y="118"/>
      <point x="131" y="201" type="curve" smooth="yes"/>
      <point x="131" y="246"/>
      <point x="143" y="282"/>
      <point x="179" y="329" type="curve" smooth="yes"/>
      <point x="215" y="376"/>
      <point x="229" y="401"/>
      <point x="229" y="444" type="curve" smooth="yes"/>
      <point x="229" y="492"/>
      <point x="196" y="545"/>
      <point x="137" y="545" type="curve" smooth="yes"/>
      <point x="96" y="545"/>
      <point x="65" y="527"/>
      <point x="39" y="486" type="curve"/>
      <point x="82" y="440" type="line"/>
      <point x="96" y="466"/>
      <point x="112" y="477"/>
      <point x="128" y="477" type="curve" smooth="yes"/>
      <point x="144" y="477"/>
      <point x="153" y="460"/>
      <point x="153" y="440" type="curve" smooth="yes"/>
      <point x="153" y="413"/>
      <point x="138" y="398"/>
      <point x="111" y="369" type="curve" smooth="yes"/>
      <point x="71" y="327"/>
      <point x="49" y="271"/>
      <point x="49" y="201" type="curve" smooth="yes"/>
      <point x="49" y="77"/>
      <point x="129" y="-10"/>
    </contour>
    <contour>
      <point x="473" y="-467" type="line"/>
      <point x="646" y="-467" type="line"/>
      <point x="646" y="11" type="line"/>
      <point x="563" y="6" type="line"/>
      <point x="563" y="-396" type="line"/>
      <point x="473" y="-396" type="line"/>
    </contour>
    <contour>
      <point x="590" y="-10" type="curve" smooth="yes"/>
      <point x="721" y="-10"/>
      <point x="808" y="106"/>
      <point x="808" y="269" type="curve" smooth="yes"/>
      <point x="808" y="437"/>
      <point x="722" y="545"/>
      <point x="608" y="545" type="curve" smooth="yes"/>
      <point x="566" y="545"/>
      <point x="528" y="538"/>
      <point x="499" y="520" type="curve"/>
      <point x="528" y="459" type="line"/>
      <point x="552" y="469"/>
      <point x="571" y="474"/>
      <point x="599" y="474" type="curve" smooth="yes"/>
      <point x="676" y="474"/>
      <point x="726" y="394"/>
      <point x="726" y="271" type="curve" smooth="yes"/>
      <point x="726" y="149"/>
      <point x="675" y="62"/>
      <point x="588" y="62" type="curve" smooth="yes"/>
      <point x="520" y="62"/>
      <point x="472" y="122"/>
      <point x="441" y="207" type="curve"/>
      <point x="404" y="120" type="line"/>
      <point x="445" y="37"/>
      <point x="508" y="-10"/>
    </contour>
  </outline>
</glyph>
<glyph name="i_gkn" format="2">
  <unicode hex="1071"/>
  <note>
i_gkn
</note>
  <outline>
    <contour>
      <point x="-123" y="684" type="curve" smooth="yes"/>
      <point x="-72" y="684"/>
      <point x="-35" y="722"/>
      <point x="-35" y="790" type="curve" smooth="yes"/>
      <point x="-35" y="853"/>
      <point x="-72" y="892"/>
      <point x="-123" y="892" type="curve" smooth="yes"/>
      <point x="-175" y="892"/>
      <point x="-210" y="852"/>
      <point x="-210" y="789" type="curve" smooth="yes"/>
      <point x="-210" y="722"/>
      <point x="-175" y="684"/>
    </contour>
    <contour>
      <point x="-122" y="733" type="curve" smooth="yes"/>
      <point x="-147" y="733"/>
      <point x="-159" y="755"/>
      <point x="-159" y="789" type="curve" smooth="yes"/>
      <point x="-159" y="822"/>
      <point x="-144" y="842"/>
      <point x="-122" y="842" type="curve" smooth="yes"/>
      <point x="-101" y="842"/>
      <point x="-86" y="822"/>
      <point x="-86" y="789" type="curve" smooth="yes"/>
      <point x="-86" y="755"/>
      <point x="-101" y="733"/>
    </contour>
    <contour>
      <point x="-350" y="684" type="curve" smooth="yes"/>
      <point x="-299" y="684"/>
      <point x="-262" y="722"/>
      <point x="-262" y="790" type="curve" smooth="yes"/>
      <point x="-262" y="853"/>
      <point x="-299" y="892"/>
      <point x="-350" y="892" type="curve" smooth="yes"/>
      <point x="-402" y="892"/>
      <point x="-437" y="853"/>
      <point x="-437" y="789" type="curve" smooth="yes"/>
      <point x="-437" y="722"/>
      <point x="-402" y="684"/>
    </contour>
    <contour>
      <point x="-349" y="733" type="curve" smooth="yes"/>
      <point x="-374" y="733"/>
      <point x="-386" y="755"/>
      <point x="-386" y="789" type="curve" smooth="yes"/>
      <point x="-386" y="822"/>
      <point x="-371" y="842"/>
      <point x="-349" y="842" type="curve" smooth="yes"/>
      <point x="-328" y="842"/>
      <point x="-313" y="822"/>
      <point x="-313" y="789" type="curve" smooth="yes"/>
      <point x="-313" y="755"/>
      <point x="-328" y="733"/>
    </contour>
  </outline>
</glyph>
<glyph name="oe_kyh" format="2">
  <unicode hex="1072"/>
  <note>
oe_kyh
</note>
  <outline>
    <contour>
      <point x="-229" y="626" type="curve" smooth="yes"/>
      <point x="-163" y="626"/>
      <point x="-121" y="672"/>
      <point x="-102" y="735" type="curve"/>
      <point x="-158" y="764" type="line"/>
      <point x="-174" y="714"/>
      <point x="-195" y="688"/>
      <point x="-225" y="688" type="curve" smooth="yes"/>
      <point x="-275" y="688"/>
      <point x="-301" y="741"/>
      <point x="-301" y="816" type="curve" smooth="yes"/>
      <point x="-301" y="885"/>
      <point x="-274" y="940"/>
      <point x="-229" y="940" type="curve" smooth="yes"/>
      <point x="-201" y="940"/>
      <point x="-174" y="919"/>
      <point x="-159" y="864" type="curve"/>
      <point x="-106" y="894" type="line"/>
      <point x="-125" y="962"/>
      <point x="-170" y="1001"/>
      <point x="-228" y="1001" type="curve" smooth="yes"/>
      <point x="-319" y="1001"/>
      <point x="-369" y="918"/>
      <point x="-369" y="814" type="curve" smooth="yes"/>
      <point x="-369" y="708"/>
      <point x="-318" y="626"/>
    </contour>
  </outline>
</glyph>
<glyph name="u_kyh" format="2">
  <unicode hex="1073"/>
  <note>
u_kyh
</note>
  <outline>
    <contour>
      <point x="-391" y="628" type="line"/>
      <point x="-224" y="838" type="line"/>
      <point x="-58" y="628" type="line"/>
      <point x="-16" y="679" type="line"/>
      <point x="-224" y="944" type="line"/>
      <point x="-432" y="679" type="line"/>
    </contour>
  </outline>
</glyph>
<glyph name="ee_kyh" format="2">
  <unicode hex="1074"/>
  <note>
ee_kyh
</note>
  <outline>
    <contour>
      <point x="-224" y="628" type="line"/>
      <point x="-16" y="893" type="line"/>
      <point x="-58" y="944" type="line"/>
      <point x="-224" y="734" type="line"/>
      <point x="-391" y="944" type="line"/>
      <point x="-432" y="893" type="line"/>
    </contour>
  </outline>
</glyph>
<glyph name="ka_shn" format="2">
  <advance width="516"/>
  <unicode hex="1075"/>
  <note>
ka_shn
</note>
  <outline>
    <contour>
      <point x="132" y="-10" type="curve" smooth="yes"/>
      <point x="191" y="-10"/>
      <point x="224" y="36"/>
      <point x="224" y="87" type="curve" smooth="yes"/>
      <point x="224" y="127"/>
      <point x="210" y="159"/>
      <point x="176" y="204" type="curve" smooth="yes"/>
      <point x="139" y="253"/>
      <point x="127" y="289"/>
      <point x="127" y="334" type="curve" smooth="yes"/>
      <point x="127" y="415"/>
      <point x="174" y="474"/>
      <point x="249" y="474" type="curve" smooth="yes"/>
      <point x="345" y="474"/>
      <point x="391" y="390"/>
      <point x="391" y="268" type="curve" smooth="yes"/>
      <point x="391" y="172"/>
      <point x="366" y="106"/>
      <point x="327" y="49" type="curve"/>
      <point x="370" y="-10" type="line"/>
      <point x="431" y="44"/>
      <point x="474" y="151"/>
      <point x="474" y="257" type="curve" smooth="yes"/>
      <point x="474" y="427"/>
      <point x="396" y="545"/>
      <point x="250" y="545" type="curve" smooth="yes"/>
      <point x="127" y="545"/>
      <point x="44" y="458"/>
      <point x="44" y="334" type="curve" smooth="yes"/>
      <point x="44" y="264"/>
      <point x="69" y="210"/>
      <point x="106" y="166" type="curve" smooth="yes"/>
      <point x="133" y="134"/>
      <point x="148" y="118"/>
      <point x="148" y="91" type="curve" smooth="yes"/>
      <point x="148" y="72"/>
      <point x="137" y="61"/>
      <point x="121" y="61" type="curve" smooth="yes"/>
      <point x="105" y="61"/>
      <point x="91" y="71"/>
      <point x="77" y="95" type="curve"/>
      <point x="34" y="49" type="line"/>
      <point x="60" y="8"/>
      <point x="91" y="-10"/>
    </contour>
  </outline>
</glyph>
<glyph name="kha_shn" format="2">
  <advance width="514"/>
  <unicode hex="1076"/>
  <note>
kha_shn
</note>
  <outline>
    <contour>
      <point x="251" y="-10" type="curve" smooth="yes"/>
      <point x="385" y="-10"/>
      <point x="475" y="106"/>
      <point x="475" y="269" type="curve" smooth="yes"/>
      <point x="475" y="431"/>
      <point x="409" y="543"/>
      <point x="303" y="543" type="curve" smooth="yes"/>
      <point x="248" y="543"/>
      <point x="221" y="520"/>
      <point x="186" y="463" type="curve" smooth="yes"/>
      <point x="159" y="420"/>
      <point x="150" y="399"/>
      <point x="132" y="399" type="curve" smooth="yes"/>
      <point x="118" y="399"/>
      <point x="108" y="411"/>
      <point x="108" y="435" type="curve" smooth="yes"/>
      <point x="108" y="459"/>
      <point x="117" y="477"/>
      <point x="133" y="499" type="curve"/>
      <point x="82" y="545" type="line"/>
      <point x="55" y="512"/>
      <point x="39" y="482"/>
      <point x="39" y="435" type="curve" smooth="yes"/>
      <point x="39" y="365"/>
      <point x="76" y="328"/>
      <point x="128" y="328" type="curve" smooth="yes"/>
      <point x="170" y="328"/>
      <point x="202" y="356"/>
      <point x="233" y="412" type="curve" smooth="yes"/>
      <point x="259" y="459"/>
      <point x="272" y="472"/>
      <point x="305" y="472" type="curve" smooth="yes"/>
      <point x="357" y="472"/>
      <point x="393" y="399"/>
      <point x="393" y="269" type="curve" smooth="yes"/>
      <point x="393" y="164"/>
      <point x="347" y="61"/>
      <point x="253" y="61" type="curve" smooth="yes"/>
      <point x="197" y="61"/>
      <point x="147" y="92"/>
      <point x="123" y="152" type="curve"/>
      <point x="160" y="178"/>
      <point x="203" y="199"/>
      <point x="246" y="199" type="curve" smooth="yes"/>
      <point x="304" y="199"/>
      <point x="345" y="166"/>
      <point x="382" y="123" type="curve"/>
      <point x="401" y="184" type="line"/>
      <point x="360" y="231"/>
      <point x="308" y="266"/>
      <point x="242" y="266" type="curve" smooth="yes"/>
      <point x="176" y="266"/>
      <point x="119" y="238"/>
      <point x="42" y="177" type="curve"/>
      <point x="64" y="62"/>
      <point x="145" y="-10"/>
    </contour>
  </outline>
</glyph>
<glyph name="ga_shn" format="2">
  <advance width="513"/>
  <unicode hex="1077"/>
  <note>
ga_shn
</note>
  <outline>
    <contour>
      <point x="132" y="-10" type="curve" smooth="yes"/>
      <point x="191" y="-10"/>
      <point x="224" y="36"/>
      <point x="224" y="87" type="curve" smooth="yes"/>
      <point x="224" y="127"/>
      <point x="210" y="159"/>
      <point x="176" y="204" type="curve" smooth="yes"/>
      <point x="139" y="253"/>
      <point x="127" y="289"/>
      <point x="127" y="334" type="curve" smooth="yes"/>
      <point x="127" y="415"/>
      <point x="166" y="474"/>
      <point x="251" y="474" type="curve" smooth="yes"/>
      <point x="341" y="474"/>
      <point x="395" y="383"/>
      <point x="395" y="255" type="curve" smooth="yes"/>
      <point x="395" y="194"/>
      <point x="376" y="146"/>
      <point x="354" y="108" type="curve"/>
      <point x="335" y="147"/>
      <point x="319" y="196"/>
      <point x="319" y="254" type="curve" smooth="yes"/>
      <point x="319" y="323"/>
      <point x="335" y="389"/>
      <point x="363" y="428" type="curve"/>
      <point x="316" y="467" type="line"/>
      <point x="281" y="420"/>
      <point x="257" y="353"/>
      <point x="257" y="254" type="curve" smooth="yes"/>
      <point x="257" y="163"/>
      <point x="291" y="73"/>
      <point x="347" y="-11" type="curve"/>
      <point x="425" y="43"/>
      <point x="474" y="146"/>
      <point x="474" y="257" type="curve" smooth="yes"/>
      <point x="474" y="428"/>
      <point x="394" y="545"/>
      <point x="251" y="545" type="curve" smooth="yes"/>
      <point x="114" y="545"/>
      <point x="44" y="458"/>
      <point x="44" y="334" type="curve" smooth="yes"/>
      <point x="44" y="264"/>
      <point x="69" y="210"/>
      <point x="106" y="166" type="curve" smooth="yes"/>
      <point x="133" y="134"/>
      <point x="148" y="118"/>
      <point x="148" y="91" type="curve" smooth="yes"/>
      <point x="148" y="72"/>
      <point x="137" y="61"/>
      <point x="121" y="61" type="curve" smooth="yes"/>
      <point x="105" y="61"/>
      <point x="91" y="71"/>
      <point x="77" y="95" type="curve"/>
      <point x="34" y="49" type="line"/>
      <point x="60" y="8"/>
      <point x="91" y="-10"/>
    </contour>
  </outline>
</glyph>
